<svg width="16" height="16" viewBox="0 0 16 16" fill="none" xmlns="http://www.w3.org/2000/svg">
<g clip-path="url(#clip0_2113_1163)">
<path d="M11.3204 9.96563C11.0849 9.82759 10.7955 9.83049 10.5612 9.96969L9.3745 10.6767C9.10886 10.8351 8.7771 10.8165 8.5335 10.6263C8.11242 10.2974 7.4344 9.74407 6.84454 9.15421C6.25468 8.56435 5.70136 7.88633 5.3725 7.46525C5.18226 7.22165 5.1637 6.88989 5.32204 6.62425L6.02906 5.43757C6.16884 5.20325 6.17 4.91151 6.03196 4.67603L4.2908 1.70179C4.12202 1.41411 3.78678 1.27259 3.46256 1.35205C3.14762 1.42861 2.73872 1.61537 2.3101 2.04457C0.96798 3.38669 0.25516 5.65043 5.30232 10.6976C10.3495 15.7448 12.6126 15.0325 13.9553 13.6898C14.3851 13.26 14.5713 12.8506 14.6484 12.535C14.7267 12.2114 14.5875 11.8785 14.3004 11.7103C13.5836 11.2909 12.0373 10.3856 11.3204 9.96563Z" fill="white"/>
</g>
<defs>
<clipPath id="clip0_2113_1163">
<rect width="16" height="16" fill="white"/>
</clipPath>
</defs>
</svg>
