<svg width="147" height="60" viewBox="0 0 147 60" fill="none" xmlns="http://www.w3.org/2000/svg">
<path d="M71.2349 25.8079C71.2349 25.8079 66.4492 11.1456 83.9509 2.91757C83.9509 2.992 92.1044 0 92.1044 0C92.1044 0 96.5924 23.3368 74.0036 27.0768C74.078 27.0768 74.3943 18.54 83.054 10.379C83.054 10.379 74.1859 14.8595 71.2349 25.8041V25.8079Z" fill="white"/>
<path d="M69.3742 14.9189C69.3742 14.9189 70.9967 10.1853 72.0983 9.53776C72.0983 9.60102 66.7767 3.18534 54.3807 0.0035518C54.511 -0.130418 51.2026 21.4127 69.0467 26.217C69.177 26.1538 67.6847 21.2862 69.0467 16.3516C69.0467 16.2884 65.9952 12.3362 63.7809 10.4123C63.74 10.4123 66.2706 11.4059 69.3705 14.9189H69.3742Z" fill="white"/>
<path d="M3.96701 37.8321L4.03028 37.8098H4.3131C4.39497 37.8098 4.51778 37.713 4.6778 37.5195C4.69269 37.5046 4.87875 37.4414 5.23229 37.3223L5.27322 37.2813C5.36998 37.1995 5.44068 37.1437 5.48162 37.1139H5.68257C5.68257 37.1139 5.75328 37.0804 5.85004 37.0134C5.94679 36.9464 6.15519 36.872 6.47151 36.7901C6.78783 36.7083 6.99623 36.6375 7.09298 36.5817C7.13392 36.5668 7.28649 36.5482 7.55071 36.5185L7.84098 36.4664L8.07171 36.4887C8.44013 36.4887 8.70435 36.7306 8.86437 37.2181C8.86437 37.2479 8.88297 37.2888 8.91646 37.3483C8.94996 37.4079 8.96856 37.4525 8.96856 37.4786C8.96856 37.7689 8.82715 38.0777 8.5406 38.394L8.39547 38.7811C8.39547 38.7811 8.35826 38.8481 8.28755 38.9374C8.21312 39.0267 8.14986 39.1346 8.09404 39.2537C8.03822 39.3765 7.88936 39.5588 7.64747 39.8007C7.60653 39.8826 7.54699 40.0129 7.46884 40.1915C7.39069 40.3701 7.32743 40.4855 7.27533 40.5413C7.22323 40.5971 7.08926 40.8055 6.8697 41.1665C6.65014 41.5275 6.54222 41.7396 6.54222 41.8028C6.43802 41.881 6.36731 42.0075 6.3301 42.1899C6.29288 42.3722 6.22218 42.5397 6.11798 42.6997L6.09565 42.7741C6.31893 42.696 6.43058 42.5769 6.43058 42.4094C6.43058 42.3871 6.49012 42.335 6.6092 42.2531L6.69107 42.108C6.77294 42.0112 6.84737 41.9554 6.91063 41.9405C6.92552 41.8847 6.99623 41.8028 7.1302 41.6949C7.26044 41.587 7.34976 41.5126 7.39441 41.4716C7.43907 41.4307 7.5135 41.386 7.6177 41.3414C7.7219 41.2967 7.84098 41.1255 7.97123 40.8241C7.98612 40.7683 8.03822 40.7236 8.13125 40.6901C8.22429 40.6566 8.30243 40.5971 8.3657 40.519C8.42896 40.4408 8.48106 40.385 8.522 40.3589L8.60387 40.2324C8.68202 40.1617 8.73039 40.1208 8.76016 40.1059L9.27 39.4807C9.54166 39.3058 9.69051 39.1718 9.71657 39.0751L9.79843 39.0527H9.8617C9.97334 38.9634 10.044 38.9002 10.0813 38.8667C10.0813 38.6583 10.1594 38.5206 10.3157 38.4536C10.472 38.3866 10.5836 38.3085 10.6544 38.2154C10.7251 38.1224 10.7995 38.074 10.8851 38.074C10.9074 38.074 10.9446 38.0963 11.0004 38.1373H11.0228C11.0451 38.1373 11.0637 38.1038 11.086 38.0331V37.9289C11.086 37.8098 11.1195 37.713 11.1902 37.6386C11.2609 37.5605 11.354 37.5121 11.4731 37.486C11.5921 37.46 11.7038 37.3744 11.8154 37.2218C11.9271 37.0692 12.0536 36.9911 12.195 36.9836C12.3364 36.9762 12.4332 36.9204 12.4816 36.8162C12.5299 36.712 12.6788 36.6003 12.9281 36.4775C13.1775 36.3547 13.3338 36.2915 13.397 36.2803C13.4603 36.2691 13.5161 36.2505 13.5682 36.2245C13.6203 36.1984 13.6724 36.1835 13.7282 36.1835C13.7989 36.1835 13.8994 36.2059 14.0297 36.2468L14.2157 36.2877C14.3757 36.3584 14.5246 36.485 14.666 36.6748L14.7702 36.779V36.8199L14.7925 36.9985V37.0804C14.8819 37.1213 14.9265 37.1623 14.9265 37.2069L14.8521 37.3409C14.8223 37.3893 14.8112 37.4488 14.8112 37.5121C14.8112 37.5753 14.8112 37.6423 14.8 37.7093C14.7925 37.7763 14.7851 37.8396 14.7739 37.8954C14.7628 37.9549 14.7479 38.0107 14.733 38.0628C14.7181 38.1149 14.6958 38.1633 14.6772 38.208C14.6549 38.2526 14.6325 38.2973 14.6027 38.3382L14.5209 38.6731C14.4948 38.8034 14.4167 38.9634 14.2976 39.1458C14.1748 39.3318 14.1041 39.4584 14.0855 39.5328C14.0631 39.6072 14.0148 39.704 13.9403 39.8305L13.9627 39.8938V40.0389C14.1785 40.0128 14.2864 39.9273 14.2864 39.7896C14.2864 39.6519 14.372 39.5365 14.5469 39.4658L14.7777 39.2797C14.96 38.9597 15.1833 38.7513 15.4475 38.6545C15.4475 38.5429 15.5145 38.4275 15.6447 38.3122L16.0429 37.9363L16.3258 37.78C16.4523 37.5232 16.5937 37.3669 16.7537 37.3111L16.9844 37.166C17.1259 37.0953 17.204 37.0283 17.2189 36.9613C17.2375 36.8943 17.2896 36.8273 17.3826 36.7566C17.4719 36.6859 17.6059 36.5706 17.7808 36.4143L17.8627 36.3733L17.9669 36.2691C18.045 36.2282 18.1306 36.191 18.2274 36.1649L18.3093 36.124C18.4842 35.9937 18.6405 35.9044 18.7782 35.8598C18.9158 35.8151 19.0721 35.7407 19.247 35.6365L19.6117 35.5844C19.6936 35.5583 19.7494 35.5435 19.7792 35.5435C20.4379 35.5435 20.7691 35.9156 20.7691 36.6599L20.7468 36.8273L20.7691 37.4302C20.5942 37.7168 20.5086 37.8656 20.5086 37.8805L20.5309 38.0666C20.5309 38.0926 20.4863 38.1745 20.397 38.3122C20.3076 38.4461 20.2518 38.528 20.2369 38.5578C20.2183 38.5838 20.1551 38.6583 20.0434 38.7773L19.9392 39.0899C19.9057 39.1606 19.8462 39.2239 19.7606 39.2872V39.4137C19.7606 39.5179 19.6266 39.6742 19.355 39.8826C19.3215 40.0649 19.2582 40.1952 19.1726 40.2845C19.087 40.3738 19.02 40.4631 18.9754 40.5562C18.9307 40.6492 18.86 40.7385 18.7633 40.8204C18.7633 40.9097 18.7037 41.0623 18.5846 41.2781C18.4656 41.494 18.3725 41.6317 18.3093 41.6912C18.2423 41.7507 18.1753 41.8512 18.1046 42.0001L18.0115 42.041C17.9706 42.3052 17.9222 42.4541 17.8664 42.4876L17.6989 42.4652V42.5062C17.6989 42.5062 17.7138 42.5434 17.7399 42.5806C17.7659 42.6178 17.7808 42.655 17.7808 42.696C17.7808 42.7443 17.7585 42.7853 17.7176 42.8225C17.6766 42.856 17.6506 42.8932 17.6431 42.9267C17.6357 42.9602 17.6208 42.9974 17.5947 43.0309C17.5687 43.0644 17.5538 43.1351 17.5464 43.2356C17.5389 43.3361 17.4868 43.4737 17.3901 43.6486C17.2933 43.8236 17.2412 43.9389 17.2338 44.0022C17.2263 44.0654 17.2152 44.1175 17.204 44.1585C17.1891 44.1994 17.1817 44.2404 17.1817 44.285C17.1817 44.3297 17.1631 44.4339 17.1296 44.6088C17.2635 44.9214 17.3566 45.1335 17.4124 45.2451C17.4682 45.3568 17.4943 45.4312 17.4943 45.4647C17.4943 45.7438 17.4608 45.9299 17.3901 46.0229C17.3194 46.1159 17.1482 46.1643 16.8765 46.1643C16.7016 46.1643 16.549 46.1048 16.4225 45.982C16.2923 45.8592 16.1806 45.7996 16.0839 45.7996V45.6135L16.0615 45.5912H15.8941C15.8941 45.5912 15.8494 45.554 15.8048 45.5168C15.7601 45.4833 15.7154 45.4349 15.6745 45.3717L15.6112 45.3084C15.5554 45.2377 15.507 45.126 15.4661 44.966L15.4029 44.7576L15.4252 44.5902L15.4029 44.3297C15.4029 44.259 15.4103 44.2031 15.4252 44.1622L15.4475 43.8794C15.4475 43.8533 15.4624 43.7901 15.4884 43.697C15.5145 43.604 15.5331 43.4924 15.5405 43.3621C15.548 43.2356 15.5778 43.1351 15.6336 43.0644C15.6894 42.9937 15.7192 42.9379 15.7266 42.8858C15.7341 42.8374 15.7527 42.7965 15.7824 42.7667C15.8122 42.7369 15.8383 42.6588 15.8606 42.5322C15.8829 42.4057 15.9536 42.3052 16.0801 42.2308C16.1508 42.1043 16.2067 41.9889 16.2588 41.8773C16.4039 41.6763 16.4821 41.5758 16.4895 41.5758H16.6346C16.5639 41.494 16.5304 41.4456 16.5304 41.4307C16.5304 41.2446 16.6049 41.1479 16.75 41.1479C16.776 41.1479 16.8133 41.1553 16.8542 41.1702L16.8951 41.0883L16.8542 40.9097C16.8542 40.7906 16.9435 40.6753 17.1259 40.5562C17.1259 40.3552 17.2189 40.1729 17.4087 40.0129L17.3864 39.8454C17.4273 39.8044 17.4868 39.7114 17.565 39.57C17.6431 39.4286 17.7399 39.2835 17.8552 39.1383L18.179 38.6471L18.3241 38.4796C18.3241 38.4796 18.3241 38.4871 18.3279 38.4834C18.3279 38.4834 18.339 38.4648 18.3502 38.4424C18.3614 38.4164 18.3725 38.3829 18.3874 38.3345L18.4507 38.1782L18.5251 38.0963C18.7074 38.048 18.7968 37.9847 18.7968 37.9103C18.7968 37.8954 18.7707 37.8507 18.7149 37.7763V37.7354C18.7149 37.6795 18.7558 37.6088 18.8414 37.527C18.927 37.4451 19.0014 37.326 19.0759 37.1771C19.1503 37.0283 19.1838 36.9353 19.1838 36.9018C19.1838 36.8757 19.1689 36.8608 19.1429 36.8608C18.9196 36.8608 18.7707 36.939 18.6963 37.099C18.6963 37.1399 18.5623 37.2255 18.2906 37.3483L18.1864 37.5046C18.1046 37.5828 18.0302 37.62 17.9669 37.62C17.9036 37.62 17.8218 37.6609 17.7213 37.7391C17.6208 37.8172 17.4012 37.9996 17.0589 38.2824C16.7165 38.5652 16.4672 38.796 16.3071 38.9746L16.069 39.142C15.9722 39.1904 15.9238 39.2276 15.9238 39.2574C15.9238 39.3281 15.8643 39.4174 15.7452 39.5291L15.6187 39.6854C15.5219 39.6519 15.4661 39.6333 15.4512 39.6333C15.3731 39.6333 15.3098 39.6705 15.254 39.7486C15.3098 39.8045 15.3359 39.8379 15.3359 39.8528C15.3359 39.9645 15.2317 40.0798 15.0233 40.1952L14.573 40.6641C14.573 40.6641 14.506 40.7162 14.4167 40.7795C14.3274 40.8427 14.2567 40.9209 14.212 41.0139C14.1673 41.1069 14.0445 41.2707 13.8399 41.5051C13.6389 41.7396 13.5198 41.8624 13.4826 41.881C13.4491 41.8996 13.4045 41.9443 13.3561 42.0224C13.3077 42.1006 13.2072 42.2085 13.0547 42.3462C12.9021 42.4839 12.8128 42.6364 12.7942 42.8039C12.6602 42.8523 12.5969 42.8932 12.5969 42.9304L12.5337 43.0346L12.4518 43.0756C12.4369 43.1053 12.4257 43.15 12.422 43.217C12.4146 43.284 12.2769 43.403 12.0052 43.5705C11.7336 43.7417 11.5624 43.8273 11.4954 43.8273C11.4731 43.8273 11.4433 43.8422 11.4024 43.8682C11.3614 43.8943 11.3316 43.9091 11.3205 43.9091C11.2982 43.9091 11.2088 43.8682 11.0451 43.7826C10.8814 43.7007 10.7623 43.5035 10.6841 43.1984L10.766 42.9267L10.7251 42.7071C10.7251 42.6662 10.7586 42.6104 10.8255 42.5397C10.8925 42.469 10.926 42.3834 10.926 42.2792C11.0377 42.0298 11.1195 41.8512 11.1753 41.747L11.1977 41.5796C11.2237 41.5088 11.2721 41.4307 11.3391 41.3451C11.4061 41.2595 11.4433 41.159 11.4582 41.0548C11.4731 40.9469 11.5177 40.8799 11.5921 40.8502C11.6703 40.8241 11.9494 40.4036 12.4369 39.5886V39.4435L12.7383 38.9225C12.8276 38.7699 12.9393 38.595 13.0733 38.4015L13.1663 38.1633C12.9504 38.0814 12.8351 38.0368 12.8239 38.0368C12.783 38.0368 12.7309 38.0666 12.6676 38.1187C12.6676 38.2377 12.463 38.3568 12.0536 38.4834C11.9717 38.5243 11.8638 38.6248 11.7298 38.7848L11.4396 38.9523C11.3986 38.9783 11.3316 39.0341 11.2423 39.1197L11.0972 39.2537C10.9223 39.2946 10.7734 39.3914 10.6506 39.5477L10.3678 39.7449C10.2859 39.8156 10.2301 39.8677 10.2003 39.9012C10.1706 39.9347 10.044 40.0128 9.81332 40.1319L9.64586 40.2994L9.48956 40.3813C9.37792 40.5004 9.29605 40.6008 9.24022 40.6827C9.1844 40.7646 9.1137 40.813 9.02066 40.8278L8.78994 40.9097C8.749 41.0921 8.61875 41.2632 8.40291 41.4307L8.10148 41.8066C8.04566 41.8549 7.99728 41.8922 7.95635 41.9219C7.92657 41.9926 7.8782 42.041 7.81121 42.0671C7.7219 42.1787 7.66235 42.2531 7.63258 42.2978L7.50606 42.3908C7.31999 42.4615 7.22323 42.5173 7.22323 42.5583L7.24556 42.7444C7.24556 42.8225 7.16369 42.8932 6.99623 42.9639C6.92552 42.9974 6.88831 43.0532 6.87714 43.1314C6.86598 43.2095 6.83993 43.2877 6.79899 43.3695H6.61292C6.59059 43.3695 6.52733 43.403 6.41569 43.4737C6.4008 43.4737 6.38592 43.4812 6.37475 43.4961L6.41569 43.7342C6.41569 43.8161 6.35987 43.9129 6.24823 44.0208C6.13658 44.1287 6.05099 44.2255 5.99145 44.3073C5.93191 44.3892 5.88725 44.4339 5.8612 44.4339H5.79794L5.73467 44.4748C5.74212 44.605 5.65653 44.7502 5.47418 44.9028L5.34765 45.0591C5.30671 45.0926 5.18763 45.2675 4.9904 45.5801C4.79688 45.8926 4.61081 46.1457 4.43591 46.3392C4.261 46.5327 4.10098 46.663 3.95585 46.73C3.81072 46.7969 3.65442 46.8639 3.48695 46.9346L3.05899 46.8528C3.01806 46.7746 2.95479 46.7151 2.87665 46.6667C2.7985 46.6183 2.75756 46.5662 2.75756 46.5104L2.63103 46.1457C2.63103 46.0489 2.66825 45.9299 2.7464 45.7847C2.82455 45.6433 2.8692 45.5317 2.88781 45.4498C2.90642 45.3717 2.94363 45.2637 3.00689 45.126C3.07016 44.9883 3.09993 44.9176 3.09993 44.9028C3.09993 44.7167 3.1297 44.5976 3.18924 44.5529C3.24879 44.5083 3.38275 44.4041 3.59115 44.2441C3.60604 44.2441 3.61348 44.2292 3.61348 44.2031V44.1808L3.59115 44.0022C3.75117 43.7305 3.85165 43.5965 3.89259 43.5965C3.90747 43.5965 3.93352 43.604 3.97446 43.6189L3.91119 43.3882C3.91119 43.3621 3.94841 43.3137 4.02656 43.2542C4.10471 43.1946 4.16053 43.1239 4.20518 43.0458L4.16425 42.9193V42.8783C4.16425 42.7481 4.24984 42.6104 4.42475 42.4727C4.4508 42.4169 4.50661 42.2755 4.59221 42.0447L4.86387 41.5647C4.93458 41.4344 5.00528 41.3451 5.08343 41.3005C5.16158 41.2558 5.20252 41.2 5.20996 41.1404C5.2174 41.0772 5.23973 41.0102 5.28439 40.932C5.28439 40.9655 5.28811 40.9692 5.29927 40.9358C5.31044 40.9023 5.32904 40.8353 5.35137 40.7311C5.37742 40.6269 5.45557 40.545 5.58582 40.4817C5.74584 40.0724 5.87237 39.8677 5.96168 39.8677C5.99145 39.8677 6.02866 39.8826 6.07704 39.9087H6.11798C6.22962 39.9087 6.28544 39.8677 6.28544 39.7821C6.28544 39.7561 6.27056 39.7412 6.24451 39.7412C6.18124 39.8119 6.12542 39.8454 6.07704 39.8454C6.02866 39.8454 6.00261 39.8305 6.00261 39.8045C6.00261 39.7896 6.01378 39.7784 6.03239 39.7635L6.26311 39.2946L6.28544 39.0974C6.31149 39.0565 6.36731 38.9932 6.4529 38.9113L6.63153 38.6731V38.569C6.63153 38.569 6.6613 38.4834 6.72457 38.3568C6.78783 38.2303 6.83249 38.1001 6.85854 37.9773L7.03716 37.7168C7.06321 37.6349 7.0781 37.5567 7.0781 37.486C7.0781 37.3818 7.06321 37.3297 7.03716 37.3297L6.43429 37.4451C6.10681 37.6126 5.87237 37.7428 5.73467 37.8396L5.49278 37.8917C5.49278 37.8917 5.38486 37.94 5.21368 38.0331C5.04249 38.1261 4.89364 38.1782 4.76339 38.1894C4.63314 38.2005 4.5215 38.2489 4.42475 38.3419L4.38381 38.3643H4.18658C4.10843 38.4536 4.05633 38.5206 4.03028 38.569C4.00423 38.6136 3.97818 38.6359 3.95585 38.6359C3.25251 39.1011 2.80966 39.3839 2.62359 39.4807C2.43752 39.5774 2.29239 39.6668 2.19563 39.7449C2.09887 39.8231 2.01328 39.8826 1.9463 39.9161V40.0426C1.9463 40.1617 1.8607 40.2957 1.68952 40.4445C1.51834 40.5934 1.3732 40.6678 1.24668 40.6678C1.20574 40.6678 1.13875 40.6455 1.05316 40.6008C0.967571 40.5562 0.870815 40.5264 0.762895 40.5115C0.654974 40.4966 0.602875 40.3664 0.602875 40.1171C0.602875 39.7635 0.893143 39.4398 1.4774 39.1495C1.56671 39.1086 1.65231 39.0602 1.72674 39.0044C1.80116 38.9485 2.11376 38.8146 2.65336 38.5987L2.95479 38.4536C3.0255 38.3829 3.14086 38.3196 3.30461 38.2601C3.46835 38.2005 3.59487 38.1522 3.69163 38.1075C3.78839 38.0628 3.85909 38.0368 3.91491 38.0256L3.97818 37.8693L3.96701 37.8321ZM13.7506 40.3552L13.8548 40.1691V40.1468C13.8548 40.1468 13.8399 40.1245 13.8138 40.1245C13.7431 40.1245 13.6873 40.1952 13.6464 40.3329C13.6612 40.3738 13.6724 40.3962 13.6873 40.3962C13.7133 40.3962 13.7357 40.3813 13.7506 40.3552Z" fill="white"/>
<path d="M27.5644 43.879L27.7318 43.7339C27.836 43.7339 27.8993 43.6855 27.9179 43.5925C27.9402 43.4995 28.0147 43.425 28.1412 43.3692C28.2677 43.3134 28.3905 43.2018 28.4984 43.0306C28.6101 42.8594 28.7254 42.7738 28.8408 42.7738C28.8817 42.7738 28.9301 42.8073 28.9859 42.878C29.0418 42.9487 29.0678 43.0045 29.0678 43.0454C29.0678 43.2762 28.9971 43.5106 28.8594 43.7525L28.8185 44.0428L28.744 44.1768C28.6398 44.2326 28.5729 44.2921 28.5394 44.3554C28.5059 44.4186 28.4277 44.4931 28.2938 44.5861L28.1896 44.7312C28.037 44.7796 27.9328 44.8615 27.8807 44.9694C27.8286 45.081 27.7542 45.1443 27.6611 45.1555C27.5681 45.1704 27.4639 45.2373 27.3522 45.3639C27.2815 45.3974 27.1997 45.4309 27.1029 45.4569L27.0806 45.5611C27.0099 45.6318 26.902 45.6876 26.7531 45.7286C26.6042 45.7695 26.4926 45.8104 26.4182 45.8477C26.3437 45.8849 26.2954 45.9035 26.2656 45.9035C26.1354 45.9035 26.0125 45.8774 25.9009 45.8253C25.7893 45.7732 25.6739 45.7397 25.5585 45.7249C25.5176 45.6839 25.4915 45.6393 25.4841 45.5909C25.4767 45.5425 25.4432 45.4792 25.3799 45.3974C25.3166 45.3155 25.2869 45.2076 25.2869 45.0699L25.3278 44.8727C25.3278 44.8429 25.3092 44.8094 25.2757 44.7685C25.2422 44.7275 25.2236 44.6903 25.2236 44.6643C25.2236 44.6382 25.2311 44.6159 25.2459 44.601C25.2608 44.5861 25.2683 44.5675 25.2683 44.5377C25.2683 44.5042 25.2608 44.4633 25.2459 44.4224C25.2311 44.3814 25.2236 44.3442 25.2236 44.3182L25.2869 43.8083C25.2869 43.7674 25.272 43.7451 25.2459 43.7451C25.2199 43.7451 25.1678 43.7786 25.0934 43.8493C25.0189 43.92 24.9371 43.9535 24.8366 43.9535C24.7808 43.9944 24.7361 44.0837 24.7026 44.214C24.6468 44.2847 24.5761 44.3442 24.4942 44.4L24.4533 44.4633C24.4384 44.5117 24.3863 44.5526 24.297 44.5824C24.2077 44.6122 24.1444 44.6531 24.1109 44.7015L24.0067 44.8057L23.8095 44.7833C23.8095 44.7833 23.7574 44.8578 23.6941 44.9657C23.6309 45.0736 23.5527 45.1629 23.4559 45.2299L22.6633 45.8774C22.5814 45.9332 22.4586 46.004 22.2986 46.0858L22.2353 46.1491C21.6808 46.5175 21.2864 46.6999 21.0557 46.6999C20.8696 46.6999 20.65 46.6478 20.4007 46.5436C20.1514 46.4394 20.0137 46.3128 19.9951 46.1677L19.8909 45.7397C19.8276 45.643 19.7978 45.5053 19.7978 45.3341C19.7978 45.2522 19.8053 45.1964 19.8201 45.1666V45.1034L19.7978 44.761C19.7978 44.6791 19.8648 44.6345 19.9951 44.6345L19.9727 44.3517C19.9727 44.3256 20.0323 44.214 20.1551 44.0242C20.2779 43.8344 20.3597 43.7227 20.4007 43.6967L20.5049 43.5627C20.4974 43.4809 20.5458 43.3915 20.65 43.2985C20.7542 43.2055 20.8361 43.1087 20.8994 43.012C20.9626 42.9152 21.0817 42.8073 21.2529 42.6882L21.5655 42.3756C21.8074 42.1337 22.0716 41.9365 22.3581 41.7913C22.3991 41.7765 22.4847 41.7095 22.6149 41.5829C22.7452 41.4564 22.8903 41.3671 23.054 41.3076C23.2178 41.248 23.3778 41.1736 23.5341 41.0843C23.6904 40.995 23.8132 40.9503 23.9062 40.9503H23.9881C24.0142 40.9503 24.2002 40.8647 24.5426 40.6898H24.6059C24.6319 40.6898 24.6989 40.7196 24.8031 40.7717H24.8254L24.9929 40.6898C25.0189 40.6749 25.0561 40.6675 25.0971 40.6675C25.5288 40.6675 25.7632 40.9652 25.8079 41.5643C25.8228 41.6909 25.8562 41.7504 25.9121 41.7504C25.9828 41.7504 26.0795 41.6239 26.2098 41.3708C26.34 41.1178 26.6117 40.9912 27.0285 40.9912C27.3262 40.9912 27.4751 41.181 27.4751 41.5643C27.4751 42.0146 27.2741 42.4426 26.8722 42.8482C26.8424 42.904 26.8238 42.9673 26.8089 43.0343L26.6638 43.4622V43.4846C26.6638 43.5255 26.634 43.5851 26.5745 43.6558C26.5149 43.7302 26.4852 43.7935 26.4852 43.8493L26.5075 44.1098L26.4666 44.4C26.4666 44.5303 26.4926 44.6196 26.541 44.6605C26.7643 44.6047 26.9243 44.5117 27.0248 44.3852C27.1252 44.2549 27.1959 44.1842 27.2369 44.173L27.3411 44.1321C27.4043 44.0279 27.4751 43.9423 27.5606 43.8716L27.5644 43.879ZM24.1035 43.879C24.1332 43.7265 24.2151 43.6111 24.3602 43.5292C24.5017 43.4511 24.5873 43.3692 24.617 43.2836C24.7473 43.1869 24.9371 43.012 25.1864 42.7626C25.432 42.5133 25.5585 42.3607 25.5585 42.3049C25.5585 42.2826 25.5436 42.2751 25.5176 42.2751H25.4953L25.4134 42.3272L25.2273 42.3049L25.0301 42.3272L24.885 42.2528L24.751 42.2751L24.5426 42.2342C24.431 42.2342 24.3342 42.2565 24.256 42.3012C24.1779 42.3458 24.0216 42.3979 23.7983 42.4537C23.5713 42.5096 23.3704 42.6063 23.188 42.7403C23.0057 42.8743 22.8754 42.945 22.7935 42.945C22.7452 43.0492 22.5814 43.198 22.3023 43.3915C22.1349 43.4474 22.0269 43.5702 21.9786 43.7562C21.7962 43.9014 21.7069 43.987 21.7069 44.0056L21.6325 44.1842C21.5766 44.2326 21.5059 44.2735 21.4241 44.3033C21.3422 44.3331 21.2938 44.4075 21.2789 44.5228C21.264 44.6382 21.2194 44.7424 21.1375 44.8354C21.0594 44.9285 21.0184 45.0029 21.0184 45.0587C21.0184 45.4011 21.0854 45.5686 21.2157 45.5686C21.2715 45.5686 21.3869 45.5313 21.5655 45.4606C21.7441 45.3862 21.8446 45.3378 21.8744 45.3081C21.9041 45.2783 21.9562 45.2522 22.0418 45.2262L22.2391 45.122C22.2651 45.0959 22.2986 45.0773 22.3321 45.0699C22.3656 45.0624 22.4028 45.0401 22.4363 45.0029C22.4698 44.9657 22.533 44.9248 22.6224 44.8764C22.7117 44.8317 22.7824 44.7722 22.8308 44.694C22.9498 44.6233 23.1396 44.5154 23.4039 44.3703L23.6234 44.2028C23.776 44.1321 23.869 44.0763 23.9062 44.0242C23.9397 43.9758 24.0104 43.9274 24.1146 43.879H24.1035Z" fill="white"/>
<path d="M37.9545 44.5231H37.9954L38.0996 44.564C38.0996 44.564 38.1257 44.5566 38.1406 44.5417C38.1406 44.4226 38.1964 44.3221 38.308 44.2403C38.3415 44.11 38.4197 44.0095 38.5425 43.9388C38.6653 43.8681 38.8588 43.7565 39.123 43.5965L39.3835 43.3657L39.51 43.3025L39.5919 43.1983C39.67 43.109 39.7408 43.0643 39.8115 43.0643C39.9157 43.0643 39.9678 43.1015 39.9678 43.1797L39.8747 43.3881L39.9157 43.7304C39.9157 43.857 39.871 43.9649 39.7854 44.0654C39.6998 44.1658 39.5659 44.3035 39.3835 44.4933L38.8513 45.0553L38.5685 45.2004C38.4978 45.2413 38.4345 45.2897 38.3824 45.3455L37.9768 45.6879C37.9768 45.7846 37.947 45.8591 37.8838 45.9075H37.7163L37.6344 45.9484C37.5861 46.0786 37.4447 46.2089 37.2065 46.3354L37.0614 46.4396C37.013 46.4805 36.9683 46.5029 36.9237 46.5029L36.6297 46.4619L36.4324 46.5029C36.3766 46.5029 36.3022 46.4731 36.2092 46.421C36.1161 46.3689 36.0194 46.3205 35.9226 46.2908C35.8259 46.261 35.703 46.1307 35.5505 45.9037C35.4016 45.6767 35.3197 45.5316 35.3049 45.4609C35.3049 45.4311 35.29 45.3865 35.2565 45.3195C35.2267 45.2525 35.2081 45.2153 35.2081 45.2004C35.2081 45.1855 35.2379 45.1185 35.3011 44.992V44.9697C35.3011 44.9473 35.2825 44.899 35.2453 44.8245C35.2081 44.7464 35.1895 44.6533 35.1895 44.5417C35.1895 44.4784 35.1672 44.4003 35.1262 44.3035C35.1821 44.2477 35.2081 44.2068 35.2081 44.177C35.2081 44.1472 35.1969 44.11 35.1783 44.0579C35.156 44.0058 35.1486 43.9649 35.1486 43.9388L35.2118 43.429L35.1709 43.1685L35.1932 42.9192C35.1932 42.774 35.1299 42.6996 35.0071 42.6996C34.9513 42.6996 34.8843 42.7368 34.7987 42.815L34.7243 42.8373C34.5382 42.9266 34.4043 43.001 34.3299 43.0606C34.2517 43.1201 34.1736 43.1499 34.0917 43.1499C34.0507 43.1908 33.9689 43.228 33.8535 43.2653L33.7716 43.3285C33.7456 43.3583 33.6898 43.3992 33.6042 43.4551C33.6042 43.4774 33.4739 43.5927 33.2134 43.8049C32.9529 44.017 32.7185 44.2179 32.5138 44.404C32.3054 44.5901 32.1566 44.6943 32.0635 44.7129C31.9705 44.7315 31.9221 44.8208 31.9221 44.9771C31.9221 45.0032 31.8588 45.059 31.736 45.1446C31.7212 45.1446 31.6505 45.2227 31.5165 45.3753C31.4048 45.2934 31.3416 45.2488 31.3304 45.2488C31.2411 45.2488 31.1741 45.3641 31.1332 45.5911C31.0922 45.6804 30.9806 45.7363 30.7982 45.7586C30.7834 45.766 30.761 45.8181 30.7238 45.9149L30.6829 45.9558H30.5787C30.5787 45.9558 30.5154 45.9968 30.4336 46.0749C30.348 46.1531 30.2773 46.2052 30.214 46.2275C30.1247 46.4136 30.0465 46.5103 29.9833 46.5103C29.9535 46.5103 29.9163 46.4954 29.8642 46.4694C29.8121 46.4433 29.7488 46.4173 29.6707 46.395C29.5925 46.3726 29.5106 46.2908 29.4139 46.1382C29.3209 45.9893 29.2725 45.8628 29.2725 45.7586C29.2725 44.9883 29.4213 44.5677 29.7228 44.497L29.7451 44.4561V44.3742C29.7451 44.2849 29.786 44.2179 29.8642 44.1807C29.9423 44.1435 30.0242 44.0654 30.1098 43.95C30.1917 43.8346 30.2475 43.7714 30.2773 43.7565H30.4112C30.441 43.7565 30.4522 43.6821 30.4522 43.5369C30.4522 43.496 30.4708 43.4588 30.5043 43.4216C30.5378 43.3843 30.5601 43.336 30.5675 43.269C30.575 43.202 30.6233 43.0941 30.7201 42.9452C30.8131 42.7964 30.8615 42.7071 30.8615 42.681L30.8392 42.6401C30.6643 42.8001 30.5415 42.8857 30.4633 42.9006C30.3852 42.9155 30.281 43.0159 30.1507 43.202L29.9833 43.1722C29.6893 43.3881 29.5107 43.5109 29.4399 43.5369C29.3692 43.5667 29.2948 43.6448 29.2092 43.7751C29.2092 43.816 29.1832 43.8458 29.1348 43.857C29.0864 43.8719 28.9934 43.9277 28.8631 44.0244H28.7999C28.625 44.0244 28.5394 43.8979 28.5394 43.6486L28.7589 43.0531C28.8222 42.8671 28.9673 42.7071 29.2018 42.5805C29.4362 42.454 29.6297 42.3275 29.7898 42.2121C29.9498 42.093 30.1098 42.0298 30.2698 42.026L30.3442 41.9218C30.5787 41.8325 30.7387 41.6874 30.8243 41.4939C30.9062 41.3004 31.0215 41.2036 31.1667 41.2036C31.55 41.2036 31.8402 41.345 32.0412 41.6241C32.2421 41.907 32.3426 42.1302 32.3426 42.2977L32.365 42.5805C32.365 42.6773 32.3426 42.8113 32.3017 42.9862C32.2198 43.1127 32.1752 43.2057 32.1752 43.269C32.1752 43.3248 32.2087 43.3509 32.2794 43.3509C32.3203 43.3509 32.3761 43.3211 32.4468 43.2615C32.5175 43.202 32.5957 43.1499 32.6813 43.1015C32.7669 43.0531 32.819 43.0122 32.8339 42.975C32.9046 42.8075 33.0236 42.6922 33.1985 42.6326C33.3735 42.5694 33.4814 42.5173 33.5223 42.4763L33.6265 42.3945L33.7084 42.2382C33.8944 42.1563 34.021 42.0781 34.0842 42.0074C34.1475 41.9367 34.2294 41.8921 34.3336 41.8735C34.4378 41.8511 34.5569 41.7916 34.6871 41.6874L34.8434 41.6465L34.9885 41.5646C34.9885 41.5646 35.0444 41.5348 35.1151 41.5125C35.1858 41.4902 35.2863 41.4567 35.4239 41.4046C35.5579 41.3525 35.6509 41.3264 35.6993 41.3264C36.0529 41.3264 36.332 41.4678 36.5366 41.7544C36.7413 42.0409 36.8455 42.2679 36.8455 42.4428L36.8232 42.6289L36.8641 42.9117V42.9527L36.7822 43.5258L36.8046 43.723C36.8046 44.0505 36.7339 44.2738 36.5962 44.4003C36.5627 44.4152 36.5441 44.4487 36.5441 44.5045V44.5975L36.7525 45.0366C36.8157 45.1892 36.8641 45.2674 36.8976 45.2674L37.2325 45.1743C37.3293 45.1483 37.4112 45.0739 37.4744 44.9548C37.5302 44.9287 37.627 44.8431 37.7684 44.7054C37.8093 44.5938 37.8763 44.538 37.9657 44.538L37.9545 44.5231Z" fill="white"/>
<path d="M49.0368 44.5231H49.0777L49.1819 44.564C49.1819 44.564 49.208 44.5566 49.2229 44.5417C49.2229 44.4226 49.2787 44.3221 49.3903 44.2403C49.4238 44.11 49.502 44.0095 49.6248 43.9388C49.7476 43.8681 49.9411 43.7565 50.2053 43.5965L50.4658 43.3657L50.5923 43.3025L50.6742 43.1983C50.7524 43.109 50.8231 43.0643 50.8938 43.0643C50.998 43.0643 51.0501 43.1015 51.0501 43.1797L50.957 43.3881L50.998 43.7304C50.998 43.857 50.9533 43.9649 50.8677 44.0654C50.7821 44.1658 50.6482 44.3035 50.4658 44.4933L49.9336 45.0553L49.6508 45.2004C49.5801 45.2413 49.5169 45.2897 49.4648 45.3455L49.0591 45.6879C49.0591 45.7846 49.0294 45.8591 48.9661 45.9075H48.7986L48.7168 45.9484C48.6684 46.0786 48.527 46.2089 48.2888 46.3354L48.1437 46.4396C48.0953 46.4805 48.0506 46.5029 48.006 46.5029L47.712 46.4619L47.5147 46.5029C47.4589 46.5029 47.3845 46.4731 47.2915 46.421C47.1984 46.3689 47.1017 46.3205 47.0049 46.2908C46.9082 46.261 46.7854 46.1307 46.6328 45.9037C46.4839 45.6767 46.402 45.5316 46.3872 45.4609C46.3872 45.4311 46.3723 45.3865 46.3388 45.3195C46.309 45.2525 46.2904 45.2153 46.2904 45.2004C46.2904 45.1855 46.3202 45.1185 46.3834 44.992V44.9697C46.3834 44.9473 46.3648 44.899 46.3276 44.8245C46.2904 44.7464 46.2718 44.6533 46.2718 44.5417C46.2718 44.4784 46.2495 44.4003 46.2085 44.3035C46.2644 44.2477 46.2904 44.2068 46.2904 44.177C46.2904 44.1472 46.2792 44.11 46.2606 44.0579C46.2383 44.0058 46.2309 43.9649 46.2309 43.9388L46.2941 43.429L46.2532 43.1685L46.2755 42.9192C46.2755 42.774 46.2123 42.6996 46.0894 42.6996C46.0336 42.6996 45.9666 42.7368 45.8811 42.815L45.8066 42.8373C45.6206 42.9266 45.4866 43.001 45.4122 43.0606C45.334 43.1201 45.2559 43.1499 45.174 43.1499C45.1331 43.1908 45.0512 43.228 44.9358 43.2653L44.8539 43.3285C44.8279 43.3583 44.7721 43.3992 44.6865 43.4551C44.6865 43.4774 44.5562 43.5927 44.2957 43.8049C44.0352 44.017 43.8008 44.2179 43.5961 44.404C43.3877 44.5901 43.2389 44.6943 43.1458 44.7129C43.0528 44.7315 43.0044 44.8208 43.0044 44.9771C43.0044 45.0032 42.9412 45.059 42.8183 45.1446C42.8035 45.1446 42.7328 45.2227 42.5988 45.3753C42.4871 45.2934 42.4239 45.2488 42.4127 45.2488C42.3234 45.2488 42.2564 45.3641 42.2155 45.5911C42.1745 45.6804 42.0629 45.7363 41.8806 45.7586C41.8657 45.766 41.8433 45.8181 41.8061 45.9149L41.7652 45.9558H41.661C41.661 45.9558 41.5977 45.9968 41.5159 46.0749C41.4303 46.1531 41.3596 46.2052 41.2963 46.2275C41.207 46.4136 41.1288 46.5103 41.0656 46.5103C41.0358 46.5103 40.9986 46.4954 40.9465 46.4694C40.8944 46.4433 40.8311 46.4173 40.753 46.395C40.6748 46.3726 40.593 46.2908 40.4962 46.1382C40.4032 45.9893 40.3548 45.8628 40.3548 45.7586C40.3548 44.9883 40.5036 44.5677 40.8051 44.497L40.8274 44.4561V44.3742C40.8274 44.2849 40.8683 44.2179 40.9465 44.1807C41.0246 44.1435 41.1065 44.0654 41.1921 43.95C41.274 43.8346 41.3298 43.7714 41.3596 43.7565H41.4935C41.5233 43.7565 41.5345 43.6821 41.5345 43.5369C41.5345 43.496 41.5531 43.4588 41.5866 43.4216C41.6201 43.3843 41.6424 43.336 41.6498 43.269C41.6573 43.202 41.7057 43.0941 41.8024 42.9452C41.8954 42.7964 41.9438 42.7071 41.9438 42.681L41.9215 42.6401C41.7466 42.8001 41.6238 42.8857 41.5456 42.9006C41.4675 42.9155 41.3633 43.0159 41.233 43.202L41.0656 43.1722C40.7716 43.3881 40.593 43.5109 40.5222 43.5369C40.4515 43.5667 40.3771 43.6448 40.2915 43.7751C40.2915 43.816 40.2655 43.8458 40.2171 43.857C40.1687 43.8719 40.0757 43.9277 39.9454 44.0244H39.8822C39.7073 44.0244 39.6217 43.8979 39.6217 43.6486L39.8412 43.0531C39.9045 42.8671 40.0496 42.7071 40.2841 42.5805C40.5185 42.454 40.712 42.3275 40.8721 42.2121C41.0321 42.093 41.1921 42.0298 41.3521 42.026L41.4265 41.9218C41.661 41.8325 41.821 41.6874 41.9066 41.4939C41.9885 41.3004 42.1038 41.2036 42.249 41.2036C42.6323 41.2036 42.9225 41.345 43.1235 41.6241C43.3245 41.907 43.4249 42.1302 43.4249 42.2977L43.4473 42.5805C43.4473 42.6773 43.4249 42.8113 43.384 42.9862C43.3021 43.1127 43.2575 43.2057 43.2575 43.269C43.2575 43.3248 43.291 43.3509 43.3617 43.3509C43.4026 43.3509 43.4584 43.3211 43.5291 43.2615C43.5998 43.202 43.678 43.1499 43.7636 43.1015C43.8492 43.0531 43.9013 43.0122 43.9162 42.975C43.9869 42.8075 44.1059 42.6922 44.2809 42.6326C44.4558 42.5694 44.5637 42.5173 44.6046 42.4763L44.7088 42.3945L44.7907 42.2382C44.9768 42.1563 45.1033 42.0781 45.1665 42.0074C45.2298 41.9367 45.3117 41.8921 45.4159 41.8735C45.5201 41.8511 45.6392 41.7916 45.7694 41.6874L45.9257 41.6465L46.0708 41.5646C46.0708 41.5646 46.1267 41.5348 46.1974 41.5125C46.2681 41.4902 46.3686 41.4567 46.5062 41.4046C46.6402 41.3525 46.7332 41.3264 46.7816 41.3264C47.1352 41.3264 47.4143 41.4678 47.6189 41.7544C47.8236 42.0409 47.9278 42.2679 47.9278 42.4428L47.9055 42.6289L47.9464 42.9117V42.9527L47.8646 43.5258L47.8869 43.723C47.8869 44.0505 47.8162 44.2738 47.6785 44.4003C47.645 44.4152 47.6264 44.4487 47.6264 44.5045V44.5975L47.8348 45.0366C47.898 45.1892 47.9464 45.2674 47.9799 45.2674L48.3148 45.1743C48.4116 45.1483 48.4935 45.0739 48.5567 44.9548C48.6126 44.9287 48.7093 44.8431 48.8507 44.7054C48.8917 44.5938 48.9586 44.538 49.048 44.538L49.0368 44.5231Z" fill="white"/>
<path d="M64.8639 38.5539L64.581 39.1567C64.462 39.4358 64.3578 39.6331 64.2647 39.7559C64.1717 39.8787 64.0824 40.0275 64.0005 40.2099L63.7102 40.8462L63.4497 41.1067C63.4088 41.1886 63.3865 41.2444 63.3865 41.2742C63.3865 41.4007 63.3418 41.5645 63.2525 41.7691C63.1632 41.9738 63.0925 42.1673 63.0441 42.3459V42.4725C63.0441 42.5209 62.9883 42.6288 62.8767 42.7962V42.9228C62.8767 42.9525 62.8171 43.0791 62.698 43.3098L62.7203 43.4363C62.7203 43.4363 62.7129 43.4698 62.698 43.4996L62.5008 44.1136C62.4375 44.3071 62.404 44.4485 62.4003 44.5304C62.4003 44.6123 62.3929 44.6904 62.3854 44.7611V44.9472L62.3445 45.1854L62.3668 45.3119V45.3752C62.3668 45.4645 62.3594 45.5389 62.3445 45.5947C62.3854 45.7064 62.4412 45.7808 62.512 45.8255C62.538 45.8255 62.5603 45.8329 62.5752 45.8515C62.5901 45.8701 62.6013 45.8776 62.6162 45.8776L62.9064 45.6915C63.1074 45.5724 63.2525 45.4496 63.3455 45.3156L63.647 45.044L63.7102 44.9509L63.8368 44.9286C63.8926 44.8728 63.9558 44.7983 64.0303 44.6979C64.1047 44.6011 64.1531 44.5527 64.1829 44.5527C64.1977 44.5527 64.2089 44.5602 64.2238 44.5751H64.3689C64.4099 44.5751 64.4471 44.5825 64.4731 44.5974L64.4954 44.5565V44.3778C64.4954 44.1471 64.5699 44.0355 64.715 44.0355C64.7932 43.9164 64.8862 43.8047 64.9978 43.7005L65.0388 43.5442C65.0537 43.4884 65.1281 43.3991 65.2621 43.2726C65.396 43.1461 65.5151 42.9898 65.6119 42.8037L65.9766 42.3757C65.9915 42.3497 66.0101 42.2976 66.0398 42.2194L66.1217 42.1376L66.3003 42.1599C66.3264 42.145 66.3413 42.1189 66.3413 42.078C66.3413 42.0631 66.3338 42.0445 66.3189 42.0147C66.3041 41.9887 66.2966 41.944 66.2966 41.8882C66.2966 41.825 66.3971 41.6612 66.6055 41.3933C66.8139 41.1253 66.9404 40.9281 66.9962 40.7979C67.052 40.6676 67.1079 40.6043 67.1637 40.6043C67.1897 40.6043 67.2158 40.6304 67.2307 40.6788C67.2493 40.7271 67.2791 40.7532 67.32 40.7532C67.3349 40.7532 67.3423 40.7458 67.3423 40.7309C67.3423 40.716 67.3312 40.7011 67.3125 40.6899C67.2902 40.675 67.2828 40.6564 67.2828 40.6267C67.2828 40.4815 67.3312 40.3327 67.4279 40.1838C67.5247 40.035 67.5879 39.9196 67.6214 39.834C67.6512 39.7521 67.681 39.6889 67.7107 39.6517C67.7405 39.6145 67.7703 39.5549 67.8038 39.4805C67.8373 39.4023 67.8819 39.3465 67.9303 39.3019C67.9787 39.2609 68.0196 39.2125 68.0494 39.1604C68.0792 39.1083 68.1201 39.0674 68.1685 39.0414C68.2169 39.0116 68.2615 38.9111 68.3024 38.7399C68.3434 38.565 68.4922 38.3678 68.7527 38.1445C68.7118 38.1036 68.6895 38.0626 68.6895 38.018C68.6895 37.9919 68.7118 37.9398 68.7527 37.8728C68.7527 37.8245 68.8755 37.5677 69.1249 37.1025C69.3705 36.6373 69.5752 36.2801 69.7352 36.0307L69.7761 35.8856L69.9101 35.7591L70.0962 35.4763L70.6692 35.0892C70.8218 34.9925 70.9297 34.9441 70.993 34.9441C71.0637 34.9441 71.1195 34.9515 71.1605 34.9664C71.2088 34.9255 71.2461 34.9032 71.2758 34.9032C71.2907 34.9032 71.3168 34.9106 71.3577 34.9255H71.3986C71.4693 34.8846 71.5177 34.8622 71.5438 34.8622C71.5698 34.8622 71.6108 34.8771 71.6591 34.9032H71.7224C71.7931 34.9032 71.901 34.9553 72.0499 35.0632C72.1987 35.1711 72.2732 35.253 72.2732 35.3088L72.2508 35.4353L72.2732 35.5619C72.2732 35.7777 72.1913 35.9898 72.0276 36.2019C71.8638 36.4141 71.767 36.5443 71.741 36.5927L71.607 36.6559C71.5996 36.6783 71.5921 36.7304 71.581 36.816C71.5698 36.9016 71.5401 36.9723 71.4917 37.0244C71.4433 37.0765 71.3875 37.1769 71.3242 37.3221C71.2609 37.4672 71.2051 37.5714 71.1567 37.6347V37.7798L70.6655 38.9595C70.6358 39.0414 70.606 39.1158 70.565 39.1828C70.5241 39.2498 70.4683 39.2832 70.3939 39.2832C70.4162 39.3167 70.4422 39.3465 70.472 39.3726C70.5018 39.3986 70.5204 39.4284 70.5204 39.473C70.5204 39.6591 70.4199 39.7819 70.219 39.8377C70.2599 39.8936 70.2822 39.9419 70.2822 39.9829L70.3343 40.0982L70.1371 40.4518V40.6304C70.0887 40.6937 70.0403 40.7904 69.992 40.9207V41.0993C69.992 41.1328 69.951 41.2258 69.8654 41.3709L69.7724 41.5496C69.7426 41.6128 69.724 41.6687 69.7091 41.717H69.6868L69.7091 41.9366C69.7091 41.9366 69.6533 41.985 69.5826 42.0408V42.2492C69.5119 42.3125 69.4784 42.4055 69.4784 42.532C69.4784 42.5878 69.4412 42.6734 69.363 42.7925C69.3779 42.8483 69.3854 42.8818 69.3854 42.8967C69.3854 43.0642 69.3556 43.213 69.3035 43.3507C69.2477 43.4847 69.2216 43.574 69.2216 43.6149V43.7712C69.2626 43.8122 69.2849 43.8531 69.2849 43.8978C69.2849 43.9127 69.2737 43.9536 69.2551 44.0169C69.2328 44.0838 69.2253 44.1434 69.2253 44.1992C69.2253 44.4076 69.2663 44.5118 69.3519 44.5118L69.5938 44.4374C69.6756 44.4113 69.7352 44.3629 69.7724 44.296C69.8096 44.229 69.8654 44.1806 69.9436 44.1434C70.0217 44.1099 70.0664 44.0541 70.0738 43.9834C70.0813 43.9127 70.1482 43.8568 70.2785 43.8271C70.405 43.7973 70.6841 43.5666 71.1084 43.1461L71.4321 42.96L71.514 42.8148C71.5698 42.759 71.6629 42.6511 71.7894 42.4911C71.9159 42.3311 72.0201 42.2529 72.0983 42.2529C72.3067 42.2529 72.4109 42.3683 72.4109 42.5953C72.4109 42.6288 72.3774 42.7665 72.3104 43.0009C72.2434 43.2354 72.1987 43.3693 72.169 43.3954C72.1392 43.4214 72.0983 43.4549 72.0424 43.4959C71.9866 43.5331 71.9308 43.6112 71.875 43.7303C71.5549 44.0429 71.3205 44.2215 71.1679 44.2625C71.127 44.2922 71.0488 44.3555 70.9372 44.456C70.8255 44.5565 70.7325 44.6272 70.6618 44.6681C70.5874 44.709 70.5129 44.7649 70.4385 44.8356C70.3604 44.9063 70.2711 44.9584 70.1669 44.9919L70.085 45.0328C70.0552 45.0179 70.0366 45.0105 70.0217 45.0105C69.9808 45.0105 69.9324 45.0402 69.8803 45.1035C69.8282 45.1668 69.7501 45.2151 69.6459 45.2486C69.5417 45.2821 69.4598 45.3268 69.4003 45.3789C69.3407 45.431 69.2961 45.457 69.27 45.457L69.1025 45.3826C69.0207 45.4608 68.9648 45.498 68.9462 45.498L68.8197 45.4347C68.8048 45.4124 68.7676 45.3938 68.7044 45.3714C68.6411 45.3491 68.5853 45.3193 68.5332 45.2784C68.4811 45.2375 68.4104 45.1891 68.3211 45.1333C68.2317 45.0775 68.1461 44.9509 68.0717 44.7463L67.9898 44.6421C67.9191 44.523 67.8856 44.4523 67.8856 44.4225C67.8856 44.3816 67.8931 44.296 67.908 44.1732V44.1099C67.908 44.0466 67.8931 43.9499 67.867 43.8122C67.8373 43.6782 67.8261 43.574 67.8261 43.5033L68.0754 42.1189L68.0345 41.8696C68.0345 41.7654 68.0792 41.624 68.1647 41.4491C68.2503 41.2705 68.3359 40.876 68.4215 40.2657C68.3099 40.6081 68.228 40.7755 68.1722 40.7755L68.0159 40.7532C67.9861 40.7681 67.975 40.7941 67.975 40.8351C67.975 40.8648 67.9898 40.9207 68.0159 41.0137V41.1588C68.0159 41.2928 67.8856 41.397 67.6289 41.4826C67.6289 41.4975 67.6214 41.5161 67.6065 41.5459C67.6847 41.5793 67.7219 41.6166 67.7219 41.6501C67.7219 41.8101 67.6586 41.9366 67.5284 42.0259C67.3981 42.1152 67.3163 42.1934 67.2716 42.2604C67.2307 42.3273 67.1935 42.3608 67.1563 42.3608L67.093 42.2678H67.0707L66.9665 42.465C67.0074 42.5209 67.0297 42.5543 67.0297 42.5692C67.0297 42.599 66.959 42.7181 66.8176 42.9339C66.6762 43.1498 66.5906 43.2577 66.5608 43.2577L66.2594 43.548L66.2185 43.641V43.7452C66.2185 43.7452 66.2036 43.7861 66.1775 43.8271L65.7719 44.4002L65.6454 44.6383L65.2174 45.2747C65.1467 45.297 65.0723 45.3491 64.9867 45.431L64.9123 45.4719C64.9123 45.5836 64.8229 45.6878 64.6406 45.7845C64.5773 45.9706 64.4917 46.1008 64.3801 46.1715C64.2684 46.2422 64.1866 46.3055 64.1308 46.3688L63.9335 46.4953L63.6842 46.7037L63.4014 46.7967L63.2748 46.7037C63.219 46.8637 63.1706 46.9419 63.1297 46.9419L62.8915 46.9009L62.6943 46.9419C62.5268 46.9419 62.311 46.8302 62.0431 46.6069C61.7751 46.3837 61.6188 46.2385 61.5704 46.1678L61.4439 46.0004C61.4104 45.9743 61.3807 45.9296 61.362 45.8701C61.3434 45.8106 61.2765 45.7399 61.1648 45.658L61.0606 45.4905V45.3566C60.8931 45.1147 60.8001 44.9546 60.7852 44.8839C60.7666 44.8095 60.7592 44.6495 60.7592 44.4002V44.3183L60.8001 44.1732L60.7778 43.935C60.7778 43.8233 60.8113 43.667 60.8783 43.4661C60.9453 43.2651 60.9787 43.1498 60.9787 43.1237V43.0605L60.949 42.9972L61.0829 42.5581C61.1239 42.4055 61.1611 42.3125 61.1871 42.2752C61.2169 42.2418 61.2355 42.1189 61.2504 41.9143C61.2653 41.7096 61.3658 41.6054 61.5518 41.6054C61.5667 41.6054 61.5853 41.6128 61.6151 41.6277C61.6709 41.6128 61.697 41.5719 61.697 41.5012H61.656C61.6002 41.5012 61.5742 41.464 61.5742 41.3858C61.5742 41.2891 61.5965 41.2109 61.6374 41.1551C61.6784 41.0993 61.7007 41.0211 61.7007 40.9169C61.7007 40.7904 61.7565 40.6639 61.8719 40.5374C61.9872 40.4071 62.0431 40.3364 62.0431 40.3252C62.0431 40.221 62.0952 40.0685 62.2031 39.8712C62.311 39.674 62.3966 39.4954 62.4636 39.3353C62.5306 39.1753 62.6087 39.0339 62.698 38.9074C62.7873 38.7809 62.8543 38.6618 62.8953 38.5427C62.9362 38.4236 63.0218 38.3082 63.1446 38.1892L63.26 37.9808C63.3418 37.8505 63.42 37.7426 63.4907 37.657C63.5614 37.5751 63.6023 37.4709 63.6209 37.3481C63.6395 37.2253 63.6991 37.1434 63.8033 37.0913C63.9075 37.0392 63.967 36.9834 63.9819 36.909C63.9968 36.8346 64.0228 36.7639 64.0601 36.6969C64.0973 36.6262 64.1233 36.5592 64.1382 36.4922C64.1531 36.4252 64.194 36.3508 64.2647 36.2689C64.3354 36.1871 64.3987 36.0605 64.4582 35.8893C64.5178 35.7182 64.6034 35.6326 64.715 35.6326L64.9234 35.6549L64.9457 35.5805C64.9457 35.5805 64.9271 35.5395 64.8936 35.4986C64.8601 35.4577 64.8415 35.4167 64.8415 35.3721C64.8415 35.1711 64.9085 35.0706 65.0388 35.0706C65.0797 35.0706 65.1281 35.1153 65.1839 35.2046C65.2323 34.7953 65.2621 34.5757 65.2732 34.5534C65.2844 34.5273 65.2881 34.505 65.2881 34.4752L65.3104 34.371C65.3253 34.345 65.3328 34.304 65.3328 34.2556C65.3328 34.2073 65.3067 34.144 65.2546 34.0696C65.2025 33.9914 65.1579 33.9542 65.1244 33.9542C65.1169 33.9542 65.0388 33.9728 64.8862 34.0063L64.7597 33.8798C64.689 34.0324 64.622 34.1105 64.5513 34.1105L64.3726 34.0473C64.1308 34.1998 63.9745 34.278 63.9037 34.278L63.7363 34.2147H63.714C63.673 34.2147 63.6284 34.2668 63.5837 34.3673C63.5391 34.4678 63.446 34.5199 63.3083 34.5199H63.2041C63.0999 34.6464 63.0143 34.7171 62.9436 34.732C62.8729 34.7469 62.7985 34.7915 62.7203 34.8622C62.6422 34.9329 62.5715 34.9776 62.5157 34.9962C62.4599 35.0185 62.3668 35.0855 62.2328 35.2046L62.1286 35.2679C62.0021 35.346 61.9351 35.4204 61.9203 35.4911C61.9054 35.5656 61.8682 35.6326 61.8049 35.6958C61.5556 35.8782 61.429 36.027 61.429 36.1424L61.4514 36.3285L61.429 36.6001C61.429 36.6783 61.3658 36.7676 61.2355 36.8755C61.109 36.9834 61.0011 37.0355 60.9192 37.0355C60.4205 37.0355 60.1675 36.8867 60.1675 36.589L60.2084 36.2875L60.1861 36.0494L60.2084 35.841C60.2084 35.6809 60.3052 35.5321 60.495 35.3869C60.6847 35.2418 60.815 35.1376 60.8857 35.0706L61.2913 34.8622C61.3807 34.7915 61.4514 34.7208 61.4997 34.6501C61.5481 34.5757 61.7007 34.4864 61.9575 34.3785C62.2142 34.2705 62.404 34.1663 62.5194 34.0621C62.6348 33.9579 62.8097 33.8649 63.0404 33.7867C63.2711 33.7086 63.446 33.6342 63.5688 33.5746C63.6916 33.5114 63.7661 33.4816 63.7921 33.4816L63.9186 33.5039C63.9893 33.4779 64.0638 33.4332 64.1419 33.3737C64.2201 33.3141 64.3094 33.2844 64.4061 33.2844L65.69 32.9941C65.8203 32.9606 66.0733 33.035 66.4417 33.2248C66.8102 33.4109 66.9925 33.8277 66.9925 34.464C66.9925 34.5943 66.8883 34.8808 66.6762 35.32C66.4641 35.7591 66.2296 36.1461 65.9728 36.4885L65.9096 36.6448L65.6268 37.136L65.4593 37.5007C65.3812 37.6384 65.303 37.8021 65.2211 37.9919L65.0351 38.2413C64.9569 38.3715 64.9085 38.4831 64.8899 38.5762L64.8639 38.5539Z" fill="white"/>
<path d="M80.4602 44.5231H80.5012L80.6054 44.564C80.6054 44.564 80.6314 44.5566 80.6463 44.5417C80.6463 44.4226 80.7021 44.3221 80.8138 44.2403C80.8472 44.11 80.9254 44.0095 81.0482 43.9388C81.171 43.8681 81.3645 43.7565 81.6287 43.5965L81.8892 43.3657L82.0158 43.3025L82.0976 43.1983C82.1758 43.109 82.2465 43.0643 82.3172 43.0643C82.4214 43.0643 82.4735 43.1015 82.4735 43.1797L82.3805 43.3881L82.4214 43.7304C82.4214 43.857 82.3767 43.9649 82.2912 44.0654C82.2056 44.1658 82.0716 44.3035 81.8892 44.4933L81.3571 45.0553L81.0743 45.2004C81.0036 45.2413 80.9403 45.2897 80.8882 45.3455L80.4826 45.6879C80.4826 45.7846 80.4528 45.8591 80.3895 45.9075H80.2221L80.1402 45.9484C80.0918 46.0786 79.9504 46.2089 79.7122 46.3354L79.5671 46.4396C79.5187 46.4805 79.4741 46.5029 79.4294 46.5029L79.1354 46.4619L78.9382 46.5029C78.8824 46.5029 78.8079 46.4731 78.7149 46.421C78.6219 46.3689 78.5251 46.3205 78.4283 46.2908C78.3316 46.261 78.2088 46.1307 78.0562 45.9037C77.9073 45.6767 77.8255 45.5316 77.8106 45.4609C77.8106 45.4311 77.7957 45.3865 77.7622 45.3195C77.7325 45.2525 77.7138 45.2153 77.7138 45.2004C77.7138 45.1855 77.7436 45.1185 77.8069 44.992V44.9697C77.8069 44.9473 77.7883 44.899 77.7511 44.8245C77.7138 44.7464 77.6952 44.6533 77.6952 44.5417C77.6952 44.4784 77.6729 44.4003 77.632 44.3035C77.6878 44.2477 77.7138 44.2068 77.7138 44.177C77.7138 44.1472 77.7027 44.11 77.6841 44.0579C77.6617 44.0058 77.6543 43.9649 77.6543 43.9388L77.7176 43.429L77.6766 43.1685L77.699 42.9192C77.699 42.774 77.6357 42.6996 77.5129 42.6996C77.4571 42.6996 77.3901 42.7368 77.3045 42.815L77.2301 42.8373C77.044 42.9266 76.91 43.001 76.8356 43.0606C76.7574 43.1201 76.6793 43.1499 76.5974 43.1499C76.5565 43.1908 76.4746 43.228 76.3593 43.2653L76.2774 43.3285C76.2513 43.3583 76.1955 43.3992 76.1099 43.4551C76.1099 43.4774 75.9797 43.5927 75.7192 43.8049C75.4587 44.017 75.2242 44.2179 75.0196 44.404C74.8112 44.5901 74.6623 44.6943 74.5693 44.7129C74.4762 44.7315 74.4278 44.8208 74.4278 44.9771C74.4278 45.0032 74.3646 45.059 74.2418 45.1446C74.2269 45.1446 74.1562 45.2227 74.0222 45.3753C73.9106 45.2934 73.8473 45.2488 73.8361 45.2488C73.7468 45.2488 73.6799 45.3641 73.6389 45.5911C73.598 45.6804 73.4863 45.7363 73.304 45.7586C73.2891 45.766 73.2668 45.8181 73.2296 45.9149L73.1886 45.9558H73.0844C73.0844 45.9558 73.0212 45.9968 72.9393 46.0749C72.8537 46.1531 72.783 46.2052 72.7197 46.2275C72.6304 46.4136 72.5523 46.5103 72.489 46.5103C72.4592 46.5103 72.422 46.4954 72.3699 46.4694C72.3178 46.4433 72.2546 46.4173 72.1764 46.395C72.0983 46.3726 72.0164 46.2908 71.9196 46.1382C71.8266 45.9893 71.7782 45.8628 71.7782 45.7586C71.7782 44.9883 71.9271 44.5677 72.2285 44.497L72.2508 44.4561V44.3742C72.2508 44.2849 72.2918 44.2179 72.3699 44.1807C72.4481 44.1435 72.5299 44.0654 72.6155 43.95C72.6974 43.8346 72.7532 43.7714 72.783 43.7565H72.917C72.9467 43.7565 72.9579 43.6821 72.9579 43.5369C72.9579 43.496 72.9765 43.4588 73.01 43.4216C73.0435 43.3843 73.0658 43.336 73.0733 43.269C73.0807 43.202 73.1291 43.0941 73.2258 42.9452C73.3189 42.7964 73.3673 42.7071 73.3673 42.681L73.3449 42.6401C73.17 42.8001 73.0472 42.8857 72.9691 42.9006C72.8909 42.9155 72.7867 43.0159 72.6565 43.202L72.489 43.1722C72.195 43.3881 72.0164 43.5109 71.9457 43.5369C71.875 43.5667 71.8006 43.6448 71.715 43.7751C71.715 43.816 71.6889 43.8458 71.6405 43.857C71.5922 43.8719 71.4991 43.9277 71.3689 44.0244H71.3056C71.1307 44.0244 71.0451 43.8979 71.0451 43.6486L71.2647 43.0531C71.3279 42.8671 71.4731 42.7071 71.7075 42.5805C71.942 42.454 72.1355 42.3275 72.2955 42.2121C72.4555 42.093 72.6155 42.0298 72.7755 42.026L72.85 41.9218C73.0844 41.8325 73.2445 41.6874 73.33 41.4939C73.4119 41.3004 73.5273 41.2036 73.6724 41.2036C74.0557 41.2036 74.346 41.345 74.5469 41.6241C74.7479 41.907 74.8484 42.1302 74.8484 42.2977L74.8707 42.5805C74.8707 42.6773 74.8484 42.8113 74.8074 42.9862C74.7256 43.1127 74.6809 43.2057 74.6809 43.269C74.6809 43.3248 74.7144 43.3509 74.7851 43.3509C74.826 43.3509 74.8819 43.3211 74.9526 43.2615C75.0233 43.202 75.1014 43.1499 75.187 43.1015C75.2726 43.0531 75.3247 43.0122 75.3396 42.975C75.4103 42.8075 75.5294 42.6922 75.7043 42.6326C75.8792 42.5694 75.9871 42.5173 76.0281 42.4763L76.1323 42.3945L76.2141 42.2382C76.4002 42.1563 76.5267 42.0781 76.59 42.0074C76.6532 41.9367 76.7351 41.8921 76.8393 41.8735C76.9435 41.8511 77.0626 41.7916 77.1929 41.6874L77.3491 41.6465L77.4943 41.5646C77.4943 41.5646 77.5501 41.5348 77.6208 41.5125C77.6915 41.4902 77.792 41.4567 77.9297 41.4046C78.0636 41.3525 78.1567 41.3264 78.2051 41.3264C78.5586 41.3264 78.8377 41.4678 79.0424 41.7544C79.2471 42.0409 79.3513 42.2679 79.3513 42.4428L79.3289 42.6289L79.3699 42.9117V42.9527L79.288 43.5258L79.3103 43.723C79.3103 44.0505 79.2396 44.2738 79.1019 44.4003C79.0684 44.4152 79.0498 44.4487 79.0498 44.5045V44.5975L79.2582 45.0366C79.3215 45.1892 79.3699 45.2674 79.4034 45.2674L79.7383 45.1743C79.835 45.1483 79.9169 45.0739 79.9802 44.9548C80.036 44.9287 80.1327 44.8431 80.2742 44.7054C80.3151 44.5938 80.3821 44.538 80.4714 44.538L80.4602 44.5231Z" fill="white"/>
<path d="M82.801 45.565L82.7191 45.0328C82.7191 44.9919 82.7414 44.9249 82.7824 44.8356C82.8233 44.8356 82.8605 44.8207 82.8866 44.7947L82.8233 44.6086C82.8233 44.3667 82.8903 44.1546 83.028 43.9797C83.162 43.801 83.2364 43.682 83.2513 43.6187C83.2662 43.5554 83.3629 43.3545 83.549 43.0084C83.7351 42.666 83.869 42.4427 83.9621 42.346L84.0253 42.212L84.1072 42.1897C84.2672 41.9329 84.4942 41.6985 84.7845 41.4901C84.8813 41.3375 85.0003 41.211 85.138 41.1142C85.2757 41.0174 85.3725 40.9467 85.4208 40.9058C85.4692 40.8649 85.5437 40.8351 85.6404 40.8239L85.6814 40.8016C85.8823 40.6006 86.0572 40.5002 86.2023 40.5002C86.2507 40.4518 86.3475 40.396 86.4926 40.3327H86.608C86.6489 40.3327 86.6898 40.3178 86.7345 40.2918C86.7754 40.2657 86.8164 40.2508 86.861 40.2508C86.8908 40.2508 86.9615 40.2806 87.0806 40.3327C87.1922 40.2211 87.2815 40.1652 87.3523 40.1652C87.4974 40.1652 87.6462 40.2211 87.7951 40.3327C87.944 40.4443 88.0407 40.5783 88.0816 40.7383C88.1226 40.8984 88.1598 40.9914 88.1858 41.0212C88.2119 41.0509 88.2417 41.0844 88.2677 41.1254C88.3235 41.1254 88.398 40.9988 88.4873 40.7383L88.6138 40.5709C88.8036 40.329 88.9338 40.0424 89.0008 39.715C89.0157 39.7001 89.0343 39.6442 89.0641 39.5438C89.0939 39.4433 89.1646 39.2721 89.2837 39.0265C89.4846 38.7362 89.6297 38.4348 89.7153 38.1296L89.8419 37.9436C89.9275 37.8878 89.9721 37.8282 89.9796 37.7612C89.987 37.6942 90.0093 37.6347 90.0428 37.5789C90.0763 37.5231 90.1172 37.4561 90.1619 37.3742C90.2066 37.296 90.2438 37.2402 90.2698 37.2142C90.2959 37.1881 90.3405 37.0914 90.3963 36.9276C90.4522 36.7639 90.5192 36.6709 90.601 36.6523C90.6792 36.6299 90.7611 36.5927 90.8466 36.5369L90.869 36.4625L90.828 36.3173C90.828 36.2355 90.9211 36.0866 91.1034 35.8782C91.2858 35.6698 91.4197 35.4986 91.4979 35.3609C91.576 35.227 91.7137 35.0186 91.9035 34.7357C92.0933 34.4529 92.231 34.2817 92.3166 34.2185L92.5548 33.9691C92.6664 33.8091 92.8227 33.731 93.0236 33.731C93.1762 33.731 93.3362 33.8128 93.5037 33.9766C93.6712 34.1403 93.7531 34.3003 93.7531 34.4604C93.7531 34.5162 93.7158 34.6464 93.6377 34.8474L93.6153 34.9739C93.6153 35.0855 93.5781 35.2158 93.5 35.3684C93.4218 35.5209 93.3772 35.64 93.366 35.7219L92.7818 37.1509C92.7111 37.1807 92.6701 37.1993 92.6552 37.2142C92.4729 37.6086 92.3315 37.8245 92.2273 37.8617V38.0701C92.2273 38.1483 92.1789 38.2041 92.0821 38.2376L92.0412 38.2599C91.9779 38.5241 91.8998 38.7139 91.803 38.833C91.7063 38.9521 91.6356 39.0712 91.5909 39.194C91.5463 39.3168 91.4756 39.3837 91.3788 39.3986C91.282 39.4135 91.2337 39.5475 91.2337 39.8043C91.2076 39.942 91.1369 40.0127 91.0253 40.0127C90.9211 40.0127 90.8541 40.102 90.828 40.2843C90.7983 40.4667 90.6643 40.5634 90.4224 40.5746C90.3517 40.6155 90.3108 40.6639 90.2959 40.7197L90.3777 40.9802C90.3777 41.0212 90.2475 41.1849 89.9907 41.4715L89.9088 41.7431C89.7786 41.7915 89.6707 42.1487 89.5851 42.8149L89.4586 43.5331L89.4809 43.8159L89.44 43.9611L89.5665 44.389L89.5442 44.6272C89.5442 44.7388 89.5851 44.7947 89.6707 44.7947C89.7116 44.7947 89.8046 44.7314 89.9535 44.6086L90.0986 44.5453C90.534 44.322 90.8057 44.1062 90.9099 43.8978C90.936 43.8718 90.9881 43.842 91.0625 43.8159C91.1369 43.7899 91.189 43.7489 91.2225 43.7006C91.256 43.6522 91.2858 43.6187 91.3044 43.5964C91.7286 43.3173 92.0003 43.0754 92.1268 42.867C92.2496 42.6586 92.3799 42.532 92.5101 42.4911L92.592 42.4092C92.6738 42.3385 92.7446 42.305 92.8004 42.305C92.9195 42.305 92.9753 42.3385 92.9753 42.4092L92.8934 42.6995C92.9641 42.8856 92.9976 42.9935 92.9976 43.0233C92.9976 43.2652 92.8897 43.414 92.6738 43.4698C92.5845 43.5592 92.5138 43.6633 92.4617 43.7824C92.4096 43.9015 92.298 43.9722 92.1231 44.002C92.004 44.1695 91.8961 44.2774 91.7993 44.3295C91.7026 44.3816 91.6542 44.4374 91.6542 44.4895V44.5825C91.5984 44.6644 91.55 44.7202 91.5091 44.75L91.3118 44.7091C91.282 44.7909 91.2225 44.9063 91.1257 45.0514C91.0923 45.0254 91.0588 45.0105 91.0327 45.0105C90.936 45.0105 90.8541 45.07 90.7945 45.1891C90.735 45.3082 90.6866 45.3678 90.6606 45.3678H90.4224C90.3889 45.3901 90.3331 45.4347 90.2549 45.5017C90.1768 45.5724 90.0503 45.6059 89.8679 45.6059L89.5442 45.6692C89.239 45.6692 88.9562 45.5687 88.6994 45.3715C88.4426 45.1742 88.3049 44.9919 88.2863 44.8281C88.2677 44.6644 88.2119 44.4672 88.1151 44.2402L88.0928 43.8122C88.0147 43.3694 87.9291 43.1461 87.8323 43.1461L87.81 43.28L87.7281 43.321C87.6872 43.5368 87.6165 43.6447 87.5197 43.6447C87.4788 43.6671 87.4341 43.7006 87.3857 43.7489L87.3225 43.7899C87.2927 43.8048 87.2555 43.8643 87.2034 43.9685C87.1513 44.0727 87.0062 44.2178 86.7717 44.4076C86.675 44.6644 86.6005 44.7947 86.5522 44.7947L86.4256 44.7128H86.4033C86.3475 44.7128 86.3028 44.7947 86.2693 44.9584C86.2358 45.1221 86.1651 45.204 86.0609 45.204C86.0312 45.204 86.0051 45.2524 85.9828 45.3454C85.9605 45.4385 85.8972 45.498 85.8004 45.524C85.7037 45.5501 85.6144 45.6431 85.5399 45.8106C85.4618 45.9781 85.4097 46.0599 85.3836 46.0599C85.3687 46.0599 85.3501 46.0525 85.3204 46.0376L85.1417 46.0785C85.1083 46.1269 85.0599 46.2088 84.9966 46.3167C84.9334 46.339 84.8775 46.3651 84.8291 46.3986C84.6133 46.607 84.3268 46.7112 83.9732 46.7112C83.7239 46.7112 83.5229 46.6591 83.3778 46.5511C83.2327 46.4432 83.1434 46.3502 83.1173 46.2758C83.0875 46.1976 83.0392 46.1046 82.961 45.9892C82.8829 45.8739 82.8345 45.7324 82.8159 45.5687L82.801 45.565ZM86.9615 43.2019L87.0359 43.0679C87.155 43.027 87.2294 42.9228 87.2667 42.7553C87.3225 42.7144 87.4639 42.532 87.6946 42.212C87.9254 41.892 88.037 41.7171 88.037 41.6798C87.9663 41.6091 87.8881 41.5757 87.7951 41.5757C87.7802 41.5757 87.7393 41.5905 87.6686 41.6166C87.5979 41.6464 87.5272 41.665 87.4565 41.6798C87.382 41.6947 87.3039 41.7208 87.222 41.7617L86.9615 41.7208C86.8834 41.7208 86.7159 41.8213 86.4517 42.0222L86.2135 41.9813C86.1726 41.9813 86.1019 42.0706 86.0051 42.2529L85.473 42.6809H85.4097C85.3129 42.6809 85.2459 42.7665 85.2125 42.9414C85.0934 43.094 84.9817 43.2019 84.8775 43.2577C84.7733 43.3173 84.6989 43.4029 84.658 43.5145V43.6485C84.4645 43.8643 84.364 44.028 84.364 44.1397C84.2188 44.2774 84.1221 44.43 84.0774 44.59C84.0328 44.75 83.9769 44.884 83.9174 44.9956C83.9472 45.0924 83.9658 45.2115 83.9807 45.3566C83.9956 45.498 84.0625 45.5687 84.1891 45.5687C84.39 45.5687 84.6133 45.4459 84.8552 45.204C84.8701 45.1891 84.9296 45.1519 85.0338 45.0886C85.138 45.0254 85.2832 44.9026 85.4655 44.7202C85.6479 44.5379 85.7521 44.4411 85.7744 44.4337C85.8451 44.363 85.886 44.3295 85.9009 44.3295L85.9828 44.2476C85.9828 44.2216 86.0126 44.1881 86.0721 44.1546C86.1316 44.1211 86.2098 44.0504 86.3065 43.9425C86.4033 43.8345 86.4777 43.7713 86.5298 43.7489C86.5819 43.7266 86.6191 43.6968 86.6377 43.6596C86.6601 43.6224 86.6936 43.5852 86.742 43.5517C86.7903 43.5182 86.8164 43.4773 86.8164 43.4363L86.8387 43.3098L86.9652 43.2056L86.9615 43.2019ZM90.5787 38.9707L90.4745 39.2721C90.5638 39.2572 90.6457 39.1642 90.7127 38.9893C90.9211 38.6916 91.0625 38.5055 91.1406 38.4385C91.2299 38.4385 91.2969 38.3827 91.3453 38.2673C91.39 38.152 91.4718 38.0403 91.5909 37.9287C91.5909 37.8803 91.643 37.7873 91.7472 37.6459C91.8514 37.5082 91.9184 37.4077 91.9519 37.3482C91.9817 37.2886 92.0487 37.2105 92.1454 37.1137C92.2422 37.0169 92.3352 36.8495 92.4208 36.615C92.5064 36.3806 92.5808 36.2355 92.6441 36.1871C92.7073 36.1387 92.7371 36.0419 92.7371 35.8968C92.7371 35.6959 92.7222 35.5954 92.6962 35.5954C92.6329 35.5954 92.5883 35.6363 92.5548 35.7145C92.525 35.7926 92.4543 35.8968 92.3501 36.0233L91.9966 36.6188C91.8589 36.8532 91.7658 37.043 91.7212 37.1807C91.6765 37.3184 91.6244 37.4002 91.5649 37.4263C91.5053 37.4523 91.4346 37.5193 91.3527 37.631L91.2076 37.7761C91.1741 37.858 91.1444 37.9622 91.1257 38.0775L91.0327 38.1594V38.3566C91.0327 38.446 90.9806 38.5278 90.8764 38.6023C90.7722 38.6767 90.7201 38.7213 90.7201 38.7437L90.5861 38.9744L90.5787 38.9707Z" fill="white"/>
<path d="M99.2979 39.8639L98.922 39.782C98.7211 39.7485 98.6206 39.5401 98.6206 39.1568C98.6206 38.8591 98.8588 38.6023 99.3351 38.3902C99.8115 38.1781 100.098 38.0404 100.198 37.9771C100.299 37.9139 100.425 37.8841 100.578 37.8841C100.697 37.7799 100.876 37.6757 101.114 37.5715C101.352 37.4673 101.527 37.378 101.635 37.3073C101.743 37.2366 101.843 37.1845 101.936 37.1547C102.029 37.1287 102.111 37.0728 102.182 36.9872C102.271 36.9612 102.349 36.9314 102.413 36.8979C102.476 36.8682 102.61 36.8198 102.815 36.7565C103.019 36.6933 103.142 36.6412 103.183 36.6002L103.421 36.4439C103.622 36.4365 103.745 36.4067 103.79 36.3509C103.834 36.2951 103.968 36.2355 104.192 36.1723L104.504 36.0904C104.545 36.0904 104.597 36.1239 104.66 36.1946C104.686 36.0346 104.75 35.9564 104.846 35.9564L105.17 35.9787C105.293 35.8969 105.371 35.8522 105.401 35.8522L105.464 35.8113C105.594 35.8262 105.695 35.8373 105.755 35.8522C105.818 35.8671 105.877 35.9155 105.933 35.9973C105.996 35.9006 106.056 35.8522 106.112 35.8522C106.223 35.8522 106.35 35.9006 106.499 35.9973L106.666 35.975C106.841 35.975 106.934 36.0271 106.949 36.135C106.964 36.243 106.994 36.3285 107.042 36.3918C107.09 36.4551 107.135 36.5444 107.176 36.6635L107.258 36.79C107.321 36.8309 107.351 36.8793 107.351 36.9351C107.351 37.0803 107.265 37.2887 107.09 37.5603L106.808 38.1111C106.726 38.2413 106.633 38.3567 106.536 38.4535L106.454 38.6209C106.35 38.74 106.268 38.8219 106.205 38.8703C106.142 38.9186 106.104 39.0638 106.089 39.3094C106.06 39.3913 106.022 39.4545 105.97 39.4917C105.918 39.5289 105.877 39.5773 105.851 39.6331C105.714 39.6666 105.617 39.7448 105.561 39.8639L105.04 40.7793C105.018 40.8277 104.943 40.8835 104.817 40.9468C104.686 41.0101 104.556 41.2371 104.426 41.6353C104.504 41.5571 104.582 41.4901 104.664 41.4269L104.85 41.1664L105.769 40.2918C105.952 40.1169 106.071 40.0053 106.127 39.9532C106.182 39.9011 106.235 39.8713 106.283 39.8639C106.305 39.8081 106.369 39.7411 106.48 39.6666C106.592 39.5885 106.696 39.4917 106.793 39.3764L106.927 39.2498L106.99 39.1345C107.046 39.008 107.124 38.9484 107.221 38.9484L107.303 38.8665C107.336 38.7363 107.425 38.6693 107.563 38.6693C107.589 38.6433 107.608 38.5837 107.615 38.4907C107.623 38.4014 107.686 38.3567 107.805 38.3567H107.887L107.909 38.3344C107.924 38.2711 107.946 38.2302 107.984 38.2079C108.017 38.1855 108.051 38.1409 108.077 38.0739C108.077 38.1074 108.088 38.1111 108.114 38.085C108.14 38.059 108.181 37.9883 108.244 37.8767C108.307 37.765 108.378 37.6943 108.453 37.6683C108.531 37.6385 108.579 37.5901 108.598 37.5231C108.616 37.4561 108.672 37.3966 108.761 37.3519C108.847 37.3073 108.925 37.2589 108.985 37.2105C109.048 37.1621 109.104 37.1361 109.152 37.1361C109.178 37.1361 109.223 37.1659 109.279 37.218C109.294 37.0021 109.535 36.79 110.012 36.5816L110.566 36.176C110.719 36.0792 110.838 36.0197 110.92 35.9936C111.002 35.9676 111.136 35.9006 111.314 35.7852C111.497 35.6699 111.642 35.6029 111.753 35.5806C111.865 35.5582 112.044 35.5508 112.297 35.5508L112.505 35.5917C112.561 35.5657 112.635 35.5508 112.725 35.5508C112.9 35.5508 113.13 35.6475 113.417 35.841C113.703 36.0346 113.849 36.3174 113.849 36.6858C113.849 36.9575 113.741 37.2403 113.525 37.5417C113.484 37.5827 113.428 37.6869 113.357 37.8506C113.287 38.0143 113.223 38.1446 113.164 38.2451C113.104 38.3455 113.06 38.4572 113.022 38.58C112.989 38.7028 112.888 38.8442 112.725 39.008C112.561 39.1717 112.457 39.3764 112.408 39.6294C112.401 39.6629 112.375 39.7113 112.326 39.7746C112.278 39.8378 112.237 39.9197 112.207 40.0202C112.178 40.1206 112.111 40.236 112.014 40.3625C111.917 40.4928 111.854 40.6193 111.828 40.7421C111.828 40.7831 111.72 40.9282 111.504 41.1701L111.162 42.0446C111.084 42.1004 110.987 42.2753 110.868 42.5656L110.503 43.388C110.399 43.5629 110.324 43.6709 110.283 43.7118V43.9611C110.202 44.0802 110.149 44.2402 110.127 44.4449C110.105 44.6496 110.09 44.7873 110.075 44.8617C110.06 44.9361 110.053 44.9845 110.053 45.0143C110.053 45.152 110.123 45.2227 110.261 45.2227C110.462 45.2227 110.611 45.1743 110.711 45.0701C110.808 44.9696 110.886 44.9026 110.946 44.8654C111.005 44.8319 111.11 44.7352 111.266 44.5826L111.954 44.0207C112.137 43.883 112.256 43.7862 112.319 43.7341C112.382 43.682 112.479 43.6523 112.613 43.6448C112.892 43.0903 113.149 42.8112 113.383 42.8112C113.618 42.8112 113.726 42.8745 113.726 42.9973L113.644 43.1424L113.707 43.3397V43.3806L113.644 43.723C113.629 43.7639 113.551 43.8346 113.406 43.9314C113.391 44.0281 113.331 44.11 113.223 44.177C113.115 44.244 113.019 44.3184 112.937 44.4002L112.751 44.3779C112.702 44.5082 112.632 44.6124 112.542 44.6905L112.241 44.9212C112.137 44.9994 112.01 45.0887 111.861 45.1929C111.712 45.2971 111.549 45.379 111.366 45.4422C111.184 45.5055 111.065 45.5688 111.005 45.6283C110.946 45.6879 110.879 45.7288 110.801 45.7437H110.633L110.395 45.8069L109.8 45.8814C109.736 45.8814 109.476 45.7437 109.018 45.4646C108.56 45.1855 108.33 44.7091 108.33 44.0356C108.33 43.8123 108.371 43.6374 108.456 43.5034L108.52 43.3769C108.534 43.3359 108.572 43.2615 108.635 43.1573C108.698 43.0531 108.754 42.934 108.802 42.8038C108.929 42.7405 108.988 42.6884 108.988 42.6475C108.988 42.6326 108.981 42.6177 108.966 42.5954C108.951 42.573 108.944 42.5507 108.944 42.5209C108.944 42.4651 108.97 42.3944 109.026 42.3125V42.1153L109.628 41.1775C109.628 41.1775 109.71 40.9952 109.874 40.6528C110.038 40.3104 110.135 40.1244 110.172 40.0946C110.205 40.0648 110.228 40.0388 110.235 40.0053C110.243 39.9718 110.257 39.9346 110.276 39.8862C110.295 39.8378 110.309 39.782 110.317 39.7187C110.324 39.6555 110.376 39.5662 110.477 39.4545C110.577 39.3392 110.67 39.2089 110.752 39.0638L110.857 38.9186C110.935 38.8219 110.991 38.714 111.035 38.6023C111.076 38.487 111.117 38.4051 111.162 38.3567C111.515 37.9399 111.712 37.5566 111.757 37.2105C111.805 37.1287 111.858 37.0542 111.913 36.9872C111.969 36.9203 111.995 36.8458 111.995 36.764L111.932 36.6188C111.757 36.6746 111.582 36.7602 111.407 36.8756C111.229 36.991 111.043 37.084 110.845 37.151C110.648 37.2217 110.507 37.2887 110.429 37.3557C110.35 37.4226 110.153 37.5454 109.841 37.7241L109.695 37.9027C109.695 37.9027 109.681 37.9325 109.655 37.9436L109.457 37.9213C109.431 37.9362 109.405 37.9771 109.379 38.0516C109.353 38.126 109.275 38.1781 109.145 38.2116C109.122 38.219 109.078 38.2972 109.011 38.4497C108.955 38.4907 108.813 38.5391 108.583 38.5949C108.501 38.6656 108.423 38.7623 108.352 38.8926C108.281 39.0228 108.166 39.1122 108.006 39.1643C107.846 39.2164 107.753 39.2573 107.723 39.2833C107.667 39.6034 107.537 39.7932 107.325 39.8527C107.117 39.9123 106.983 40.0351 106.927 40.2174C106.871 40.4035 106.767 40.5114 106.614 40.5449C106.558 40.5858 106.469 40.6863 106.346 40.8426C106.223 40.9989 106.075 41.1403 105.896 41.2631C105.717 41.3896 105.565 41.5422 105.438 41.7208C105.308 41.9032 105.193 42.026 105.088 42.0893C104.984 42.1563 104.768 42.3684 104.441 42.7293C104.113 43.0903 103.927 43.3062 103.886 43.3769C103.845 43.4476 103.693 43.615 103.429 43.8867C103.399 43.8867 103.336 43.9016 103.231 43.9276C103.205 43.9835 103.172 44.0281 103.138 44.0616L102.722 44.5417C102.547 44.7352 102.342 44.9994 102.104 45.3343C102.033 45.3678 101.974 45.3939 101.925 45.4087C101.895 45.4385 101.877 45.4906 101.862 45.5762L101.799 45.7027L101.568 45.859C101.382 46.2833 101.114 46.4954 100.775 46.4954C100.589 46.4954 100.414 46.3503 100.258 46.0637C100.102 45.7772 100.024 45.6283 100.024 45.6209C100.024 45.2264 100.053 44.9696 100.113 44.8505C100.172 44.7315 100.251 44.6198 100.347 44.5156C100.362 44.5156 100.392 44.4524 100.44 44.3221C100.489 44.1919 100.548 44.0877 100.623 43.9983C100.697 43.909 100.779 43.7788 100.868 43.6039C100.958 43.4252 101.043 43.3397 101.118 43.3397C101.133 43.3397 101.159 43.3471 101.2 43.362L101.24 43.321L101.2 43.0829C101.229 43.0122 101.263 42.9563 101.304 42.9154C101.345 42.8745 101.386 42.7963 101.43 42.681C101.471 42.5656 101.561 42.48 101.691 42.4242C101.691 42.3684 101.761 42.253 101.899 42.0818C101.955 41.9516 102.033 41.7953 102.134 41.6167C102.234 41.438 102.346 41.3301 102.461 41.2892V41.2073C102.461 41.1254 102.55 40.9877 102.733 40.8017C102.815 40.7756 102.874 40.7049 102.904 40.5933C102.934 40.4816 103.001 40.396 103.097 40.3328C103.202 40.1951 103.317 40.0351 103.444 39.8527L103.849 39.3317C103.931 39.2424 103.994 39.1829 104.035 39.1531C104.035 38.9447 104.102 38.8405 104.232 38.8405C104.247 38.8405 104.273 38.8479 104.314 38.8628C104.344 38.7177 104.385 38.6135 104.441 38.5502C104.497 38.487 104.53 38.4125 104.545 38.3269C104.56 38.2413 104.679 38.1632 104.91 38.0925L104.869 37.9474C104.98 37.7055 105.103 37.5492 105.234 37.4785C105.256 37.4561 105.315 37.3073 105.42 37.0319C105.42 36.991 105.349 36.9463 105.211 36.8979C105.17 36.9463 105.133 36.9724 105.107 36.9724L104.765 36.9426L104.441 37.0579C104.329 37.0579 104.266 37.0654 104.255 37.0803L104.121 37.1212C103.987 37.1696 103.905 37.218 103.871 37.2663H103.831L103.674 37.2254H103.633L103.164 37.5268H103.123L102.781 37.4859C102.71 37.5975 102.521 37.6794 102.208 37.7352L102.104 37.9139L101.866 37.8915C101.795 37.9325 101.732 37.9883 101.668 38.059C101.605 38.1297 101.538 38.1706 101.46 38.1855C100.939 38.4163 100.585 38.6321 100.396 38.8405C100.34 38.9038 100.288 38.9559 100.236 38.9968C100.184 39.0377 100.128 39.1122 100.076 39.2164L99.9491 39.4024C99.9082 39.5141 99.8487 39.5773 99.778 39.5885C99.7035 39.6034 99.6217 39.6518 99.5324 39.7411C99.443 39.8267 99.3649 39.8713 99.3016 39.8713L99.2979 39.8639Z" fill="white"/>
<path d="M121.157 43.879L121.325 43.7339C121.429 43.7339 121.492 43.6855 121.511 43.5925C121.533 43.4995 121.608 43.425 121.734 43.3692C121.861 43.3134 121.984 43.2018 122.091 43.0306C122.203 42.8594 122.318 42.7738 122.434 42.7738C122.475 42.7738 122.523 42.8073 122.579 42.878C122.635 42.9487 122.661 43.0045 122.661 43.0454C122.661 43.2762 122.59 43.5106 122.452 43.7525L122.411 44.0428L122.337 44.1768C122.233 44.2326 122.166 44.2921 122.132 44.3554C122.099 44.4186 122.021 44.4931 121.887 44.5861L121.783 44.7312C121.63 44.7796 121.526 44.8615 121.474 44.9694C121.422 45.081 121.347 45.1443 121.254 45.1555C121.161 45.1704 121.057 45.2373 120.945 45.3639C120.875 45.3974 120.793 45.4309 120.696 45.4569L120.674 45.5611C120.603 45.6318 120.495 45.6876 120.346 45.7286C120.197 45.7695 120.086 45.8104 120.011 45.8477C119.937 45.8849 119.888 45.9035 119.859 45.9035C119.728 45.9035 119.606 45.8774 119.494 45.8253C119.382 45.7732 119.267 45.7397 119.152 45.7249C119.111 45.6839 119.085 45.6393 119.077 45.5909C119.07 45.5425 119.036 45.4792 118.973 45.3974C118.91 45.3155 118.88 45.2076 118.88 45.0699L118.921 44.8727C118.921 44.8429 118.902 44.8094 118.869 44.7685C118.835 44.7275 118.817 44.6903 118.817 44.6643C118.817 44.6382 118.824 44.6159 118.839 44.601C118.854 44.5861 118.861 44.5675 118.861 44.5377C118.861 44.5042 118.854 44.4633 118.839 44.4224C118.824 44.3814 118.817 44.3442 118.817 44.3182L118.88 43.8083C118.88 43.7674 118.865 43.7451 118.839 43.7451C118.813 43.7451 118.761 43.7786 118.686 43.8493C118.612 43.92 118.53 43.9535 118.43 43.9535C118.374 43.9944 118.329 44.0837 118.296 44.214C118.24 44.2847 118.169 44.3442 118.087 44.4L118.046 44.4633C118.031 44.5117 117.979 44.5526 117.89 44.5824C117.801 44.6122 117.737 44.6531 117.704 44.7015L117.6 44.8057L117.402 44.7833C117.402 44.7833 117.35 44.8578 117.287 44.9657C117.224 45.0736 117.146 45.1629 117.049 45.2299L116.256 45.8774C116.174 45.9332 116.052 46.004 115.892 46.0858L115.828 46.1491C115.274 46.5175 114.879 46.6999 114.649 46.6999C114.463 46.6999 114.243 46.6478 113.994 46.5436C113.744 46.4394 113.607 46.3128 113.588 46.1677L113.484 45.7397C113.421 45.643 113.391 45.5053 113.391 45.3341C113.391 45.2522 113.398 45.1964 113.413 45.1666V45.1034L113.391 44.761C113.391 44.6791 113.458 44.6345 113.588 44.6345L113.566 44.3517C113.566 44.3256 113.625 44.214 113.748 44.0242C113.871 43.8344 113.953 43.7227 113.994 43.6967L114.098 43.5627C114.09 43.4809 114.139 43.3915 114.243 43.2985C114.347 43.2055 114.429 43.1087 114.492 43.012C114.556 42.9152 114.675 42.8073 114.846 42.6882L115.158 42.3756C115.4 42.1337 115.665 41.9365 115.951 41.7913C115.992 41.7765 116.078 41.7095 116.208 41.5829C116.338 41.4564 116.483 41.3671 116.647 41.3076C116.811 41.248 116.971 41.1736 117.127 41.0843C117.283 40.995 117.406 40.9503 117.499 40.9503H117.581C117.607 40.9503 117.793 40.8647 118.136 40.6898H118.199C118.225 40.6898 118.292 40.7196 118.396 40.7717H118.418L118.586 40.6898C118.612 40.6749 118.649 40.6675 118.69 40.6675C119.122 40.6675 119.356 40.9652 119.401 41.5643C119.416 41.6909 119.449 41.7504 119.505 41.7504C119.576 41.7504 119.673 41.6239 119.803 41.3708C119.933 41.1178 120.205 40.9912 120.621 40.9912C120.919 40.9912 121.068 41.181 121.068 41.5643C121.068 42.0146 120.867 42.4426 120.465 42.8482C120.435 42.904 120.417 42.9673 120.402 43.0343L120.257 43.4622V43.4846C120.257 43.5255 120.227 43.5851 120.167 43.6558C120.108 43.7302 120.078 43.7935 120.078 43.8493L120.1 44.1098L120.06 44.4C120.06 44.5303 120.086 44.6196 120.134 44.6605C120.357 44.6047 120.517 44.5117 120.618 44.3852C120.718 44.2549 120.789 44.1842 120.83 44.173L120.934 44.1321C120.997 44.0279 121.068 43.9423 121.154 43.8716L121.157 43.879ZM117.696 43.879C117.726 43.7265 117.808 43.6111 117.953 43.5292C118.095 43.4511 118.18 43.3692 118.21 43.2836C118.34 43.1869 118.53 43.012 118.779 42.7626C119.025 42.5133 119.152 42.3607 119.152 42.3049C119.152 42.2826 119.137 42.2751 119.111 42.2751H119.088L119.006 42.3272L118.82 42.3049L118.623 42.3272L118.478 42.2528L118.344 42.2751L118.136 42.2342C118.024 42.2342 117.927 42.2565 117.849 42.3012C117.771 42.3458 117.615 42.3979 117.391 42.4537C117.164 42.5096 116.963 42.6063 116.781 42.7403C116.599 42.8743 116.468 42.945 116.387 42.945C116.338 43.0492 116.174 43.198 115.895 43.3915C115.728 43.4474 115.62 43.5702 115.572 43.7562C115.389 43.9014 115.3 43.987 115.3 44.0056L115.225 44.1842C115.17 44.2326 115.099 44.2735 115.017 44.3033C114.935 44.3331 114.887 44.4075 114.872 44.5228C114.857 44.6382 114.812 44.7424 114.731 44.8354C114.652 44.9285 114.611 45.0029 114.611 45.0587C114.611 45.4011 114.678 45.5686 114.809 45.5686C114.864 45.5686 114.98 45.5313 115.158 45.4606C115.337 45.3862 115.438 45.3378 115.467 45.3081C115.497 45.2783 115.549 45.2522 115.635 45.2262L115.832 45.122C115.858 45.0959 115.892 45.0773 115.925 45.0699C115.959 45.0624 115.996 45.0401 116.029 45.0029C116.063 44.9657 116.126 44.9248 116.215 44.8764C116.305 44.8317 116.375 44.7722 116.424 44.694C116.543 44.6233 116.733 44.5154 116.997 44.3703L117.216 44.2028C117.369 44.1321 117.462 44.0763 117.499 44.0242C117.533 43.9758 117.603 43.9274 117.708 43.879H117.696Z" fill="white"/>
<path d="M125.411 37.1547L125.556 37.1138L125.66 37.0096H125.683L125.776 37.0505H125.798C125.965 37.0505 126.114 37.017 126.241 36.95C126.371 36.8831 126.479 36.8384 126.568 36.8086C126.658 36.7826 126.71 36.7603 126.732 36.7454C126.754 36.7305 126.769 36.723 126.784 36.723L126.952 36.7454C127.007 36.7454 127.082 36.6449 127.175 36.4477C127.268 36.2504 127.376 36.1053 127.491 36.016C127.61 35.9267 127.726 35.7555 127.845 35.5061C127.871 35.4727 127.904 35.4168 127.938 35.3461C127.971 35.2717 128.001 35.2382 128.02 35.2382C128.124 35.2382 128.206 35.1712 128.269 35.041C128.477 34.7991 128.649 34.6763 128.779 34.6763C128.954 34.6763 129.073 34.8437 129.143 35.1749L129.248 35.5694C129.248 35.5694 129.229 35.6252 129.196 35.722C129.162 35.8187 129.143 35.9081 129.147 36.0048C129.151 36.1016 129.147 36.1611 129.136 36.1909C129.125 36.2206 129.121 36.2579 129.121 36.2988C129.121 36.3546 129.181 36.3807 129.3 36.3807C129.341 36.3807 129.419 36.3546 129.53 36.2988L129.594 36.2765C129.664 36.3174 129.724 36.3397 129.772 36.3397C129.787 36.3397 129.884 36.3062 130.07 36.2355C130.252 36.1648 130.372 36.1276 130.42 36.1202C130.468 36.1127 130.55 36.0867 130.669 36.0383H130.796L130.878 36.0681C130.904 36.0681 130.963 36.0383 131.049 35.9788C131.134 35.9192 131.302 35.882 131.544 35.8708L131.689 35.8076H131.73C131.961 35.8076 132.072 35.9081 132.072 36.109C132.072 36.1499 132.039 36.2244 131.972 36.3286C131.905 36.4328 131.853 36.5519 131.812 36.6821L131.332 37.285C131.172 37.4934 131.012 37.5976 130.852 37.5976C130.826 37.5976 130.736 37.5045 130.591 37.3147C130.591 37.2999 130.576 37.2924 130.55 37.2924C130.479 37.2924 130.409 37.3073 130.331 37.3333C130.252 37.3594 130.193 37.3743 130.144 37.3743C130.122 37.3743 129.94 37.4264 129.594 37.5306L129.344 37.5715C129.315 37.5715 129.251 37.5864 129.147 37.6124L128.615 37.7167C128.433 37.806 128.291 37.9771 128.187 38.2265C128.187 38.2414 128.154 38.2711 128.083 38.3195L127.614 39.1754C127.461 39.2164 127.361 39.3057 127.313 39.4471L127.272 39.5104C127.193 39.5252 127.126 39.5662 127.063 39.6406C127 39.715 126.94 39.7709 126.885 39.8118L126.698 40.0946C126.62 40.1914 126.546 40.2993 126.468 40.4109C126.39 40.5263 126.334 40.6454 126.3 40.7756C126.267 40.9059 126.237 40.9803 126.218 40.9989C126.2 41.0175 126.189 41.0585 126.189 41.1143L126.159 41.1961C126.077 41.278 126.032 41.3748 126.032 41.479L126.073 41.6464C125.977 41.9814 125.928 42.1563 125.928 42.1786C125.928 42.1935 125.936 42.2307 125.95 42.294V42.3572C125.95 42.5098 125.895 42.6996 125.783 42.9303L125.805 43.0978L125.742 43.5667C125.742 43.6299 125.764 43.7453 125.805 43.909C125.776 43.9388 125.764 43.9574 125.764 43.9723C125.764 44.1658 125.869 44.3817 126.073 44.6124C126.278 44.8468 126.382 45.2078 126.382 45.7028C126.382 45.7437 126.371 45.807 126.352 45.8851C126.334 45.9633 126.319 46.0526 126.311 46.1456C126.304 46.2386 126.252 46.3317 126.151 46.421C126.051 46.5103 125.965 46.555 125.895 46.555C125.526 46.555 125.251 46.287 125.069 45.7511C124.886 45.2153 124.797 44.8729 124.797 44.7203L124.819 44.3147L124.756 44.1063L124.819 43.1908L124.778 42.9713L125.02 42.0744V41.7506C125.02 41.7506 125.069 41.6799 125.165 41.5832C125.165 41.5683 125.15 41.5608 125.124 41.5608C125.083 41.5608 125.028 41.6018 124.957 41.6874C124.886 41.7692 124.801 41.8511 124.696 41.9255L124.615 42.0707C124.615 42.0707 124.574 42.0409 124.533 42.0297C124.499 42.0446 124.384 42.2084 124.187 42.521C124.041 42.5433 123.926 42.6252 123.84 42.7703C123.759 42.9154 123.643 42.9899 123.494 42.9899L123.453 43.0122C123.424 43.2131 123.327 43.3136 123.159 43.3136L123.119 43.3359C123.014 43.5704 122.906 43.6858 122.795 43.6783C122.724 43.8867 122.553 44.0281 122.281 44.1063C122.24 44.1882 122.177 44.2514 122.099 44.2923C122.021 44.3333 121.961 44.3705 121.928 44.4077C121.894 44.4412 121.861 44.4598 121.835 44.4598C121.745 44.4598 121.701 44.3631 121.701 44.1695C121.701 44.1137 121.723 44.0542 121.768 43.9872C121.812 43.9202 121.835 43.8755 121.835 43.8458C121.835 43.8309 121.801 43.79 121.73 43.7193C121.73 43.5034 121.786 43.3694 121.898 43.3136C122.01 43.2578 122.091 43.1797 122.147 43.0755C122.181 42.9936 122.251 42.934 122.356 42.8968C122.46 42.8633 122.512 42.8187 122.512 42.7629C122.512 42.7145 122.601 42.6177 122.784 42.4726C122.966 42.3275 123.096 42.2009 123.182 42.093C123.264 41.9851 123.334 41.933 123.39 41.933L123.431 41.892C123.446 41.7171 123.509 41.6316 123.628 41.6316L123.733 41.5683L123.755 41.4864L123.818 41.4455H123.9L123.952 41.4045C123.967 41.2296 124.049 41.0957 124.198 40.9989C124.347 40.9022 124.622 40.6305 125.016 40.1802C125.415 39.7299 125.634 39.4471 125.683 39.3206C125.731 39.194 125.82 39.0266 125.947 38.8145C126.073 38.6023 126.148 38.4014 126.163 38.2153C126.148 38.1855 126.129 38.1595 126.099 38.1334L125.653 38.353C125.653 38.3307 125.582 38.3009 125.444 38.26C125.34 38.3232 125.262 38.3865 125.214 38.446C125.165 38.5093 125.128 38.5391 125.098 38.5391L124.953 38.5167L124.495 38.5688C124.086 38.6023 123.777 38.6879 123.569 38.8182L123.141 38.9447H123.048C122.992 38.9447 122.91 38.9782 122.798 39.0489L122.56 39.0266C122.337 39.1457 122.173 39.2052 122.069 39.2052C122.054 39.2052 122.013 39.1978 121.943 39.1829L120.878 39.4731C120.796 39.4992 120.607 39.6443 120.316 39.9011L120.234 39.9234C120.164 39.9234 120.082 39.8453 119.989 39.689C119.896 39.5327 119.847 39.3913 119.847 39.2685C119.847 38.58 120.439 38.1818 121.619 38.0702L122.047 37.9027H122.069L122.184 37.9437H122.225C122.266 37.9437 122.333 37.9176 122.423 37.8655C122.512 37.8134 122.713 37.7501 123.025 37.672L123.453 37.5566L123.587 37.579C123.658 37.579 123.736 37.5529 123.822 37.4971C123.907 37.4413 124.041 37.4003 124.216 37.378C124.395 37.352 124.518 37.3259 124.585 37.2999L124.752 37.2589C124.778 37.2589 124.838 37.2329 124.923 37.1845C125.009 37.1361 125.124 37.1101 125.262 37.1101C125.284 37.1101 125.336 37.1249 125.418 37.151L125.411 37.1547Z" fill="white"/>
<path d="M129.117 42.3462L129.263 42.4095C129.277 42.2904 129.344 42.1899 129.46 42.108H129.545C129.616 42.108 129.705 42.015 129.817 41.8252L129.996 41.721C130.025 41.7359 130.066 41.7433 130.122 41.7433C130.163 41.7433 130.204 41.7173 130.241 41.6614C130.278 41.6056 130.375 41.4977 130.528 41.3377H130.569C130.61 41.3377 130.662 41.3079 130.721 41.2447C130.781 41.1814 130.859 41.1516 130.956 41.1516L131.313 41.0586C131.425 41.0325 131.488 41.0176 131.499 41.0176C131.562 40.9953 131.715 41.1218 131.957 41.3972C132.199 41.6726 132.322 41.9368 132.322 42.1936C132.322 42.3387 132.243 42.4281 132.091 42.4541L132.039 42.495V42.7034L131.86 43.0905C131.812 43.1947 131.752 43.2616 131.681 43.2877C131.618 43.3993 131.574 43.4738 131.547 43.5184L131.402 43.5408L131.339 43.604V43.8645C131.276 43.9464 131.187 44.1287 131.067 44.4116C130.948 44.6944 130.889 44.873 130.889 44.9474C130.889 45.0777 130.915 45.1447 130.971 45.1447C131.012 45.1447 131.053 45.1261 131.097 45.0926C131.138 45.0591 131.198 45.0181 131.268 44.9735C131.343 44.9288 131.395 44.8805 131.428 44.8321C131.462 44.7837 131.536 44.739 131.648 44.7018C131.76 44.6646 131.864 44.5939 131.961 44.4897C132.057 44.3855 132.128 44.3148 132.169 44.2813C132.21 44.2478 132.255 44.1994 132.303 44.1399C132.351 44.0804 132.381 44.0506 132.396 44.0506C132.437 44.0506 132.504 44.0357 132.593 44.0096C132.608 43.9315 132.619 43.8794 132.634 43.8422L132.883 43.7157L133.486 43.1723L133.568 43.0681C133.68 43.0421 133.751 43.0198 133.777 43.0049C133.832 42.8188 133.925 42.6811 134.059 42.5992C134.059 42.5732 134.093 42.5509 134.164 42.536C134.219 42.4243 134.29 42.335 134.376 42.2718C134.461 42.2048 134.532 42.1229 134.588 42.0261L134.826 41.8289C134.897 41.7991 134.945 41.7582 134.971 41.7024C135.332 41.3823 135.555 41.2 135.641 41.1553C135.727 41.1107 135.868 41.0884 136.062 41.0884C136.255 41.0884 136.415 41.1628 136.534 41.3116C136.653 41.4605 136.787 41.5759 136.929 41.6503C137.07 41.7284 137.141 41.8736 137.141 42.0894C137.141 42.2904 136.984 42.6774 136.672 43.2468C136.471 43.8459 136.367 44.2106 136.359 44.3483C136.352 44.4823 136.322 44.5604 136.266 44.5827C136.21 44.6051 136.184 44.6274 136.184 44.6572V44.6981C136.184 44.8656 136.21 44.9474 136.266 44.9474C136.307 44.9474 136.367 44.9139 136.437 44.8432C136.508 44.7725 136.657 44.6981 136.88 44.6125L136.973 44.6348C137.174 44.3297 137.308 44.1659 137.379 44.1399C137.45 44.1138 137.517 44.0543 137.587 43.9538C137.658 43.8533 137.74 43.7975 137.84 43.7938C137.941 43.7864 138.004 43.7715 138.034 43.7417C138.041 43.5742 138.179 43.3882 138.443 43.1798C138.711 42.9714 138.864 42.8672 138.905 42.8672C138.975 42.8672 139.027 42.9193 139.072 43.0235C139.117 43.1277 139.158 43.1984 139.202 43.2356C139.247 43.2728 139.269 43.3063 139.269 43.3361V43.5221C139.269 43.6115 139.225 43.671 139.135 43.7008C139.065 43.8533 139.005 43.9427 138.949 43.9724L138.763 43.9501C138.73 43.991 138.7 44.032 138.674 44.0655C138.648 44.099 138.633 44.1138 138.626 44.1064C138.57 44.1213 138.473 44.2106 138.328 44.3818C138.186 44.553 138.06 44.6944 137.948 44.8023L137.907 44.8656C137.852 44.9065 137.799 44.9363 137.751 44.9474L137.565 45.1037C137.494 45.0628 137.453 45.0405 137.442 45.0405C137.431 45.0405 137.398 45.0665 137.353 45.1223C137.308 45.1782 137.219 45.2489 137.081 45.3345C136.947 45.4201 136.843 45.5205 136.776 45.6322L136.609 45.7996L136.389 45.8294C136.367 45.8294 136.333 45.8592 136.285 45.9224L136.099 46.1606C136.009 46.2797 135.868 46.3392 135.671 46.3392C135.63 46.3392 135.574 46.302 135.511 46.2313C135.444 46.1569 135.384 46.0973 135.325 46.0452C135.265 45.9931 135.135 45.8369 134.93 45.5764C134.726 45.3159 134.621 45.1782 134.621 45.1633L134.685 44.7986L134.662 44.5493C134.662 44.5009 134.696 44.4264 134.763 44.326C134.83 44.2255 134.863 44.1697 134.863 44.1659L134.841 43.7603C134.841 43.7603 134.867 43.7268 134.882 43.697L135.027 43.4589C135.012 43.3882 135.005 43.3137 135.005 43.2282L135.046 42.8858C134.919 42.9416 134.811 43.0532 134.718 43.2244C134.625 43.3956 134.502 43.4812 134.35 43.4812C134.216 43.7157 134.115 43.831 134.048 43.8236C134.022 43.8533 134 43.8794 133.985 43.9054L133.84 43.9873L133.661 43.965L133.598 44.2255C133.445 44.3074 133.345 44.3818 133.3 44.4488C133.256 44.5158 133.185 44.5827 133.088 44.6534L132.91 44.8209H132.742C132.716 45.007 132.608 45.1633 132.418 45.2898L132.336 45.394L132.15 45.3717C132.08 45.595 131.994 45.7289 131.89 45.7773C131.771 45.7773 131.611 45.8852 131.406 46.1011C131.201 46.3169 131.056 46.4248 130.974 46.4248C130.368 46.4248 129.88 46.0452 129.504 45.2898C129.49 45.2638 129.456 45.2117 129.404 45.1335C129.352 45.0554 129.326 44.94 129.326 44.78C129.326 44.5083 129.363 44.326 129.434 44.2292C129.508 44.1325 129.601 43.9501 129.717 43.6822C129.832 43.4142 129.918 43.2989 129.973 43.3324C129.988 43.3063 129.996 43.2616 129.996 43.2058C130.107 43.0756 130.163 42.9751 130.163 42.9044C130.163 42.8746 130.148 42.8635 130.122 42.8635C130.107 42.8635 130.066 42.8858 129.996 42.9267L129.851 42.99C129.787 43.0049 129.743 43.0309 129.713 43.0719C129.683 43.1128 129.635 43.1537 129.568 43.1909C129.497 43.2282 129.441 43.2616 129.4 43.2914H129.37C129.33 43.2505 129.3 43.2282 129.285 43.2282C129.244 43.3398 129.207 43.4105 129.181 43.4366L129.054 43.4589C128.902 43.6189 128.801 43.697 128.76 43.697C128.73 43.697 128.671 43.671 128.57 43.6226C128.474 43.5742 128.425 43.5259 128.425 43.4775L128.5 43.0719V42.8858C128.5 42.8858 128.526 42.8449 128.582 42.8039C128.596 42.8039 128.652 42.7295 128.749 42.5806C128.846 42.4318 128.961 42.3573 129.095 42.3573L129.117 42.3462Z" fill="white"/>
<path d="M140.747 41.5124L140.903 41.4715L140.966 41.3375C141.305 41.1366 141.551 40.9468 141.696 40.7644C141.711 40.7384 141.74 40.7086 141.789 40.6825C141.837 40.6565 141.889 40.6044 141.945 40.5374C142.202 40.2806 142.507 40.1504 142.861 40.1504C143.277 40.1504 143.501 40.4034 143.527 40.9096L143.59 41.0659C143.646 41.1626 143.724 41.3598 143.824 41.6613C143.925 41.959 143.977 42.1451 143.977 42.212C143.977 42.3981 143.917 42.5879 143.798 42.774C143.702 42.8224 143.467 43.0828 143.099 43.5555L142.994 43.6299C142.939 43.7564 142.864 43.8792 142.775 44.0058C142.637 44.0541 142.567 44.1062 142.567 44.1621V44.3481C142.567 44.3481 142.552 44.3891 142.518 44.43C142.488 44.4709 142.444 44.5528 142.388 44.6682L142.306 44.7947C142.276 44.8245 142.25 44.8803 142.224 44.9659C142.198 45.0515 142.157 45.1296 142.105 45.2003C142.053 45.271 142.027 45.3268 142.027 45.3678C142.027 45.472 142.161 45.5241 142.433 45.5241C142.447 45.5241 142.5 45.5018 142.589 45.4608L142.734 45.5018C142.734 45.5018 142.782 45.4794 142.838 45.4348C142.894 45.3901 142.98 45.3529 143.095 45.3268C143.21 45.3008 143.311 45.2561 143.396 45.2003C143.482 45.1445 143.586 45.0961 143.709 45.0552C143.832 45.0142 143.947 44.9473 144.059 44.8505C144.17 44.7538 144.278 44.6905 144.386 44.6458C144.494 44.6049 144.595 44.5379 144.688 44.4523C144.781 44.3667 144.889 44.2849 145.004 44.2067C145.123 44.1286 145.309 43.9648 145.566 43.708C145.733 43.5778 145.849 43.5034 145.908 43.4885C145.923 43.4885 145.983 43.3954 146.091 43.2131C146.199 43.0307 146.321 42.9377 146.459 42.9377C146.597 42.9377 146.679 43.0084 146.679 43.1461C146.679 43.2243 146.645 43.295 146.574 43.3657V43.4289L146.597 43.5964C146.612 43.6187 146.619 43.6485 146.619 43.6894C146.619 43.7192 146.593 43.7601 146.541 43.816C146.489 43.8718 146.452 43.9425 146.433 44.0281C146.411 44.1137 146.347 44.1732 146.236 44.1993C146.195 44.3518 146.139 44.4374 146.076 44.4598C146.009 44.4821 145.919 44.5491 145.8 44.6682C145.681 44.7872 145.514 44.9249 145.302 45.085C145.086 45.245 144.937 45.3678 144.859 45.4534C144.781 45.539 144.725 45.5836 144.699 45.5836C144.684 45.5836 144.658 45.5687 144.617 45.5427C144.576 45.5166 144.546 45.5018 144.535 45.5018C144.494 45.5018 144.464 45.5501 144.453 45.6469L144.412 45.7511C144.323 45.8069 144.271 45.833 144.256 45.833L144.193 45.8106H144.152C144.07 45.8106 144.025 45.8404 144.025 45.9037L144.089 46.0079V46.0302C144.089 46.1269 144.033 46.1753 143.921 46.1753C143.843 46.1753 143.623 46.3056 143.255 46.5623L142.954 46.6256L142.704 46.7596C142.622 46.7112 142.57 46.6852 142.548 46.6852L142.38 46.7373L142.079 46.7596C142.079 46.7596 141.945 46.6889 141.699 46.5512C141.454 46.4135 141.305 46.2721 141.257 46.1344C141.208 45.9967 141.145 45.8553 141.071 45.7139C140.992 45.5725 140.955 45.472 140.955 45.4162C140.955 45.0812 140.981 44.8431 141.037 44.7017C141.093 44.5602 141.126 44.4523 141.141 44.3853C141.156 44.3146 141.193 44.2402 141.26 44.1621C141.327 44.0839 141.379 43.9537 141.42 43.7713C141.621 43.3694 141.763 43.1201 141.837 43.0307C141.915 42.9414 141.971 42.8298 142.016 42.6958L142.15 42.5098C142.15 42.5098 142.183 42.4428 142.213 42.3497C142.239 42.2567 142.276 42.2009 142.317 42.1897C142.373 42.093 142.399 42.0297 142.399 42.0036C142.399 41.8027 142.31 41.7022 142.127 41.7022C142.094 41.7022 142.053 41.7394 142.012 41.8101C141.971 41.8846 141.874 41.9553 141.725 42.0223C141.577 42.0892 141.484 42.1451 141.45 42.1785C141.417 42.212 141.342 42.2567 141.227 42.3088C141.111 42.3609 141.015 42.4428 140.929 42.5544L140.75 42.6363C140.695 42.7665 140.646 42.841 140.605 42.8558C140.564 42.8707 140.434 42.9042 140.218 42.96C140.203 42.9675 140.17 43.0084 140.114 43.0866C140.058 43.1647 139.98 43.2019 139.876 43.2019C139.794 43.2838 139.708 43.3843 139.627 43.4922C139.597 43.4922 139.526 43.522 139.407 43.5741L139.199 43.6262C139.143 43.6671 139.083 43.7341 139.016 43.8234C138.949 43.9127 138.827 43.9574 138.648 43.9574C138.544 43.9574 138.492 43.8755 138.492 43.708C138.492 43.3657 138.611 43.0977 138.853 42.8968C139.091 42.6958 139.269 42.5879 139.377 42.573C139.489 42.5581 139.56 42.5172 139.586 42.4465C139.615 42.3758 139.682 42.32 139.79 42.2753C139.898 42.2307 140.021 42.1302 140.166 41.9739C140.308 41.8176 140.464 41.7134 140.631 41.6576L140.758 41.5124H140.747Z" fill="white"/>
<path d="M42.7588 57.5287C42.7588 56.509 42.7662 55.534 42.7886 55.013H42.7662C42.5578 55.7127 41.501 58.2804 40.8386 59.9253H40.4441C39.9454 58.6526 38.8513 55.7945 38.6132 55.0056H38.5983C38.6355 55.601 38.6504 56.8142 38.6504 57.7073V59.9253H38.2485V54.7153H38.8513C39.5658 56.5016 40.4664 58.8386 40.6599 59.4266H40.6748C40.7939 59.047 41.8359 56.4495 42.5653 54.7153H43.1607V59.9253H42.7588V57.5287Z" fill="white" fill-opacity="0.8"/>
<path d="M45.1554 58.1241L44.493 59.9253H44.0836L45.9964 54.7153H46.4728L48.4674 59.9253H48.0283L47.351 58.1241H45.1554ZM47.217 57.752C46.6365 56.2039 46.3388 55.4596 46.2346 55.1098H46.2271C46.1006 55.5043 45.7657 56.4272 45.2968 57.752H47.217Z" fill="white" fill-opacity="0.8"/>
<path d="M49.3903 59.9292V54.7192H49.9857C50.797 55.9696 52.7024 58.8798 53.0298 59.4454H53.0373C52.9926 58.6937 53.0001 57.9271 53.0001 57.0786V54.7192H53.4094V59.9292H52.8587C52.0846 58.7235 50.1495 55.6942 49.7773 55.1211H49.7699C49.8071 55.8059 49.7997 56.565 49.7997 57.5103V59.9292H49.3903Z" fill="white" fill-opacity="0.8"/>
<path d="M54.9426 59.9292V54.7192H55.538C56.3493 55.9696 58.2547 58.8798 58.5821 59.4454H58.5896C58.5449 58.6937 58.5524 57.9271 58.5524 57.0786V54.7192H58.9617V59.9292H58.411C57.6369 58.7235 55.7018 55.6942 55.3296 55.1211H55.3222C55.3594 55.8059 55.352 56.565 55.352 57.5103V59.9292H54.9426Z" fill="white" fill-opacity="0.8"/>
<path d="M63.5539 57.365H60.8969V59.5531H63.807L63.7474 59.9253H60.4949V54.7153H63.6879V55.0875H60.8969V56.9928H63.5539V57.365Z" fill="white" fill-opacity="0.8"/>
<path d="M65.2435 57.4915V59.9253H64.8341V54.7153H66.7023C67.7294 54.7153 68.2727 55.2661 68.2727 56.0848C68.2727 56.7472 67.8782 57.1789 67.2977 57.3054C67.8336 57.432 68.1908 57.7818 68.1908 58.6674V58.8684C68.1908 59.2331 68.161 59.7243 68.2578 59.9253H67.8484C67.7517 59.702 67.774 59.2852 67.774 58.8386V58.7047C67.774 57.8487 67.521 57.4915 66.5236 57.4915H65.2435ZM65.2435 57.1194H66.5013C67.4168 57.1194 67.841 56.777 67.841 56.0922C67.841 55.4522 67.4242 55.0875 66.6129 55.0875H65.2435V57.1194Z" fill="white" fill-opacity="0.8"/>
<path d="M75.3731 58.5337C75.1274 59.3598 74.5171 59.985 73.4156 59.985C71.9196 59.985 71.1307 58.7942 71.1307 57.328C71.1307 55.8617 71.9047 54.6411 73.4231 54.6411C74.5469 54.6411 75.2093 55.2663 75.3805 56.1371H74.9786C74.7404 55.4598 74.3013 55.0133 73.4007 55.0133C72.1057 55.0133 71.5624 56.1967 71.5624 57.3205C71.5624 58.4444 72.0982 59.6129 73.4305 59.6129C74.279 59.6129 74.7107 59.1738 74.9712 58.5337H75.3731Z" fill="white" fill-opacity="0.8"/>
<path d="M80.8807 57.2833C80.8807 58.7049 80.1216 59.9999 78.5139 59.9999C77.0477 59.9999 76.1918 58.8165 76.1918 57.3205C76.1918 55.8245 77.0179 54.6411 78.566 54.6411C79.995 54.6411 80.8807 55.765 80.8807 57.2833ZM76.6235 57.2982C76.6235 58.4965 77.2859 59.6278 78.5362 59.6278C79.8834 59.6278 80.449 58.5262 80.449 57.2907C80.449 56.0552 79.809 55.0133 78.5511 55.0133C77.2114 55.0133 76.6235 56.1222 76.6235 57.2982Z" fill="white" fill-opacity="0.8"/>
<path d="M82.5107 58.1241L81.8483 59.9253H81.439L83.3518 54.7153H83.8281L85.8228 59.9253H85.3836L84.7063 58.1241H82.5107ZM84.5724 57.752C83.9918 56.2039 83.6941 55.4596 83.5899 55.1098H83.5825C83.456 55.5043 83.121 56.4272 82.6521 57.752H84.5724Z" fill="white" fill-opacity="0.8"/>
<path d="M90.5936 58.5337C90.348 59.3598 89.7377 59.985 88.6361 59.985C87.1401 59.985 86.3512 58.7942 86.3512 57.328C86.3512 55.8617 87.1252 54.6411 88.6436 54.6411C89.7674 54.6411 90.4298 55.2663 90.601 56.1371H90.1991C89.9609 55.4598 89.5218 55.0133 88.6212 55.0133C87.3262 55.0133 86.7829 56.1967 86.7829 57.3205C86.7829 58.4444 87.3188 59.6129 88.651 59.6129C89.4995 59.6129 89.9312 59.1738 90.1917 58.5337H90.5936Z" fill="white" fill-opacity="0.8"/>
<path d="M91.7174 54.7153H92.1193V56.9854H95.2453V54.7153H95.6472V59.9253H95.2453V57.3575H92.1193V59.9253H91.7174V54.7153Z" fill="white" fill-opacity="0.8"/>
<path d="M97.5823 54.7153V59.9253H97.1804V54.7153H97.5823Z" fill="white" fill-opacity="0.8"/>
<path d="M99.1156 59.9292V54.7192H99.711C100.522 55.9696 102.428 58.8798 102.755 59.4454H102.763C102.718 58.6937 102.725 57.9271 102.725 57.0786V54.7192H103.135V59.9292H102.584C101.81 58.7235 99.8747 55.6942 99.5026 55.1211H99.4951C99.5324 55.8059 99.5249 56.565 99.5249 57.5103V59.9292H99.1156Z" fill="white" fill-opacity="0.8"/>
<path d="M108.613 59.9294H108.278C108.248 59.8699 108.233 59.6019 108.226 59.0958C108.039 59.4531 107.63 59.9889 106.543 59.9889C105.047 59.9889 104.281 58.8502 104.281 57.3691C104.281 55.8135 105.1 54.645 106.625 54.645C107.749 54.645 108.493 55.233 108.657 56.1931H108.255C108.032 55.4563 107.518 55.0172 106.61 55.0172C105.308 55.0172 104.713 56.0294 104.713 57.3468C104.713 58.5376 105.286 59.6168 106.558 59.6168C107.831 59.6168 108.226 58.7683 108.226 57.6147V57.5552H106.543V57.183H108.613V59.9294Z" fill="white" fill-opacity="0.8"/>
<path d="M0 57.7373H34.9364" stroke="white" stroke-opacity="0.8" stroke-width="0.18607" stroke-miterlimit="10"/>
<path d="M111.75 57.7373H146.686" stroke="white" stroke-opacity="0.8" stroke-width="0.18607" stroke-miterlimit="10"/>
</svg>
