<svg width="24" height="24" viewBox="0 0 24 24" fill="none" xmlns="http://www.w3.org/2000/svg">
<g clip-path="url(#clip0_6051_1199)">
<path fill-rule="evenodd" clip-rule="evenodd" d="M16.8426 6.54784C15.6036 5.36614 13.9501 4.72238 12.2392 4.74884C9.10863 4.74884 6.44981 6.86089 5.5018 9.70489V9.70496C4.99913 11.1953 4.99913 12.8091 5.50179 14.2995H5.50619C6.45861 17.1391 9.11303 19.2512 12.2437 19.2512C13.8597 19.2512 15.247 18.8378 16.3223 18.1077V18.1048C17.5878 17.267 18.452 15.9486 18.721 14.4582H12.2393V9.83725H23.558C23.6991 10.6397 23.7653 11.4599 23.7653 12.2756C23.7653 15.9255 22.4609 19.0112 20.1913 21.1012L20.1937 21.1031C18.2051 22.9374 15.4757 24 12.2392 24C7.70204 24 3.55286 21.4426 1.51575 17.3904V17.3904C-0.186243 13.9996 -0.186239 10.0048 1.51576 6.61401H1.51579L1.51575 6.61398C3.55286 2.5574 7.70204 -1.53085e-05 12.2392 -1.53085e-05C15.22 -0.03529 18.0992 1.08468 20.2686 3.12179L16.8426 6.54784Z" fill="white"/>
</g>
<defs>
<clipPath id="clip0_6051_1199">
<rect width="24" height="24" fill="white"/>
</clipPath>
</defs>
</svg>
