<svg width="64" height="65" viewBox="0 0 64 65" fill="none" xmlns="http://www.w3.org/2000/svg">
<g clip-path="url(#clip0_2099_8097)">
<path d="M43.4871 22.4732C47.252 22.4732 50.3041 19.4211 50.3041 15.6562C50.3041 11.8912 47.252 8.83911 43.4871 8.83911C39.7221 8.83911 36.67 11.8912 36.67 15.6562C36.67 19.4211 39.7221 22.4732 43.4871 22.4732Z" fill="white" fill-opacity="0.6"/>
<path d="M58.2501 47.0636C57.551 45.2664 56.5806 43.587 55.3728 42.0836C54.8509 41.2231 53.8142 40.823 52.8496 41.1098C50.9904 41.4418 46.9621 38.653 46.9621 38.653C46.9621 38.653 44.2397 37.0815 44.9259 35.3108C45.612 33.5402 47.5376 34.4255 47.5376 34.4255L48.5336 34.9346C48.9542 35.1678 49.3292 35.4752 49.6402 35.842C50.4095 36.7253 51.5234 37.2323 52.6947 37.2323C53.8659 37.2323 54.9798 36.7253 55.7491 35.842C57.0726 34.1877 56.9587 31.8071 55.4835 30.2866C54.5774 29.3071 53.5154 28.4844 52.3405 27.8519C44.6603 23.7572 40.0344 26.2583 36.8472 28.6708C35.7025 29.5542 34.1268 29.625 32.9075 28.8479L29.9195 26.9887C28.8988 26.3797 27.6621 26.2498 26.5371 26.6333C25.4122 27.0168 24.5124 27.8751 24.0763 28.9807C23.3904 30.9029 24.1837 33.0401 25.9576 34.0492L31.5352 37.3914C32.166 37.7629 32.8837 37.9614 33.6157 37.9668C34.098 37.9634 34.5765 37.8812 35.0323 37.7234L39.4589 35.3772V40.977C35.5134 44.4072 33.2855 49.4058 33.3723 54.6332C33.3844 56.8493 35.1844 58.6394 37.4005 58.6394C38.4687 58.6395 39.4923 58.2107 40.2414 57.4491C40.9905 56.6875 41.4023 55.6571 41.3845 54.589C41.3845 48.7458 45.7005 46.6652 46.5859 45.5364C48.4774 46.3859 49.9237 47.9928 50.5698 49.9631C50.9715 51.1415 51.8928 52.0696 53.0681 52.4801C54.2434 52.8906 55.5422 52.7378 56.5901 52.0658C58.2856 51.0234 58.986 48.9129 58.2501 47.0636Z" fill="white" fill-opacity="0.6"/>
<path d="M28.9677 20.1715C30.6424 20.1715 32 18.8139 32 17.1392C32 15.4645 30.6424 14.1069 28.9677 14.1069C27.293 14.1069 25.9354 15.4645 25.9354 17.1392C25.9354 18.8139 27.293 20.1715 28.9677 20.1715Z" fill="white" fill-opacity="0.6"/>
<path d="M15.4885 22.3406V10.8755C15.4885 10.5657 15.8648 10.4771 16.0861 10.6099L18.4765 12.115C18.9791 12.4835 19.6458 12.5393 20.2028 12.2597C20.7598 11.98 21.1132 11.4119 21.1179 10.7887C21.1225 10.1654 20.7777 9.59209 20.225 9.30408L16.2189 6.78088C15.3541 6.28664 14.2904 6.2954 13.4339 6.80382C12.5774 7.31224 12.0602 8.24182 12.08 9.23768V16.7409C12.0756 16.9063 12.0002 17.0618 11.8731 17.1677C11.746 17.2736 11.5794 17.3197 11.416 17.2942C10.3091 17.0325 9.14407 17.2069 8.16236 17.7811C6.64588 18.5705 5.62427 20.0655 5.43996 21.7651C5.334 23.1673 5.82312 24.5493 6.78751 25.5727C7.75191 26.596 9.1025 27.1662 10.5085 27.1435C13.1641 27.0794 15.3283 24.9922 15.4885 22.3406Z" fill="white" fill-opacity="0.6"/>
<path d="M18.7199 39.6711H16.5065V37.4577C16.5065 36.2353 15.5156 35.2444 14.2932 35.2444C13.0708 35.2444 12.0799 36.2353 12.0799 37.4577V39.6711H9.86653C8.64414 39.6711 7.6532 40.662 7.6532 41.8844C7.6532 43.1068 8.64414 44.0977 9.86653 44.0977H12.0799V46.3111C12.0799 47.5334 13.0708 48.5244 14.2932 48.5244C15.5156 48.5244 16.5065 47.5334 16.5065 46.3111V44.0977H18.7199C19.9423 44.0977 20.9332 43.1068 20.9332 41.8844C20.9332 40.662 19.9423 39.6711 18.7199 39.6711Z" fill="white" fill-opacity="0.6"/>
</g>
<defs>
<clipPath id="clip0_2099_8097">
<rect width="64" height="64" fill="white" transform="translate(0 0.5)"/>
</clipPath>
</defs>
</svg>
