<svg width="64" height="65" viewBox="0 0 64 65" fill="none" xmlns="http://www.w3.org/2000/svg">
<g clip-path="url(#clip0_2099_8093)">
<path d="M34.6667 5.83325V8.49992H32C30.5273 8.50007 29.3335 9.69389 29.3333 11.1666V29.8333C29.3335 31.3059 30.5273 32.4998 32 32.4999H56C57.4727 32.4998 58.6665 31.3059 58.6667 29.8333V11.1666C58.6665 9.69389 57.4727 8.50007 56 8.49992H53.3333V5.83325H48V8.49992H40V5.83325H34.6667ZM24 7.37492C16.8613 10.2523 11.635 16.8738 10.7656 24.8124L5.71875 32.7343C4.90541 34.0063 5.43358 35.7024 6.82291 36.2864L10.625 37.8905V45.8332C10.625 48.7799 13.0117 51.1666 15.9583 51.1666H21.2917V59.1666H45.2917V51.8072C45.2917 44.0632 48.2063 41.5426 50.5156 37.8333H29.3333C26.3867 37.8333 24 35.4466 24 32.4999V7.37492ZM34.6667 16.4999H53.3333V27.1666H34.6667V16.4999ZM45.3333 19.1666V24.4999H50.6667V19.1666H45.3333Z" fill="white" fill-opacity="0.6"/>
</g>
<defs>
<clipPath id="clip0_2099_8093">
<rect width="64" height="64" fill="white" transform="translate(0 0.5)"/>
</clipPath>
</defs>
</svg>
