<svg width="83" height="54" viewBox="0 0 83 54" fill="none" xmlns="http://www.w3.org/2000/svg">
<path d="M9.46875 51.875C7.69792 51.3542 6.1875 50.0781 4.9375 48.0469C3.73958 46.0156 2.77604 43.5938 2.04688 40.7812C1.31771 37.9167 0.796875 34.8438 0.484375 31.5625C0.223958 28.2812 0.119792 25.1302 0.171875 22.1094C0.223958 19.0885 0.40625 16.3802 0.71875 13.9844C1.08333 11.5885 1.52604 9.86979 2.04688 8.82812C2.20312 8.51562 2.46354 8.33333 2.82812 8.28125C3.24479 8.17708 3.66146 8.17708 4.07812 8.28125C4.49479 8.33333 4.85938 8.46354 5.17188 8.67188C5.53646 8.88021 5.74479 9.14062 5.79688 9.45312C6.05729 11.1198 6.05729 13.0469 5.79688 15.2344C5.53646 17.3698 5.22396 19.6615 4.85938 22.1094C4.54688 24.5052 4.26042 26.9531 4 29.4531C3.73958 31.901 3.73958 34.2448 4 36.4844C4.26042 38.724 4.88542 40.7552 5.875 42.5781C6.91667 44.401 8.53125 45.8594 10.7188 46.9531C12.4375 47.8385 14.0521 47.9688 15.5625 47.3438C17.125 46.6667 18.5312 45.5208 19.7812 43.9062C21.0833 42.2396 22.1771 40.2083 23.0625 37.8125C24 35.4167 24.7031 32.8646 25.1719 30.1562C25.6927 27.3958 25.9531 24.6354 25.9531 21.875C25.9531 19.0625 25.6406 16.4844 25.0156 14.1406C24.4427 11.7448 23.5312 9.6875 22.2812 7.96875C21.0833 6.25 19.4948 5.10417 17.5156 4.53125C15.4844 3.90625 13.8438 3.95833 12.5938 4.6875C11.3958 5.36458 10.1458 6.53646 8.84375 8.20312C8.375 8.46354 8.08854 8.4375 7.98438 8.125C7.88021 7.8125 7.93229 7.36979 8.14062 6.79688C8.34896 6.17188 8.6875 5.49479 9.15625 4.76562C9.67708 4.03646 10.3021 3.35938 11.0312 2.73438C11.8125 2.10938 12.6719 1.61458 13.6094 1.25C14.599 0.833333 15.6667 0.677083 16.8125 0.78125C19.3646 1.04167 21.5 2.05729 23.2188 3.82812C24.9896 5.59896 26.3438 7.83854 27.2812 10.5469C28.2708 13.2031 28.8698 16.1719 29.0781 19.4531C29.3385 22.7344 29.2344 26.0417 28.7656 29.375C28.349 32.7083 27.5938 35.9115 26.5 38.9844C25.4062 42.0052 24.026 44.6094 22.3594 46.7969C20.7448 48.9323 18.8438 50.5208 16.6562 51.5625C14.5208 52.5521 12.125 52.6562 9.46875 51.875ZM36.5781 51.3281C36.474 50.9115 36.4219 50.2604 36.4219 49.375C36.4219 48.4375 36.474 47.8385 36.5781 47.5781C36.6823 47.3177 37.151 46.4583 37.9844 45C38.8698 43.5417 39.9115 41.7448 41.1094 39.6094C42.3594 37.4219 43.6615 35.026 45.0156 32.4219C46.3698 29.8177 47.5938 27.2396 48.6875 24.6875C49.8333 22.1354 50.7188 19.7396 51.3438 17.5C51.9688 15.2604 52.151 13.4375 51.8906 12.0312C51.6823 10.5729 50.901 9.6875 49.5469 9.375C48.1927 9.01042 46.1094 9.42708 43.2969 10.625C42.0469 11.1979 41.1094 11.9271 40.4844 12.8125C39.8594 13.6458 39.3125 14.5573 38.8438 15.5469C38.4271 16.5365 37.9583 17.526 37.4375 18.5156C36.9688 19.5052 36.2396 20.3906 35.25 21.1719C34 20.2344 33.2708 19.1667 33.0625 17.9688C32.9062 16.7708 32.9583 15.4948 33.2188 14.1406C33.5312 12.7865 33.8698 11.4062 34.2344 10C34.651 8.54167 34.8073 7.10938 34.7031 5.70312C34.8073 5.23438 35.0417 4.89583 35.4062 4.6875C35.7708 4.47917 36.1615 4.34896 36.5781 4.29688C37.0469 4.24479 37.4896 4.27083 37.9062 4.375C38.375 4.42708 38.7396 4.47917 39 4.53125C39.1042 5.26042 39.4688 5.72917 40.0938 5.9375C40.7188 6.14583 41.5 6.25 42.4375 6.25C43.375 6.25 44.4167 6.22396 45.5625 6.17188C46.7083 6.06771 47.8542 6.09375 49 6.25C50.1979 6.35417 51.3698 6.64062 52.5156 7.10938C53.6615 7.57812 54.6771 8.35938 55.5625 9.45312C55.8229 12.6302 55.5365 15.8073 54.7031 18.9844C53.9219 22.1615 52.8542 25.2865 51.5 28.3594C50.1979 31.4323 48.7396 34.4271 47.125 37.3438C45.5104 40.2604 44.0521 43.0469 42.75 45.7031V46.9531C46.3438 47.1615 49.7292 47.0833 52.9062 46.7188C56.1354 46.3021 59.2604 45.6771 62.2812 44.8438C65.3542 44.0104 68.401 43.0469 71.4219 41.9531C74.4427 40.8073 77.5938 39.6094 80.875 38.3594C80.9792 38.3073 81.1615 38.2812 81.4219 38.2812C81.7344 38.2812 81.9427 38.3073 82.0469 38.3594C82.6719 39.401 82.4896 40.4427 81.5 41.4844C80.5625 42.526 79.1042 43.5417 77.125 44.5312C75.1458 45.4688 72.776 46.3542 70.0156 47.1875C67.3073 48.0208 64.4688 48.776 61.5 49.4531C58.5312 50.1302 55.5885 50.7031 52.6719 51.1719C49.7552 51.5885 47.125 51.901 44.7812 52.1094C42.4375 52.3177 40.5104 52.3698 39 52.2656C37.4896 52.1094 36.6823 51.7969 36.5781 51.3281Z" fill="white" fill-opacity="0.6"/>
</svg>
