<svg width="64" height="65" viewBox="0 0 64 65" fill="none" xmlns="http://www.w3.org/2000/svg">
<g clip-path="url(#clip0_2099_8073)">
<path d="M17.4373 6.69971C14.5875 6.69971 12.2773 9.00992 12.2773 11.8597C12.2773 14.7095 14.5875 17.0197 17.4373 17.0197C20.2871 17.0197 22.5973 14.7095 22.5973 11.8597C22.5973 9.00992 20.2871 6.69971 17.4373 6.69971ZM12.976 18.1664L16.6579 25.5749L20.66 18.1888C20.3619 18.1773 20.0517 18.1664 19.7306 18.1664H12.976ZM10.4767 18.2806C7.58705 18.8539 5.39728 21.4114 5.39728 24.473V38.8064C5.39728 40.0677 6.42928 41.0997 7.69061 41.0997C8.95194 41.0997 9.98394 40.0677 9.98394 38.8064V26.7328C9.98394 26.4232 10.2477 26.1594 10.5573 26.1594C10.8669 26.1594 11.1306 26.4232 11.1306 26.7328V52.9113C11.1306 54.7001 12.0943 56.0064 13.8831 56.0064C15.5801 56.0064 16.8639 54.6771 16.8639 52.9113V38.1883C16.8639 37.8672 17.1162 37.6149 17.4373 37.6149C17.7583 37.6149 18.0106 37.8672 18.0106 38.1883V53.2427C18.0106 53.2542 18.0215 53.2537 18.033 53.2651C18.1821 54.8475 19.4091 56.0064 20.9915 56.0064C22.7803 56.0064 23.7439 54.7001 23.7439 52.9113V26.9388C23.7439 26.6636 23.9505 26.434 24.2143 26.3767L26.8279 30.3094C27.642 31.5249 29.2481 31.903 30.5209 31.1806L35.2106 28.4864C36.5981 27.6493 36.5646 26.1134 36.1288 25.4025C35.4752 24.3017 34.2017 23.9449 32.8143 24.6903L29.7751 26.3991L27.1839 22.1797C26.0143 20.1157 24.7303 19.0606 23.0676 18.5561L17.93 28.0385L20.407 31.4113L18.5615 32.7752L17.2536 31.0081C16.944 31.3177 16.5191 31.5143 16.0375 31.5143C15.0858 31.5143 14.3175 30.7346 14.3175 29.7943C14.3175 29.0719 14.7664 28.452 15.397 28.1997L10.4767 18.2806ZM48.993 33.073C48.586 33.073 48.1914 33.1177 47.8083 33.1985C47.4588 33.2717 47.1169 33.3774 46.787 33.5142C46.779 33.5176 46.7703 33.5198 46.7624 33.5232L46.7601 33.5254C46.7539 33.5281 46.7484 33.5317 46.7422 33.5344C46.4241 33.6715 46.119 33.8372 45.8307 34.0293C45.812 34.0417 45.791 34.0503 45.7725 34.0629C45.4882 34.2581 45.2221 34.4784 44.9774 34.7214C44.9604 34.7381 44.9428 34.7537 44.9259 34.7706C44.6883 35.0116 44.4724 35.2732 44.2809 35.5523C44.2622 35.5793 44.2432 35.6055 44.2249 35.6329C44.0407 35.9111 43.8811 36.2048 43.7479 36.5108C43.732 36.5471 43.7138 36.5816 43.6986 36.6183C43.574 36.9228 43.4759 37.2375 43.4052 37.5589C43.3905 37.6249 43.3729 37.6892 43.3605 37.756C43.3461 37.8349 43.3334 37.914 43.3224 37.9934C43.3062 38.1068 43.2915 38.2206 43.2821 38.3361C43.2767 38.4144 43.273 38.4928 43.2709 38.5712C43.2677 38.6497 43.2597 38.7271 43.2597 38.8064C43.2597 38.8351 43.2637 38.8629 43.2642 38.8915C43.2665 38.9812 43.271 39.0708 43.2776 39.1602C43.2846 39.2743 43.2909 39.3884 43.3045 39.5006C43.3125 39.559 43.3215 39.6172 43.3313 39.6753C43.3488 39.7901 43.3698 39.9033 43.394 40.0158C43.4648 40.341 43.5637 40.6595 43.6897 40.9676C43.7047 41.0043 43.7187 41.041 43.7345 41.0773C43.8674 41.3848 44.027 41.6801 44.2115 41.9597C44.2303 41.9881 44.2482 42.0168 44.2675 42.0448C44.4549 42.317 44.6654 42.5726 44.8968 42.8085C44.9265 42.8389 44.9561 42.8684 44.9864 42.8981C45.2159 43.1231 45.4638 43.3283 45.7277 43.5117C45.772 43.5426 45.8168 43.5717 45.8621 43.6013C46.1235 43.772 46.3983 43.9211 46.684 44.047C46.7417 44.0725 46.8 44.095 46.8587 44.1187C47.1555 44.2389 47.4619 44.334 47.7747 44.4031C47.8643 44.4226 47.9545 44.4394 48.0457 44.4546C48.1216 44.4681 48.1977 44.48 48.2741 44.4904C48.3786 44.5036 48.4837 44.5121 48.5899 44.5196C48.724 44.531 48.8584 44.5377 48.993 44.5397C49.1845 44.5396 49.3758 44.5299 49.5663 44.5106C49.7584 44.4914 49.9468 44.4633 50.133 44.4255C50.1367 44.4247 50.1404 44.424 50.1442 44.4233C50.1479 44.4225 50.1516 44.4218 50.1553 44.421C50.5199 44.3453 50.8762 44.2343 51.2192 44.0896C51.2213 44.0886 51.2237 44.0882 51.2259 44.0873C52.2389 43.6568 53.1065 42.9439 53.7252 42.0336C53.7341 42.0208 53.7434 42.0085 53.7521 41.9955C53.9432 41.7093 54.1081 41.4065 54.2448 41.0908C54.2586 41.0593 54.2719 41.0284 54.2851 40.9967C54.4128 40.688 54.5132 40.3688 54.5852 40.0426C54.5987 39.982 54.6141 39.9226 54.6256 39.8612C54.641 39.7742 54.6545 39.6868 54.6659 39.5992C54.6795 39.5011 54.6931 39.4032 54.7017 39.3036C54.7098 39.1992 54.715 39.0947 54.7174 38.99C54.7193 38.9286 54.7263 38.8683 54.7263 38.8064C54.7263 38.7792 54.7222 38.7528 54.7219 38.7257C54.72 38.6264 54.7155 38.527 54.7084 38.4279C54.7021 38.3313 54.6971 38.2342 54.686 38.139C54.6746 38.0521 54.6611 37.9655 54.6457 37.8792C54.6303 37.7851 54.6141 37.6917 54.5942 37.5992C54.5219 37.27 54.4208 36.9477 54.2919 36.6362C54.2787 36.6041 54.2676 36.5717 54.2538 36.5399C54.1172 36.2234 53.9523 35.9198 53.7611 35.6329C53.7497 35.6158 53.7391 35.5983 53.7275 35.5814C53.5307 35.2937 53.308 35.0246 53.0623 34.7774C53.0481 34.763 53.0341 34.749 53.0198 34.7348C52.7769 34.4945 52.5131 34.2764 52.2314 34.0831C52.2047 34.0647 52.1779 34.0473 52.1508 34.0293C51.8746 33.847 51.5831 33.6889 51.2796 33.5568C51.235 33.5373 51.1904 33.5192 51.1452 33.5008C50.84 33.3761 50.5245 33.2779 50.2024 33.2074C50.1214 33.1899 50.0404 33.1744 49.9583 33.1604C49.8749 33.1458 49.7913 33.1332 49.7074 33.1223C49.6059 33.1096 49.5037 33.1005 49.4006 33.0932C49.265 33.0816 49.1291 33.0749 48.993 33.073ZM36.3797 37.6597C33.2149 37.6597 30.6463 40.2282 30.6463 43.393C30.6463 43.9205 30.7172 44.4317 30.8501 44.916C31.249 46.3688 32.2066 47.5876 33.4794 48.3358C34.3279 48.8403 35.3247 49.1264 36.3797 49.1264C37.4346 49.1264 38.409 48.8401 39.2575 48.347C40.9661 47.3494 42.113 45.5029 42.113 43.393C42.113 40.2282 39.533 37.6597 36.3797 37.6597ZM48.9706 45.6864C46.0466 45.6864 43.3511 47.004 41.5509 49.1712C42.2618 49.5152 42.9274 49.9169 43.5351 50.3985L44.7288 51.4197C45.4283 52.0962 46.0359 52.8645 46.5519 53.713H58.6031L58.0857 52.1991C56.7441 48.3004 53.0871 45.6864 48.9706 45.6864ZM36.3573 50.273C32.2407 50.273 28.5838 52.8871 27.2422 56.7858L26.7248 58.2997H45.9897L45.4724 56.7858C45.071 55.6391 44.4868 54.6074 43.73 53.713C42.8012 52.6008 41.6313 51.7181 40.3012 51.1218C39.0972 50.5714 37.7562 50.273 36.3573 50.273Z" fill="white" fill-opacity="0.6"/>
</g>
<defs>
<clipPath id="clip0_2099_8073">
<rect width="64" height="64" fill="white" transform="translate(0 0.5)"/>
</clipPath>
</defs>
</svg>
