<svg width="41" height="54" viewBox="0 0 41 54" fill="none" xmlns="http://www.w3.org/2000/svg">
<path d="M9.46875 51.875C7.69792 51.3542 6.1875 50.0781 4.9375 48.0469C3.73958 46.0156 2.77604 43.5938 2.04688 40.7812C1.31771 37.9167 0.796875 34.8438 0.484375 31.5625C0.223958 28.2812 0.119792 25.1302 0.171875 22.1094C0.223958 19.0885 0.40625 16.3802 0.71875 13.9844C1.08333 11.5885 1.52604 9.86979 2.04688 8.82812C2.20312 8.51562 2.46354 8.33333 2.82812 8.28125C3.24479 8.17708 3.66146 8.17708 4.07812 8.28125C4.49479 8.33333 4.85938 8.46354 5.17188 8.67188C5.53646 8.88021 5.74479 9.14062 5.79688 9.45312C6.05729 11.1198 6.05729 13.0469 5.79688 15.2344C5.53646 17.3698 5.22396 19.6615 4.85938 22.1094C4.54688 24.5052 4.26042 26.9531 4 29.4531C3.73958 31.901 3.73958 34.2448 4 36.4844C4.26042 38.724 4.88542 40.7552 5.875 42.5781C6.91667 44.401 8.53125 45.8594 10.7188 46.9531C12.4375 47.8385 14.0521 47.9688 15.5625 47.3438C17.125 46.6667 18.5312 45.5208 19.7812 43.9062C21.0833 42.2396 22.1771 40.2083 23.0625 37.8125C24 35.4167 24.7031 32.8646 25.1719 30.1562C25.6927 27.3958 25.9531 24.6354 25.9531 21.875C25.9531 19.0625 25.6406 16.4844 25.0156 14.1406C24.4427 11.7448 23.5312 9.6875 22.2812 7.96875C21.0833 6.25 19.4948 5.10417 17.5156 4.53125C15.4844 3.90625 13.8438 3.95833 12.5938 4.6875C11.3958 5.36458 10.1458 6.53646 8.84375 8.20312C8.375 8.46354 8.08854 8.4375 7.98438 8.125C7.88021 7.8125 7.93229 7.36979 8.14062 6.79688C8.34896 6.17188 8.6875 5.49479 9.15625 4.76562C9.67708 4.03646 10.3021 3.35938 11.0312 2.73438C11.8125 2.10938 12.6719 1.61458 13.6094 1.25C14.599 0.833333 15.6667 0.677083 16.8125 0.78125C19.3646 1.04167 21.5 2.05729 23.2188 3.82812C24.9896 5.59896 26.3438 7.83854 27.2812 10.5469C28.2708 13.2031 28.8698 16.1719 29.0781 19.4531C29.3385 22.7344 29.2344 26.0417 28.7656 29.375C28.349 32.7083 27.5938 35.9115 26.5 38.9844C25.4062 42.0052 24.026 44.6094 22.3594 46.7969C20.7448 48.9323 18.8438 50.5208 16.6562 51.5625C14.5208 52.5521 12.125 52.6562 9.46875 51.875ZM35.875 50.625C35.3021 43.8021 34.7812 37.1354 34.3125 30.625C33.8438 24.0625 33.375 17.3958 32.9062 10.625C32.8542 10.0521 32.9323 9.53125 33.1406 9.0625C33.401 8.54167 33.6875 8.17708 34 7.96875C34.3646 7.70833 34.7812 7.63021 35.25 7.73438C35.7188 7.83854 36.1615 8.20312 36.5781 8.82812C36.526 11.276 36.6823 14.2188 37.0469 17.6562C37.4635 21.0417 37.9062 24.5312 38.375 28.125C38.8958 31.7188 39.3385 35.1823 39.7031 38.5156C40.1198 41.849 40.3021 44.6615 40.25 46.9531C40.25 49.2448 39.9115 50.8073 39.2344 51.6406C38.6094 52.4219 37.4896 52.0833 35.875 50.625Z" fill="white" fill-opacity="0.6"/>
</svg>
