<svg width="65" height="54" viewBox="0 0 65 54" fill="none" xmlns="http://www.w3.org/2000/svg">
<path d="M9.46875 51.875C7.69792 51.3542 6.1875 50.0781 4.9375 48.0469C3.73958 46.0156 2.77604 43.5938 2.04688 40.7812C1.31771 37.9167 0.796875 34.8438 0.484375 31.5625C0.223958 28.2812 0.119792 25.1302 0.171875 22.1094C0.223958 19.0885 0.40625 16.3802 0.71875 13.9844C1.08333 11.5885 1.52604 9.86979 2.04688 8.82812C2.20312 8.51562 2.46354 8.33333 2.82812 8.28125C3.24479 8.17708 3.66146 8.17708 4.07812 8.28125C4.49479 8.33333 4.85938 8.46354 5.17188 8.67188C5.53646 8.88021 5.74479 9.14062 5.79688 9.45312C6.05729 11.1198 6.05729 13.0469 5.79688 15.2344C5.53646 17.3698 5.22396 19.6615 4.85938 22.1094C4.54688 24.5052 4.26042 26.9531 4 29.4531C3.73958 31.901 3.73958 34.2448 4 36.4844C4.26042 38.724 4.88542 40.7552 5.875 42.5781C6.91667 44.401 8.53125 45.8594 10.7188 46.9531C12.4375 47.8385 14.0521 47.9688 15.5625 47.3438C17.125 46.6667 18.5312 45.5208 19.7812 43.9062C21.0833 42.2396 22.1771 40.2083 23.0625 37.8125C24 35.4167 24.7031 32.8646 25.1719 30.1562C25.6927 27.3958 25.9531 24.6354 25.9531 21.875C25.9531 19.0625 25.6406 16.4844 25.0156 14.1406C24.4427 11.7448 23.5312 9.6875 22.2812 7.96875C21.0833 6.25 19.4948 5.10417 17.5156 4.53125C15.4844 3.90625 13.8438 3.95833 12.5938 4.6875C11.3958 5.36458 10.1458 6.53646 8.84375 8.20312C8.375 8.46354 8.08854 8.4375 7.98438 8.125C7.88021 7.8125 7.93229 7.36979 8.14062 6.79688C8.34896 6.17188 8.6875 5.49479 9.15625 4.76562C9.67708 4.03646 10.3021 3.35938 11.0312 2.73438C11.8125 2.10938 12.6719 1.61458 13.6094 1.25C14.599 0.833333 15.6667 0.677083 16.8125 0.78125C19.3646 1.04167 21.5 2.05729 23.2188 3.82812C24.9896 5.59896 26.3438 7.83854 27.2812 10.5469C28.2708 13.2031 28.8698 16.1719 29.0781 19.4531C29.3385 22.7344 29.2344 26.0417 28.7656 29.375C28.349 32.7083 27.5938 35.9115 26.5 38.9844C25.4062 42.0052 24.026 44.6094 22.3594 46.7969C20.7448 48.9323 18.8438 50.5208 16.6562 51.5625C14.5208 52.5521 12.125 52.6562 9.46875 51.875ZM42.0469 51.875C40.849 51.6146 39.9635 51.0938 39.3906 50.3125C38.8177 49.4792 38.4792 48.5677 38.375 47.5781C38.3229 46.5885 38.4271 45.5729 38.6875 44.5312C39 43.4896 39.4167 42.5781 39.9375 41.7969C40.5104 41.0156 41.1354 40.4688 41.8125 40.1562C42.5417 39.7917 43.2448 39.7917 43.9219 40.1562C44.1823 40.7812 44.1823 41.3802 43.9219 41.9531C43.6615 42.474 43.375 43.0208 43.0625 43.5938C42.75 44.1146 42.4896 44.6615 42.2812 45.2344C42.125 45.7552 42.2812 46.3281 42.75 46.9531C43.5312 48.151 44.5469 48.8281 45.7969 48.9844C47.099 49.0885 48.4531 48.8281 49.8594 48.2031C51.2656 47.5781 52.6719 46.6927 54.0781 45.5469C55.5365 44.349 56.8125 43.0469 57.9062 41.6406C59 40.2344 59.8594 38.8021 60.4844 37.3438C61.1094 35.8854 61.3438 34.5833 61.1875 33.4375C60.9792 31.875 60.3281 30.6771 59.2344 29.8438C58.1406 29.0104 56.8646 28.4635 55.4062 28.2031C53.9479 27.8906 52.4635 27.8385 50.9531 28.0469C49.4427 28.2552 48.1406 28.6198 47.0469 29.1406C46.4219 29.4531 45.875 29.8698 45.4062 30.3906C44.9896 30.9115 44.599 31.4844 44.2344 32.1094C43.8698 32.7344 43.4792 33.3333 43.0625 33.9062C42.6458 34.4792 42.125 34.9479 41.5 35.3125C40.7188 35.7292 40.0938 35.7812 39.625 35.4688C39.2083 35.1042 38.8958 34.6094 38.6875 33.9844C38.4792 33.3594 38.401 32.7083 38.4531 32.0312C38.5573 31.3021 38.7396 30.7292 39 30.3125C39.5208 29.5833 40.25 28.6198 41.1875 27.4219C42.125 26.224 43.0885 24.9219 44.0781 23.5156C45.0677 22.0573 46.0052 20.5469 46.8906 18.9844C47.8281 17.4219 48.5573 15.9115 49.0781 14.4531C49.651 12.9427 49.9375 11.5365 49.9375 10.2344C49.9896 8.93229 49.625 7.83854 48.8438 6.95312C47.1771 6.58854 45.7188 6.69271 44.4688 7.26562C43.2708 7.78646 42.2031 8.56771 41.2656 9.60938C40.3281 10.599 39.5208 11.7708 38.8438 13.125C38.2188 14.4271 37.6719 15.651 37.2031 16.7969C36.9948 17.2656 36.8125 17.7083 36.6562 18.125C36.5521 18.4896 36.3958 18.776 36.1875 18.9844C35.9792 19.1927 35.6667 19.349 35.25 19.4531C34.8333 19.5052 34.2604 19.4531 33.5312 19.2969C33.2188 19.2448 33.0625 18.8281 33.0625 18.0469C33.0625 17.2135 33.1406 16.1979 33.2969 15C33.4531 13.8021 33.6615 12.526 33.9219 11.1719C34.2344 9.76562 34.5208 8.46354 34.7812 7.26562C35.0938 6.06771 35.3542 5.05208 35.5625 4.21875C35.7708 3.33333 35.875 2.8125 35.875 2.65625C36.6562 1.82292 37.3073 1.38021 37.8281 1.32812C38.401 1.22396 38.8438 1.38021 39.1562 1.79688C39.4688 2.16146 39.651 2.70833 39.7031 3.4375C39.8073 4.16667 39.8073 4.92188 39.7031 5.70312C40.276 5.23438 40.9792 4.76562 41.8125 4.29688C42.6979 3.77604 43.6094 3.35938 44.5469 3.04688C45.5365 2.68229 46.5 2.44792 47.4375 2.34375C48.4271 2.23958 49.3125 2.34375 50.0938 2.65625C51.2917 3.125 52.125 3.88021 52.5938 4.92188C53.0625 5.91146 53.2708 7.05729 53.2188 8.35938C53.2188 9.60938 53.0365 10.9375 52.6719 12.3438C52.3073 13.75 51.8646 15.1042 51.3438 16.4062C50.875 17.7083 50.3802 18.9062 49.8594 20C49.3906 21.0417 49.0521 21.8229 48.8438 22.3438V23.5156C52.5417 23.6719 55.5365 24.2448 57.8281 25.2344C60.1198 26.224 61.8385 27.474 62.9844 28.9844C64.1302 30.4948 64.7292 32.1875 64.7812 34.0625C64.8333 35.9375 64.4688 37.8125 63.6875 39.6875C62.9583 41.5625 61.8646 43.3594 60.4062 45.0781C59 46.7448 57.3333 48.1771 55.4062 49.375C53.4792 50.5729 51.3698 51.4323 49.0781 51.9531C46.7865 52.4219 44.4427 52.3958 42.0469 51.875Z" fill="white" fill-opacity="0.6"/>
</svg>
