<svg width="20" height="20" viewBox="0 0 20 20" fill="none" xmlns="http://www.w3.org/2000/svg">
<path d="M7.54265 9.66061L7.19572 10.0001L7.54262 10.3396L14.2394 16.8936C14.2395 16.8937 14.2395 16.8938 14.2396 16.8938C14.5369 17.1862 14.5541 17.6841 14.2746 17.9979L14.2739 17.9987C14.1332 18.1574 13.9476 18.2332 13.7624 18.2332C13.5936 18.2332 13.4224 18.1697 13.2833 18.0338L6.51425 11.409C6.51414 11.4089 6.51403 11.4088 6.51392 11.4086C6.13402 11.0356 5.92501 10.5385 5.92501 10.0001C5.92501 9.46171 6.13405 8.96474 6.51493 8.59176C6.51496 8.59173 6.51498 8.5917 6.51501 8.59168L13.2848 1.96617L13.2854 1.96553C13.5681 1.68781 14.0085 1.7015 14.2754 2.00189L14.2758 2.00235C14.5555 2.31635 14.5377 2.81515 14.2413 3.10593C14.2412 3.10602 14.2411 3.1061 14.241 3.10619L7.54265 9.66061Z" fill="white" stroke="white" stroke-width="0.95"/>
</svg>
