<svg width="20" height="20" viewBox="0 0 20 20" fill="none" xmlns="http://www.w3.org/2000/svg">
<path d="M12.4573 9.66061L12.8043 10.0001L12.4574 10.3396L5.76063 16.8936C5.76055 16.8937 5.76046 16.8938 5.76038 16.8938C5.46311 17.1862 5.44594 17.6841 5.7254 17.9979L5.72612 17.9987C5.86685 18.1574 6.05237 18.2332 6.23758 18.2332C6.40638 18.2332 6.57761 18.1697 6.71668 18.0338L13.4857 11.409C13.4859 11.4089 13.486 11.4088 13.4861 11.4086C13.866 11.0356 14.075 10.5385 14.075 10.0001C14.075 9.46171 13.8659 8.96474 13.4851 8.59176C13.485 8.59173 13.485 8.5917 13.485 8.59168L6.71521 1.96617L6.71456 1.96553C6.43187 1.68781 5.9915 1.7015 5.72463 2.00189L5.72421 2.00235C5.44452 2.31635 5.46231 2.81515 5.75873 3.10593C5.75882 3.10602 5.75891 3.1061 5.75899 3.10619L12.4573 9.66061Z" fill="white" stroke="white" stroke-width="0.95"/>
</svg>
