<svg width="48" height="25" viewBox="0 0 48 25" fill="none" xmlns="http://www.w3.org/2000/svg">
<g clip-path="url(#clip0_6034_96)">
<path d="M13.25 22.5C13.0275 22.5 12.8062 22.4412 12.6062 22.3213L12.57 22.2988C12.0063 21.96 11.8013 21.2425 12.1013 20.6575C12.1075 20.645 12.7175 19.4125 13.0413 17.4275C12.6988 17.475 12.35 17.5 12 17.5C7.86375 17.5 4.5 14.1362 4.5 10C4.5 5.86375 7.86375 2.5 12 2.5C16.1362 2.5 19.5 5.86375 19.5 10C19.5 17.9225 14.2362 22.0675 14.0125 22.24C13.7887 22.4125 13.52 22.5 13.25 22.5Z" fill="white"/>
</g>
<g clip-path="url(#clip1_6034_96)">
<path d="M37.25 22.5C37.0275 22.5 36.8062 22.4412 36.6062 22.3213L36.57 22.2988C36.0063 21.96 35.8013 21.2425 36.1013 20.6575C36.1075 20.645 36.7175 19.4125 37.0413 17.4275C36.6988 17.475 36.35 17.5 36 17.5C31.8637 17.5 28.5 14.1362 28.5 10C28.5 5.86375 31.8637 2.5 36 2.5C40.1362 2.5 43.5 5.86375 43.5 10C43.5 17.9225 38.2362 22.0675 38.0125 22.24C37.7887 22.4125 37.52 22.5 37.25 22.5Z" fill="white"/>
</g>
<defs>
<clipPath id="clip0_6034_96">
<rect width="24" height="24" fill="white" transform="translate(0 0.5)"/>
</clipPath>
<clipPath id="clip1_6034_96">
<rect width="24" height="24" fill="white" transform="translate(24 0.5)"/>
</clipPath>
</defs>
</svg>
