<svg width="40" height="40" viewBox="0 0 40 40" fill="none" xmlns="http://www.w3.org/2000/svg">
<g clip-path="url(#clip0_2024_375)">
<path d="M39.2036 10.3092C38.9774 9.4582 38.5317 8.68155 37.9111 8.05694C37.2905 7.43233 36.5167 6.98168 35.6672 6.75009C32.5399 5.90918 20.0399 5.90918 20.0399 5.90918C20.0399 5.90918 7.53992 5.90918 4.41264 6.75009C3.56313 6.98168 2.78935 7.43233 2.16873 8.05694C1.54811 8.68155 1.10243 9.4582 0.876281 10.3092C0.0399171 13.4501 0.039917 20.0001 0.039917 20.0001C0.039917 20.0001 0.0399171 26.5501 0.876281 29.691C1.10243 30.542 1.54811 31.3186 2.16873 31.9432C2.78935 32.5678 3.56313 33.0185 4.41264 33.2501C7.53992 34.091 20.0399 34.091 20.0399 34.091C20.0399 34.091 32.5399 34.091 35.6672 33.2501C36.5167 33.0185 37.2905 32.5678 37.9111 31.9432C38.5317 31.3186 38.9774 30.542 39.2036 29.691C40.0399 26.5501 40.0399 20.0001 40.0399 20.0001C40.0399 20.0001 40.0399 13.4501 39.2036 10.3092Z" fill="#FF0302"/>
<path d="M15.9489 25.9477V14.0522L26.4034 20L15.9489 25.9477Z" fill="#FEFEFE"/>
</g>
<defs>
<clipPath id="clip0_2024_375">
<rect width="40" height="40" fill="white"/>
</clipPath>
</defs>
</svg>
