<svg width="40" height="40" viewBox="0 0 40 40" fill="none" xmlns="http://www.w3.org/2000/svg">
<g clip-path="url(#clip0_2024_377)">
<path d="M39.6104 20.4609C39.6104 19.1014 39.5002 17.7345 39.265 16.397H20.4004V24.0986H31.2033C30.755 26.5825 29.3146 28.7798 27.2055 30.1761V35.1734H33.6505C37.4351 31.69 39.6104 26.5458 39.6104 20.4609Z" fill="#4285F4"/>
<path d="M20.4002 40.0015C25.7943 40.0015 30.3433 38.2305 33.6576 35.1733L27.2126 30.1761C25.4195 31.396 23.1046 32.0868 20.4076 32.0868C15.1898 32.0868 10.7658 28.5667 9.17845 23.834H2.52771V28.9856C5.9229 35.7392 12.8382 40.0015 20.4002 40.0015Z" fill="#34A853"/>
<path d="M9.17129 23.834C8.33352 21.3501 8.33352 18.6604 9.17129 16.1765V11.0249H2.52789C-0.308777 16.6762 -0.308777 23.3343 2.52789 28.9856L9.17129 23.834Z" fill="#FBBC04"/>
<path d="M20.4002 7.9161C23.2516 7.87201 26.0074 8.94494 28.0724 10.9144L33.7825 5.20436C30.1669 1.80917 25.3681 -0.0574433 20.4002 0.00134778C12.8382 0.00134778 5.9229 4.2637 2.52771 11.0247L9.17111 16.1763C10.7511 11.4362 15.1825 7.9161 20.4002 7.9161Z" fill="#EA4335"/>
</g>
<defs>
<clipPath id="clip0_2024_377">
<rect width="40" height="40" fill="white"/>
</clipPath>
</defs>
</svg>
