<svg width="40" height="40" viewBox="0 0 40 40" fill="none" xmlns="http://www.w3.org/2000/svg">
<path fill-rule="evenodd" clip-rule="evenodd" d="M34 5.75C30.25 2 25.25 0 20 0C9 0 0 9 0 20C0 23.5 1.00002 27 2.75002 30L0 40L10.5 37.25C13.5 38.75 16.75 39.75 20 39.75C31 39.75 40 30.75 40 19.75C40 14.5 37.75 9.5 34 5.75ZM20 36.5C17 36.5 14 35.75 11.5 34.25L11 34L4.74998 35.75L6.50002 29.75L5.99998 29C4.24998 26.25 3.49998 23.25 3.49998 20.25C3.49998 11.25 11 3.75 20 3.75C24.5 3.75 28.5 5.5 31.75 8.5C35 11.75 36.5 15.75 36.5 20.25C36.5 29 29.25 36.5 20 36.5ZM29 24C28.5 23.75 26 22.5 25.5 22.5C25 22.25 24.75 22.25 24.5 22.75C24.25 23.25 23.25 24.25 23 24.75C22.75 25 22.5 25 22 25C21.5 24.75 20 24.25 18 22.5C16.5 21.25 15.5 19.5 15.25 19C15 18.5 15.25 18.25 15.5 18C15.75 17.75 16 17.5 16.25 17.25C16.5 17 16.5 16.75 16.75 16.5C17 16.25 16.75 16 16.75 15.75C16.75 15.5 15.75 13 15.25 12C15 11.25 14.5 11.25 14.25 11.25C14 11.25 13.75 11.25 13.25 11.25C13 11.25 12.5 11.25 12 11.75C11.5 12.25 10.25 13.5 10.25 16C10.25 18.5 12 20.75 12.25 21.25C12.5 21.5 15.75 26.75 20.75 28.75C25 30.5 25.75 30 26.75 30C27.75 30 29.75 28.75 30 27.75C30.5 26.5 30.5 25.5 30.25 25.5C30 24.25 29.5 24.25 29 24Z" fill="#25D366"/>
</svg>
