<svg width="24" height="25" viewBox="0 0 24 25" fill="none" xmlns="http://www.w3.org/2000/svg">
<g clip-path="url(#clip0_6036_683)">
<path d="M10 2.10001C5.59356 2.10001 2 5.69357 2 10.1C2 12.304 2.89952 14.3032 4.34766 15.7523L2 18.1H8V12.1L5.75781 14.3422C4.67299 13.2583 4 11.7623 4 10.1C4 6.77444 6.67444 4.10001 10 4.10001C13.3256 4.10001 16 6.77444 16 10.1C16 13.4256 13.3256 16.1 10 16.1V18.1C11.9496 18.1 13.7384 17.395 15.1289 16.2289L15.998 17.0981L16 18.1L20 22.1L22 20.1L18 16.1L16.9961 16.0961L16.1289 15.2289C17.295 13.8384 18 12.0496 18 10.1C18 5.69357 14.4064 2.10001 10 2.10001Z" fill="white"/>
</g>
<defs>
<clipPath id="clip0_6036_683">
<rect width="24" height="24" fill="white" transform="translate(0 0.100006)"/>
</clipPath>
</defs>
</svg>
