<svg width="24" height="25" viewBox="0 0 24 25" fill="none" xmlns="http://www.w3.org/2000/svg">
<g clip-path="url(#clip0_6036_750)">
<path d="M21.9204 10.0882L12.2604 2.5282C12.105 2.4106 11.895 2.4106 11.7396 2.5282L2.07959 10.0882C1.89899 10.231 1.86539 10.4956 2.00819 10.6804C2.15099 10.861 2.41559 10.8946 2.60039 10.7518L3.17999 10.294V21.34C3.17999 21.571 3.36899 21.76 3.59999 21.76H20.4C20.631 21.76 20.82 21.571 20.82 21.34V10.294L21.3996 10.7518C21.4794 10.8106 21.5676 10.84 21.66 10.84C21.786 10.84 21.9078 10.7854 21.9918 10.6804C22.1346 10.4956 22.101 10.231 21.9204 10.0882ZM12 7.48C12.693 7.48 13.26 8.047 13.26 8.74C13.26 9.433 12.693 10 12 10C11.307 10 10.74 9.433 10.74 8.74C10.74 8.047 11.307 7.48 12 7.48ZM14.52 15.8002L13.7346 16.2244L13.4196 20.08H10.5804L10.2654 16.2244L9.47999 15.8002V13.528C9.47999 11.8144 10.6098 10.84 12 10.84C13.3902 10.84 14.52 11.8144 14.52 13.528V15.8002Z" fill="white"/>
</g>
<defs>
<clipPath id="clip0_6036_750">
<rect width="24" height="24" fill="white" transform="translate(0 0.0999985)"/>
</clipPath>
</defs>
</svg>
