<svg width="24" height="25" viewBox="0 0 24 25" fill="none" xmlns="http://www.w3.org/2000/svg">
<g clip-path="url(#clip0_6036_787)">
<path d="M18.3111 2.83501C17.1071 2.83501 16.1311 3.81103 16.1311 5.01501C16.1311 6.21899 17.1071 7.19501 18.3111 7.19501C19.5151 7.19501 20.4911 6.21899 20.4911 5.01501C20.4911 3.81103 19.5151 2.83501 18.3111 2.83501ZM9.60173 3.79089L4.74357 6.21997L5.71861 8.17005L9.58045 6.23913L11.8286 7.41216L9.34627 9.7795C8.53782 10.5504 8.32371 11.6702 8.64798 12.6301L1.96109 19.8237L3.50242 21.365L10.4128 14.4546L12.5716 15.7958L8.82468 19.5001L10.3575 21.0499L15.5393 15.9278L12.9037 12.6046L15.007 10.6396L16.7208 14.0671L22.0282 11.6849L21.134 9.69434L17.7342 11.2229L15.5797 6.91399L9.60173 3.79089Z" fill="white"/>
</g>
<defs>
<clipPath id="clip0_6036_787">
<rect width="24" height="24" fill="white" transform="translate(0 0.100006)"/>
</clipPath>
</defs>
</svg>
