<svg width="24" height="25" viewBox="0 0 24 25" fill="none" xmlns="http://www.w3.org/2000/svg">
<g clip-path="url(#clip0_6036_798)">
<path d="M9 15.1L8 12.1L12 10.1L16 11.1H19.5" stroke="white" stroke-width="2" stroke-linecap="round" stroke-linejoin="round"/>
<path d="M4 20.1C4.55228 20.1 5 19.6523 5 19.1C5 18.5477 4.55228 18.1 4 18.1C3.44772 18.1 3 18.5477 3 19.1C3 19.6523 3.44772 20.1 4 20.1Z" stroke="white" stroke-width="2" stroke-linecap="round" stroke-linejoin="round"/>
<path d="M12 7.10001C12.5523 7.10001 13 6.65229 13 6.10001C13 5.54772 12.5523 5.10001 12 5.10001C11.4477 5.10001 11 5.54772 11 6.10001C11 6.65229 11.4477 7.10001 12 7.10001Z" stroke="white" stroke-width="2" stroke-linecap="round" stroke-linejoin="round"/>
<path d="M12 17.1V10.1" stroke="white" stroke-width="2" stroke-linecap="round" stroke-linejoin="round"/>
<path d="M8 20.1H15L16 16.1L20 14.1" stroke="white" stroke-width="2" stroke-linecap="round" stroke-linejoin="round"/>
<path d="M18 20.1H21" stroke="white" stroke-width="2" stroke-linecap="round" stroke-linejoin="round"/>
</g>
<defs>
<clipPath id="clip0_6036_798">
<rect width="24" height="24" fill="white" transform="translate(0 0.100006)"/>
</clipPath>
</defs>
</svg>
