<svg width="24" height="25" viewBox="0 0 24 25" fill="none" xmlns="http://www.w3.org/2000/svg">
<g clip-path="url(#clip0_6036_672)">
<path d="M16.3 3.46985C14.6247 3.46985 13.0574 4.21289 12 5.48311C10.9426 4.21289 9.37527 3.46985 7.69999 3.46985C4.61775 3.46985 2.10999 5.96858 2.10999 9.03921C2.10999 14.0091 6.48309 16.925 9.67627 19.0543C10.495 19.6004 11.2023 20.0717 11.7256 20.506L12 20.7339L12.2748 20.506C12.7981 20.0717 13.505 19.6004 14.3241 19.0543C17.5169 16.925 21.89 14.0091 21.89 9.03921C21.89 5.96858 19.3822 3.46985 16.3 3.46985ZM3.35785 7.17129C3.53501 6.76494 3.76893 6.38525 4.05316 6.04254C4.20538 5.85979 4.47628 5.83485 4.6586 5.98621C4.84135 6.138 4.86629 6.4089 4.71493 6.59165C4.4823 6.87158 4.29095 7.18247 4.14647 7.51443C4.07595 7.67611 3.91771 7.77286 3.75216 7.77286C3.69497 7.77286 3.63649 7.76168 3.58059 7.73717C3.36258 7.64257 3.26325 7.38887 3.35785 7.17129ZM3.65154 10.9248C3.62058 10.9316 3.58919 10.9346 3.55823 10.9346C3.36129 10.9346 3.18327 10.7983 3.13855 10.5975C3.04696 10.183 2.99192 9.75516 2.97558 9.32516C2.96655 9.0878 3.15145 8.88828 3.38838 8.87925C3.63864 8.8685 3.82569 9.05512 3.83472 9.29248C3.84934 9.67088 3.8975 10.0476 3.97834 10.4122C4.02994 10.644 3.88374 10.8732 3.65154 10.9248ZM5.18793 13.7365C5.11053 13.7946 5.02023 13.8221 4.93079 13.8221C4.79964 13.8221 4.67064 13.7623 4.58636 13.6501C4.32578 13.3018 4.09401 12.944 3.89707 12.5867C3.78226 12.3786 3.85837 12.1167 4.06649 12.0028C4.27504 11.8888 4.53605 11.9641 4.65043 12.1722C4.82802 12.4951 5.03786 12.8189 5.27436 13.1345C5.41669 13.3246 5.37799 13.5942 5.18793 13.7365ZM5.58525 5.28875C5.49065 5.07074 5.58998 4.81747 5.80799 4.72287C6.2152 4.54571 6.64477 4.42703 7.08509 4.36984C7.32073 4.33716 7.53616 4.50486 7.56712 4.7405C7.59808 4.97614 7.43167 5.192 7.19603 5.2221C6.83612 5.26897 6.48438 5.36615 6.15156 5.51149C6.09566 5.536 6.03718 5.54718 5.97999 5.54718C5.81401 5.54718 5.65577 5.45043 5.58525 5.28875ZM7.5181 15.9566C7.43296 16.0598 7.30998 16.1136 7.18571 16.1136C7.08939 16.1136 6.99307 16.0817 6.91309 16.0155C6.57253 15.736 6.26809 15.4686 5.98214 15.1981C5.80971 15.0347 5.80197 14.7625 5.96494 14.5901C6.12877 14.4176 6.40096 14.4108 6.57296 14.5733C6.84429 14.83 7.13411 15.0841 7.45876 15.3516C7.64237 15.5021 7.66903 15.773 7.5181 15.9566ZM11.3124 6.67292C11.4947 6.52113 11.7656 6.54564 11.9179 6.72839L12 6.82729L12.0821 6.72882C12.2343 6.5465 12.5048 6.52199 12.6876 6.67335C12.8699 6.82514 12.8948 7.09604 12.743 7.27879L12.3307 7.77458C12.249 7.87305 12.1277 7.92938 12 7.92938C11.8723 7.92938 11.751 7.87262 11.6693 7.77458L11.2569 7.27879C11.1047 7.09604 11.1301 6.82471 11.3124 6.67292ZM10.1497 17.8198C10.0667 17.9432 9.93083 18.0099 9.79194 18.0099C9.70981 18.0099 9.62639 17.9862 9.55286 17.9368C9.2209 17.714 8.88421 17.4848 8.54752 17.2475C8.35316 17.1112 8.30672 16.8428 8.44346 16.6485C8.5802 16.4537 8.84766 16.4077 9.04288 16.5444C9.37441 16.7775 9.70594 17.0032 10.0323 17.2225C10.2292 17.3554 10.2821 17.6224 10.1497 17.8198ZM10.547 5.80432C10.4632 5.92171 10.3307 5.98492 10.1961 5.98492C10.1097 5.98492 10.0228 5.95869 9.94717 5.90494C9.65176 5.69467 9.32797 5.5274 8.9844 5.40743C8.76037 5.32874 8.64212 5.08364 8.72038 4.85961C8.79864 4.63558 9.04417 4.5169 9.2682 4.59559C9.68831 4.74265 10.0843 4.94733 10.446 5.2049C10.639 5.34207 10.6842 5.61082 10.547 5.80432ZM12.7701 19.0659C12.5899 19.1906 12.4184 19.3123 12.2554 19.4327C12.1797 19.4886 12.0899 19.5166 12.0004 19.5166C11.911 19.5166 11.8211 19.4886 11.7454 19.4327C11.5825 19.3128 11.4109 19.1906 11.2307 19.0659C11.0355 18.9309 10.9869 18.6626 11.1219 18.4674C11.2569 18.2722 11.5253 18.224 11.7205 18.3586C11.8164 18.4248 11.9097 18.4906 12.0008 18.5555C12.092 18.4906 12.1853 18.4248 12.2812 18.3586C12.4764 18.2236 12.7439 18.2722 12.8798 18.4674C13.0139 18.6626 12.9653 18.9305 12.7701 19.0659ZM13.5643 5.19759C13.9264 4.94131 14.3233 4.73749 14.7434 4.59172C14.9678 4.51217 15.2125 4.63257 15.2908 4.8566C15.3686 5.08063 15.2499 5.32616 15.0255 5.40356C14.6815 5.5231 14.3572 5.68994 14.0614 5.89935C13.9857 5.95267 13.8993 5.97847 13.8133 5.97847C13.6787 5.97847 13.5458 5.91569 13.462 5.79701C13.3248 5.60308 13.3704 5.33476 13.5643 5.19759ZM15.4408 17.2565C15.1042 17.493 14.7675 17.7222 14.4359 17.9454C14.3624 17.9948 14.279 18.0185 14.1964 18.0185C14.058 18.0185 13.9221 17.9518 13.8391 17.8284C13.7067 17.6315 13.7591 17.3644 13.9561 17.2316C14.2829 17.0118 14.6148 16.7861 14.9468 16.553C15.1416 16.4163 15.409 16.4636 15.5458 16.6579C15.6821 16.8514 15.6356 17.1198 15.4408 17.2565ZM19.3487 5.99395C19.5314 5.84216 19.8028 5.86839 19.9541 6.05157C20.2375 6.39471 20.4706 6.77526 20.6469 7.18247C20.741 7.40048 20.6408 7.65332 20.4228 7.74749C20.3674 7.77157 20.3093 7.78275 20.2525 7.78275C20.0861 7.78275 19.9279 7.68557 19.8578 7.52303C19.7142 7.19064 19.5237 6.87975 19.2915 6.59896C19.1397 6.41621 19.1659 6.14531 19.3487 5.99395ZM18.0079 15.2076C17.7224 15.4767 17.409 15.7519 17.0757 16.0246C16.9957 16.0899 16.8994 16.1222 16.8035 16.1222C16.6792 16.1222 16.5558 16.0684 16.4707 15.9648C16.3202 15.7812 16.3469 15.5098 16.5309 15.3598C16.8487 15.0996 17.1471 14.8378 17.418 14.5819C17.5904 14.4194 17.8626 14.4271 18.026 14.5995C18.1894 14.772 18.1808 15.0442 18.0079 15.2076ZM18.4242 5.29434C18.3532 5.45559 18.1959 5.55148 18.0303 5.55148C17.9727 5.55148 17.9138 5.53987 17.8574 5.51536C17.5255 5.36916 17.1746 5.27112 16.8138 5.22296C16.5786 5.192 16.4131 4.97571 16.4445 4.74007C16.4759 4.50443 16.6904 4.33888 16.9274 4.3707C17.3681 4.42961 17.7977 4.54958 18.2036 4.7276C18.4207 4.82306 18.5196 5.07676 18.4242 5.29434ZM20.0973 12.5975C19.8999 12.9552 19.6673 13.313 19.4067 13.6604C19.322 13.7731 19.193 13.832 19.0623 13.832C18.9724 13.832 18.8821 13.804 18.8043 13.746C18.6147 13.6032 18.576 13.3336 18.7187 13.144C18.9557 12.8288 19.1664 12.505 19.3444 12.1821C19.4592 11.9744 19.7206 11.8996 19.9288 12.0131C20.1364 12.1279 20.2121 12.3893 20.0973 12.5975ZM20.4392 10.9463C20.4082 10.9463 20.3768 10.9428 20.345 10.9359C20.1132 10.8843 19.9675 10.6547 20.0191 10.4229C20.1003 10.0579 20.1493 9.6812 20.1648 9.30323C20.1743 9.06587 20.3768 8.87409 20.612 8.89086C20.8494 8.90032 21.0339 9.10027 21.024 9.33763C21.0063 9.76763 20.9509 10.1955 20.8584 10.6104C20.8141 10.8099 20.6361 10.9463 20.4392 10.9463Z" fill="white"/>
</g>
<defs>
<clipPath id="clip0_6036_672">
<rect width="24" height="24" fill="white" transform="translate(0 0.0999756)"/>
</clipPath>
</defs>
</svg>
