<svg width="24" height="25" viewBox="0 0 24 25" fill="none" xmlns="http://www.w3.org/2000/svg">
<g clip-path="url(#clip0_2087_1178)">
<path d="M14.8335 2.29607C14.7007 2.28201 14.5694 2.33826 14.4835 2.44607L13.2835 3.94607C13.0929 4.18514 12.8116 4.35232 12.5085 4.39607L12.396 4.40857C11.8616 4.48357 10.8413 5.07889 10.3335 6.32107C9.82569 7.56326 8.2835 11.4586 8.2835 11.4586C8.03819 12.0726 8.33194 12.7758 8.946 13.0211C9.56006 13.2679 10.2632 12.9726 10.5085 12.3586L12.2835 7.89607H20.821L21.9335 6.10857C21.9944 6.0117 22.0163 5.89295 21.9835 5.78357C21.9522 5.6742 21.8741 5.58201 21.771 5.53357L14.971 2.33357C14.9288 2.31326 14.8772 2.30076 14.8335 2.29607ZM8.4835 7.50857C7.54444 7.50857 6.66631 7.97889 6.146 8.75857L4.5085 11.2211L2.171 12.7711C2.0335 12.8633 1.97256 13.0351 2.0085 13.1961L2.346 14.7086L3.6085 20.3961C3.64912 20.5789 3.8085 20.7086 3.996 20.7086H5.996V19.8836C5.996 19.0101 6.71475 18.2961 7.596 18.2961C8.07569 18.2961 8.50225 18.5148 8.796 18.8461C9.08975 18.5148 9.51631 18.2961 9.996 18.2961C10.4757 18.2961 10.9023 18.5148 11.196 18.8461C11.4897 18.5148 11.9163 18.2961 12.396 18.2961C12.8757 18.2961 13.3022 18.5148 13.596 18.8461C13.8898 18.5148 14.3163 18.2961 14.796 18.2961C15.6788 18.2961 16.396 19.0101 16.396 19.8836V20.7086H18.796C19.4585 20.7086 19.996 20.1711 19.996 19.5086C19.996 18.8461 19.4585 18.3086 18.796 18.3086H17.996C17.7741 18.3086 17.596 18.1304 17.596 17.9086C17.596 17.6867 17.7741 17.5086 17.996 17.5086H19.196C19.8585 17.5086 20.396 16.9711 20.396 16.3086C20.396 15.6461 19.8585 15.1086 19.196 15.1086H18.396C18.1741 15.1086 17.996 14.9304 17.996 14.7086C17.996 14.4867 18.1741 14.3086 18.396 14.3086H19.596C20.2585 14.3086 20.796 13.7711 20.796 13.1086C20.796 12.4461 20.2585 11.9086 19.596 11.9086H18.796C18.5741 11.9086 18.396 11.7304 18.396 11.5086C18.396 11.2867 18.5741 11.1086 18.796 11.1086H19.996C20.6585 11.1086 21.196 10.5711 21.196 9.90857C21.196 9.24607 20.6585 8.70857 19.996 8.70857H12.8335L11.246 12.6711C10.9335 13.4523 10.1897 13.9211 9.396 13.9211C9.14913 13.9211 8.88819 13.8804 8.646 13.7836C7.62256 13.3742 7.12413 12.207 7.5335 11.1836L9.0085 7.50857H8.4835ZM7.596 19.0961C7.15381 19.0961 6.796 19.4508 6.796 19.8836V21.1211C6.796 21.5539 7.15381 21.9086 7.596 21.9086C8.03819 21.9086 8.396 21.5539 8.396 21.1211V19.8836C8.396 19.4508 8.03819 19.0961 7.596 19.0961ZM9.996 19.0961C9.55381 19.0961 9.196 19.4508 9.196 19.8836V21.1211C9.196 21.5539 9.55381 21.9086 9.996 21.9086C10.4382 21.9086 10.796 21.5539 10.796 21.1211V19.8836C10.796 19.4508 10.4382 19.0961 9.996 19.0961ZM12.396 19.0961C11.9538 19.0961 11.596 19.4508 11.596 19.8836V21.1211C11.596 21.5539 11.9538 21.9086 12.396 21.9086C12.8382 21.9086 13.196 21.5539 13.196 21.1211V19.8836C13.196 19.4508 12.8382 19.0961 12.396 19.0961ZM14.796 19.0961C14.3538 19.0961 13.996 19.4508 13.996 19.8836V21.1211C13.996 21.5539 14.3538 21.9086 14.796 21.9086C15.2382 21.9086 15.596 21.5539 15.596 21.1211V19.8836C15.596 19.4508 15.2382 19.0961 14.796 19.0961Z" fill="white"/>
</g>
<defs>
<clipPath id="clip0_2087_1178">
<rect width="24" height="24" fill="white" transform="translate(0 0.100098)"/>
</clipPath>
</defs>
</svg>
