<svg width="24" height="25" viewBox="0 0 24 25" fill="none" xmlns="http://www.w3.org/2000/svg">
<g clip-path="url(#clip0_6036_693)">
<path d="M6 2.10001C4.67656 2.10001 3.6 3.17657 3.6 4.50001C3.6 5.82344 4.67656 6.90001 6 6.90001C7.32344 6.90001 8.4 5.82344 8.4 4.50001C8.4 3.17657 7.32344 2.10001 6 2.10001ZM4.2 7.30001C2.9875 7.30001 2 8.28751 2 9.50001V15.3C2 15.7422 2.35938 16.1 2.8 16.1C3.24063 16.1 3.6 15.7422 3.6 15.3V10.5C3.6 10.3922 3.69219 10.3 3.8 10.3C3.90781 10.3 4 10.3922 4 10.5V21.025C4 21.65 4.33594 22.1 4.9625 22.1C5.55469 22.1 6 21.6406 6 21.025V15.575C6 15.4641 6.08906 15.375 6.2 15.375C6.31094 15.375 6.4 15.4641 6.4 15.575V21.1375C6.40156 21.1406 6.41094 21.1344 6.4125 21.1375C6.46719 21.6906 6.88438 22.1 7.4375 22.1C8.0625 22.1 8.4 21.65 8.4 21.025V10.5C8.4 10.3922 8.49219 10.3 8.6 10.3C8.70781 10.3 8.8 10.3922 8.8 10.5V15.3C8.8 15.7422 9.15938 16.1 9.6 16.1C10.0406 16.1 10.4 15.7422 10.4 15.3V9.50001C10.4 8.28751 9.4125 7.30001 8.2 7.30001H4.2ZM17.7625 9.70001C17.6281 9.71251 17.5016 9.79844 17.4375 9.92501L15.75 13.3H21.825C21.3406 11.6094 19.8641 10.2125 17.9 9.71251C17.8547 9.70157 17.8078 9.69532 17.7625 9.70001ZM12 14.1C11.7797 14.1 11.6 14.2781 11.6 14.5C11.6 16.0313 12.3859 17.3953 13.6 18.275C12.8969 18.5844 12.4 19.2828 12.4 20.1C12.4 21.2031 13.2969 22.1 14.4 22.1C15.5031 22.1 16.4 21.2031 16.4 20.1C16.4 19.8 16.3313 19.5188 16.2125 19.2625C16.4078 19.2828 16.6 19.3 16.8 19.3C17.15 19.3 17.4938 19.2609 17.825 19.2C17.6859 19.4719 17.6 19.7734 17.6 20.1C17.6 21.2031 18.4969 22.1 19.6 22.1C20.7031 22.1 21.6 21.2031 21.6 20.1C21.6 19.1813 20.9719 18.4078 20.125 18.175C21.2656 17.2938 22 15.9766 22 14.5C22 14.2781 21.8219 14.1 21.6 14.1H12ZM14.4 18.9C15.0609 18.9 15.6 19.4391 15.6 20.1C15.6 20.7609 15.0609 21.3 14.4 21.3C13.7391 21.3 13.2 20.7609 13.2 20.1C13.2 19.4391 13.7391 18.9 14.4 18.9ZM19.6 18.9C20.2609 18.9 20.8 19.4391 20.8 20.1C20.8 20.7609 20.2609 21.3 19.6 21.3C18.9391 21.3 18.4 20.7609 18.4 20.1C18.4 19.4391 18.9391 18.9 19.6 18.9Z" fill="white"/>
</g>
<defs>
<clipPath id="clip0_6036_693">
<rect width="24" height="24" fill="white" transform="translate(0 0.100006)"/>
</clipPath>
</defs>
</svg>
