<svg width="24" height="25" viewBox="0 0 24 25" fill="none" xmlns="http://www.w3.org/2000/svg">
<g clip-path="url(#clip0_6036_730)">
<path d="M8.84999 3.0955C7.85588 3.0955 7.04999 3.90138 7.04999 4.8955C7.04999 5.88961 7.85588 6.6955 8.84999 6.6955C9.84411 6.6955 10.65 5.88961 10.65 4.8955C10.65 3.90138 9.84411 3.0955 8.84999 3.0955ZM15.15 3.0955C14.1559 3.0955 13.35 3.90138 13.35 4.8955C13.35 5.88961 14.1559 6.6955 15.15 6.6955C16.1441 6.6955 16.95 5.88961 16.95 4.8955C16.95 3.90138 16.1441 3.0955 15.15 3.0955ZM17.4018 5.79638C17.4018 5.79638 17.3545 6.64827 17.8509 7.14462C18.3472 7.64097 19.1991 7.59374 19.1991 7.59374C19.1991 7.59374 19.2455 6.74273 18.7491 6.24638C18.2528 5.75003 17.4018 5.79638 17.4018 5.79638ZM7.85244 7.5955C6.97812 7.5955 6.16594 8.05848 5.72109 8.81102C5.719 8.8151 5.71694 8.81921 5.71494 8.82333L4.82724 10.3975L3.19687 9.09315C2.90563 8.86016 2.48065 8.90738 2.24765 9.19862C2.01466 9.48987 2.06188 9.91485 2.35312 10.1478L4.60312 11.9478C4.75778 12.0715 4.95896 12.1211 5.15337 12.0833C5.34778 12.0456 5.51582 11.9244 5.61298 11.7518L6.59999 10.0019V13.2205V15.6955V20.4205C6.59655 20.6639 6.72445 20.8904 6.93471 21.0131C7.14497 21.1358 7.40502 21.1358 7.61528 21.0131C7.82554 20.8904 7.95344 20.6639 7.94999 20.4205V15.6955H9.74999V20.4205C9.74655 20.6639 9.87445 20.8904 10.0847 21.0131C10.295 21.1358 10.555 21.1358 10.7653 21.0131C10.9755 20.8904 11.1034 20.6639 11.1 20.4205V15.8906C11.3727 15.7942 11.5537 15.5347 11.55 15.2455V10.0705C11.55 8.7116 10.4339 7.5955 9.07499 7.5955H7.85244ZM14.925 7.5955C13.5661 7.5955 12.45 8.7116 12.45 10.0705V15.2455C12.4463 15.5347 12.6273 15.7942 12.9 15.8906V20.4205C12.8966 20.6639 13.0244 20.8904 13.2347 21.0131C13.445 21.1358 13.705 21.1358 13.9153 21.0131C14.1255 20.8904 14.2534 20.6639 14.25 20.4205V17.0455H16.05V20.4205C16.0466 20.6639 16.1744 20.8904 16.3847 21.0131C16.595 21.1358 16.855 21.1358 17.0653 21.0131C17.2755 20.8904 17.4034 20.6639 17.4 20.4205V17.0455H17.6654C18.0479 17.0455 18.3433 16.7094 18.2947 16.3301L17.5099 10.1962L18.387 11.7518C18.4842 11.9244 18.6522 12.0456 18.8466 12.0833C19.041 12.1211 19.2422 12.0715 19.3969 11.9478L21.6469 10.1478C21.9381 9.91485 21.9853 9.48987 21.7523 9.19862C21.5193 8.90738 21.0944 8.86016 20.8031 9.09315L19.1727 10.3975L18.2851 8.82333C18.283 8.81921 18.281 8.8151 18.2789 8.81102C17.834 8.05848 17.0219 7.5955 16.1476 7.5955H14.925Z" fill="white"/>
</g>
<defs>
<clipPath id="clip0_6036_730">
<rect width="24" height="24" fill="white" transform="translate(0 0.0999985)"/>
</clipPath>
</defs>
</svg>
