<svg width="24" height="25" viewBox="0 0 24 25" fill="none" xmlns="http://www.w3.org/2000/svg">
<g clip-path="url(#clip0_6036_662)">
<path d="M12 2.09998C6.48867 2.09998 2 6.58864 2 12.1C2 17.6113 6.48867 22.1 12 22.1C14.2468 22.1 16.3284 21.3553 18 20.1L20 22.1V17.1H15L16.5625 18.6625C15.2683 19.5646 13.702 20.1 12 20.1C7.56933 20.1 4 16.5306 4 12.1C4 7.66931 7.56933 4.09998 12 4.09998C16.4307 4.09998 20 7.66931 20 12.1H22C22 6.58864 17.5113 2.09998 12 2.09998ZM11 6.09998V13.1H16V11.1H13V6.09998H11Z" fill="white"/>
</g>
<defs>
<clipPath id="clip0_6036_662">
<rect width="24" height="24" fill="white" transform="translate(0 0.0999756)"/>
</clipPath>
</defs>
</svg>
