<svg width="24" height="25" viewBox="0 0 24 25" fill="none" xmlns="http://www.w3.org/2000/svg">
<g clip-path="url(#clip0_6036_761)">
<path d="M4.39673 3.09587C3.07573 3.09587 2.00415 4.18161 2.00415 5.52361C2.00415 7.66661 6.50415 11.0959 6.50415 11.0959C6.50415 11.0959 11.0042 7.66561 11.0042 5.52361C11.0042 4.18161 9.93453 3.09587 8.61353 3.09587C7.69353 3.09587 6.90315 3.62946 6.50415 4.40446C6.10515 3.62946 5.31673 3.09587 4.39673 3.09587ZM15.3967 3.09587C14.0757 3.09587 13.0042 4.18161 13.0042 5.52361C13.0042 7.66661 17.5042 11.0959 17.5042 11.0959C17.5042 11.0959 22.0042 7.66561 22.0042 5.52361C22.0042 4.18161 20.9345 3.09587 19.6135 3.09587C18.6935 3.09587 17.9032 3.62946 17.5042 4.40446C17.1052 3.62946 16.3167 3.09587 15.3967 3.09587ZM4.39673 13.0959C3.07573 13.0959 2.00415 14.1816 2.00415 15.5236C2.00415 17.6666 6.50415 21.0959 6.50415 21.0959C6.50415 21.0959 11.0042 17.6656 11.0042 15.5236C11.0042 14.1816 9.93453 13.0959 8.61353 13.0959C7.69353 13.0959 6.90315 13.6295 6.50415 14.4045C6.10515 13.6295 5.31673 13.0959 4.39673 13.0959Z" fill="white"/>
</g>
<defs>
<clipPath id="clip0_6036_761">
<rect width="24" height="24" fill="white" transform="translate(0 0.100006)"/>
</clipPath>
</defs>
</svg>
