<svg width="24" height="25" viewBox="0 0 24 25" fill="none" xmlns="http://www.w3.org/2000/svg">
<g clip-path="url(#clip0_6036_740)">
<path d="M12.99 2.1V4.1H13.99V6.01406L16.0759 8.1L13.99 10.1859V12.1H12.99V14.1H21.99V12.1H20.99V10.1859L18.9041 8.1L20.99 6.01406V4.1H21.99V2.1H12.99ZM10.99 2.17031C7.334 2.62731 4.44473 5.54419 4.04273 9.21719L2.1482 12.1879C1.8442 12.6639 2.04322 13.2999 2.56422 13.5199L3.99 14.1215V17.1C3.99 18.205 4.885 19.1 5.99 19.1H7.99V22.1H16.99V19.3402C16.99 17.8532 17.2776 16.882 17.6736 16.1H12.99C11.885 16.1 10.99 15.205 10.99 14.1V12.1V10.1L13.2478 8.1L10.99 6.1V4.1V2.17031ZM15.99 4.1H18.99V5.18594L17.49 6.68594L15.99 5.18594V4.1ZM17.49 9.51406L18.99 11.0141V12.1H15.99V11.0141L17.49 9.51406Z" fill="white"/>
</g>
<defs>
<clipPath id="clip0_6036_740">
<rect width="24" height="24" fill="white" transform="translate(0 0.0999985)"/>
</clipPath>
</defs>
</svg>
