<svg width="24" height="25" viewBox="0 0 24 25" fill="none" xmlns="http://www.w3.org/2000/svg">
<g clip-path="url(#clip0_6036_652)">
<path d="M14.8335 2.29595C14.7007 2.28189 14.5695 2.33814 14.4835 2.44595L13.2835 3.94595C13.0929 4.18501 12.8116 4.3522 12.5085 4.39595L12.396 4.40845C11.8616 4.48345 10.8413 5.07876 10.3335 6.32095C9.8257 7.56314 8.28351 11.4585 8.28351 11.4585C8.0382 12.0725 8.33195 12.7756 8.94602 13.021C9.56008 13.2678 10.2632 12.9725 10.5085 12.3585L12.2835 7.89595H20.821L21.9335 6.10845C21.9945 6.01158 22.0163 5.89283 21.9835 5.78345C21.9523 5.67408 21.8741 5.58189 21.771 5.53345L14.971 2.33345C14.9288 2.31314 14.8773 2.30064 14.8335 2.29595ZM8.48352 7.50845C7.54445 7.50845 6.66633 7.97876 6.14601 8.75845L4.50851 11.221L2.17101 12.771C2.03351 12.8631 1.97258 13.035 2.00851 13.196L2.34601 14.7085L3.60851 20.396C3.64914 20.5788 3.80851 20.7085 3.99601 20.7085H5.99601V19.8835C5.99601 19.01 6.71476 18.296 7.59601 18.296C8.0757 18.296 8.50227 18.5147 8.79602 18.846C9.08977 18.5147 9.51633 18.296 9.99602 18.296C10.4757 18.296 10.9023 18.5147 11.196 18.846C11.4898 18.5147 11.9163 18.296 12.396 18.296C12.8757 18.296 13.3023 18.5147 13.596 18.846C13.8898 18.5147 14.3163 18.296 14.796 18.296C15.6788 18.296 16.396 19.01 16.396 19.8835V20.7085H18.796C19.4585 20.7085 19.996 20.171 19.996 19.5085C19.996 18.846 19.4585 18.3085 18.796 18.3085H17.996C17.7741 18.3085 17.596 18.1303 17.596 17.9085C17.596 17.6866 17.7741 17.5085 17.996 17.5085H19.196C19.8585 17.5085 20.396 16.971 20.396 16.3085C20.396 15.646 19.8585 15.1085 19.196 15.1085H18.396C18.1741 15.1085 17.996 14.9303 17.996 14.7085C17.996 14.4866 18.1741 14.3085 18.396 14.3085H19.596C20.2585 14.3085 20.796 13.771 20.796 13.1085C20.796 12.446 20.2585 11.9085 19.596 11.9085H18.796C18.5741 11.9085 18.396 11.7303 18.396 11.5085C18.396 11.2866 18.5741 11.1085 18.796 11.1085H19.996C20.6585 11.1085 21.196 10.571 21.196 9.90845C21.196 9.24595 20.6585 8.70845 19.996 8.70845H12.8335L11.246 12.671C10.9335 13.4522 10.1898 13.921 9.39602 13.921C9.14914 13.921 8.8882 13.8803 8.64602 13.7835C7.62258 13.3741 7.12414 12.2069 7.53351 11.1835L9.00852 7.50845H8.48352ZM7.59601 19.096C7.15383 19.096 6.79601 19.4506 6.79601 19.8835V21.121C6.79601 21.5538 7.15383 21.9085 7.59601 21.9085C8.0382 21.9085 8.39601 21.5538 8.39601 21.121V19.8835C8.39601 19.4506 8.0382 19.096 7.59601 19.096ZM9.99602 19.096C9.55383 19.096 9.19602 19.4506 9.19602 19.8835V21.121C9.19602 21.5538 9.55383 21.9085 9.99602 21.9085C10.4382 21.9085 10.796 21.5538 10.796 21.121V19.8835C10.796 19.4506 10.4382 19.096 9.99602 19.096ZM12.396 19.096C11.9538 19.096 11.596 19.4506 11.596 19.8835V21.121C11.596 21.5538 11.9538 21.9085 12.396 21.9085C12.8382 21.9085 13.196 21.5538 13.196 21.121V19.8835C13.196 19.4506 12.8382 19.096 12.396 19.096ZM14.796 19.096C14.3538 19.096 13.996 19.4506 13.996 19.8835V21.121C13.996 21.5538 14.3538 21.9085 14.796 21.9085C15.2382 21.9085 15.596 21.5538 15.596 21.121V19.8835C15.596 19.4506 15.2382 19.096 14.796 19.096Z" fill="white"/>
</g>
<defs>
<clipPath id="clip0_6036_652">
<rect width="24" height="24" fill="white" transform="translate(0 0.0999756)"/>
</clipPath>
</defs>
</svg>
