<svg width="24" height="25" viewBox="0 0 24 25" fill="none" xmlns="http://www.w3.org/2000/svg">
<g clip-path="url(#clip0_6036_832)">
<path d="M15 2.10001C13.6193 2.10001 12.5 3.21929 12.5 4.60001C12.5009 5.06619 12.6322 5.52284 12.8789 5.91837L11.5527 8.24258C11.2097 8.14846 10.8557 8.10051 10.5 8.10001C9.90927 8.10192 9.3263 8.23466 8.79297 8.48868L7.26367 6.65469C7.41841 6.32457 7.49907 5.9646 7.5 5.60001C7.5 4.21929 6.38071 3.10001 5 3.10001C3.61929 3.10001 2.5 4.21929 2.5 5.60001C2.5 6.98072 3.61929 8.10001 5 8.10001C5.2593 8.09949 5.51693 8.05864 5.76367 7.97891L7.25586 9.76797C6.76604 10.447 6.50167 11.2627 6.5 12.1C6.50167 12.9373 6.76604 13.753 7.25586 14.432L5.76367 16.2231C5.51704 16.1427 5.2594 16.1012 5 16.1C3.61929 16.1 2.5 17.2193 2.5 18.6C2.5 19.9807 3.61929 21.1 5 21.1C6.38071 21.1 7.5 19.9807 7.5 18.6C7.49907 18.2354 7.41841 17.8754 7.26367 17.5453L8.79102 15.7113C9.32494 15.9656 9.90861 16.0984 10.5 16.1C11.0072 16.099 11.5096 16.0016 11.9805 15.8129L13.8398 18.3461C13.618 18.7268 13.5008 19.1594 13.5 19.6C13.5 20.9807 14.6193 22.1 16 22.1C17.3807 22.1 18.5 20.9807 18.5 19.6C18.5 18.2193 17.3807 17.1 16 17.1C15.816 17.1006 15.6326 17.1216 15.4531 17.1625L13.5957 14.6293C14.0106 14.1199 14.2937 13.5162 14.4199 12.8715L16.7734 12.7328C17.1995 13.571 18.0598 14.0992 19 14.1C20.3807 14.1 21.5 12.9807 21.5 11.6C21.5 10.2193 20.3807 9.10001 19 9.10001C17.9531 9.10104 17.0178 9.75424 16.6562 10.7367L14.3066 10.8734C14.1068 10.2526 13.7581 9.69002 13.291 9.23477L14.5352 7.05508C14.6884 7.08453 14.844 7.09957 15 7.10001C16.3807 7.10001 17.5 5.98072 17.5 4.60001C17.5 3.21929 16.3807 2.10001 15 2.10001Z" fill="white"/>
</g>
<defs>
<clipPath id="clip0_6036_832">
<rect width="24" height="24" fill="white" transform="translate(0 0.100006)"/>
</clipPath>
</defs>
</svg>
