<svg width="24" height="25" viewBox="0 0 24 25" fill="none" xmlns="http://www.w3.org/2000/svg">
<g clip-path="url(#clip0_6036_822)">
<path d="M21.213 13.1L18.738 9.218C18.258 4.826 14.224 1.504 9.572 2.19C5.25 2.828 2.393 6.836 2.843 11.182C3.243 15.047 5.79 14.907 5.79 19.34V22.1H14.79V19.1H18.79V14.121L21.213 13.1ZM14.79 14.1H10.79V12.1V10.1L12.203 11.513C12.566 11.151 12.79 10.651 12.79 10.1C12.79 8.997 11.893 8.1 10.79 8.1C9.687 8.1 8.79 8.997 8.79 10.1H6.79C6.79 7.894 8.584 6.1 10.79 6.1C12.996 6.1 14.79 7.894 14.79 10.1C14.79 11.203 14.342 12.203 13.617 12.927L14.79 14.1Z" fill="white"/>
</g>
<defs>
<clipPath id="clip0_6036_822">
<rect width="24" height="24" fill="white" transform="translate(0 0.100006)"/>
</clipPath>
</defs>
</svg>
